<?xml version="1.0" encoding="utf-8"?>
<!-- Generator: Adobe Illustrator 16.0.3, SVG Export Plug-In . SVG Version: 6.00 Build 0)  -->
<!DOCTYPE svg PUBLIC "-//W3C//DTD SVG 1.1//EN" "http://www.w3.org/Graphics/SVG/1.1/DTD/svg11.dtd">
<svg version="1.1" id="Capa_1" xmlns="http://www.w3.org/2000/svg" xmlns:xlink="http://www.w3.org/1999/xlink" x="0px" y="0px"
	 width="131.03px" height="130.03px" viewBox="0 0 131.03 130.03" enable-background="new 0 0 131.03 130.03" xml:space="preserve">
<g>
	<path fill-rule="evenodd" clip-rule="evenodd" fill="#020202" d="M129.994,65.523c-0.29,35.445-28.743,63.696-63.878,63.426
		C30.864,128.678,2.526,99.878,2.98,64.785C3.434,29.806,32.249,1.644,67.104,2.111C102.002,2.58,130.276,31.089,129.994,65.523z
		 M76.02,45.742c-1.455-2.191-3.857-2.126-6.057-2.542c-2.686,0.849-5.282-2.325-7.996-0.18c-0.335,0.012-0.66,0.073-0.976,0.186
		c-4.563,0.729-9.121,1.47-12.075,5.644c-3.573,3.244-6.096,7.031-6.247,12.05c-1.939,5.28-0.123,10.171,1.563,15.075
		c1.081,4.141,3.797,6.731,7.734,8.165c8.403,8.325,15.957,6.251,25.028,2.053c2.244,0.938,2.453-1.808,3.966-2.192
		c3.123-1.771,5.184-4.389,6.233-7.813c0.91-1.653,1.82-3.306,2.73-4.958c2.413,1.73,0.583,4.183,1.01,6.262
		c0.271,1.319-0.032,2.932,1.996,2.503c4.715-0.997,4.111,2.157,4.074,4.972c-0.034,2.566-0.007,5.133-0.007,8.782
		c9.374-9.449,17.855-18.104,26.485-26.61c1.817-1.792,1.475-2.749-0.153-4.34c-7.033-6.873-13.942-13.872-20.898-20.822
		c-1.292-1.29-2.59-2.573-4.433-4.404c0,3.469-0.224,5.829,0.053,8.129c0.41,3.4-0.591,5.034-4.227,4.338
		c-2.661-0.511-2.758,1.039-2.917,3.157c-0.199,2.654,1.283,5.58-1.001,7.97c-1.83-2.431-1.213-6.039-3.879-8.068
		C83.347,49.75,81.094,45.827,76.02,45.742z M37.452,33.018c3.997,0,6.949,0.147,9.878-0.044c2.592-0.169,4.22,0.301,3.661,3.379
		c-0.419,2.304,0.756,2.731,2.82,2.707c8.153-0.1,16.307-0.065,24.46-0.021c1.669,0.009,3.142-0.074,2.693-2.296
		c-0.94-4.659,1.606-5.175,5.287-4.767c2.064,0.229,4.174,0.041,7.252,0.041C84.748,23.271,76.596,15.31,68.688,7.113
		c-2.172-2.251-3.28-2.191-5.421,0.021C55.051,15.615,46.609,23.876,37.452,33.018z M33.974,93.724c0-4.071,0.097-6.872-0.028-9.661
		c-0.114-2.55-0.115-4.745,3.485-4.049c1.884,0.363,2.607-0.421,2.584-2.43c-0.097-8.319-0.042-16.64-0.038-24.96
		c0.001-1.34,0.162-2.967-1.896-2.557c-5.318,1.061-5.537-2.035-5.14-5.92c0.192-1.891,0.033-3.817,0.033-6.79
		C23.89,46.5,15.655,54.882,7.289,63.132c-1.694,1.671-1.208,2.567,0.202,3.972C16.08,75.655,24.595,84.28,33.974,93.724z
		 M37.46,99.043c9.288,9.276,17.76,17.744,26.242,26.201c1.12,1.116,1.95,2.731,3.924,0.715
		c8.313-8.491,16.763-16.851,25.821-25.916c-3.209,0-5.483-0.146-7.73,0.034c-3.221,0.26-5.672-0.01-4.751-4.294
		c0.593-2.762-1.193-2.79-3.229-2.771c-7.82,0.071-15.642-0.012-23.462,0.071c-1.227,0.014-3.623-0.928-3.208,1.648
		c0.775,4.821-2.122,4.501-5.268,4.337C43.37,98.94,40.927,99.043,37.46,99.043z"/>
	<path fill-rule="evenodd" clip-rule="evenodd" fill="#FEFEFE" d="M89.904,61.165c2.285-2.391,0.803-5.317,1.002-7.971
		c0.159-2.118,0.256-3.667,2.917-3.157c3.636,0.696,4.637-0.938,4.227-4.338c-0.277-2.3-0.053-4.66-0.053-8.129
		c1.843,1.832,3.142,3.115,4.433,4.404c6.956,6.951,13.866,13.949,20.898,20.822c1.628,1.591,1.971,2.548,0.153,4.34
		c-8.63,8.506-17.111,17.161-26.485,26.61c0-3.649-0.026-6.216,0.007-8.782c0.037-2.815,0.641-5.968-4.074-4.972
		c-2.028,0.429-1.725-1.184-1.996-2.503c-0.427-2.079,1.403-4.531-1.009-6.263C90.803,67.872,87.49,64.524,89.904,61.165z"/>
	<path fill-rule="evenodd" clip-rule="evenodd" fill="#FEFEFE" d="M37.452,33.018c9.157-9.142,17.6-17.403,25.814-25.885
		c2.142-2.211,3.25-2.272,5.421-0.021c7.908,8.197,16.06,16.159,24.816,24.905c-3.078,0-5.188,0.188-7.252-0.041
		c-3.681-0.408-6.228,0.108-5.287,4.767c0.449,2.222-1.024,2.305-2.693,2.296c-8.153-0.045-16.308-0.079-24.46,0.021
		c-2.064,0.024-3.239-0.403-2.82-2.707c0.559-3.079-1.068-3.548-3.661-3.379C44.401,33.166,41.449,33.018,37.452,33.018z"/>
	<path fill-rule="evenodd" clip-rule="evenodd" fill="#FEFEFE" d="M33.974,93.724C24.595,84.28,16.08,75.655,7.491,67.104
		c-1.411-1.405-1.896-2.3-0.202-3.972c8.366-8.25,16.601-16.633,25.685-25.775c0,2.972,0.159,4.898-0.033,6.79
		c-0.396,3.886-0.178,6.981,5.14,5.92c2.058-0.41,1.897,1.217,1.896,2.557c-0.004,8.32-0.059,16.641,0.038,24.96
		c0.023,2.009-0.7,2.793-2.584,2.43c-3.601-0.696-3.6,1.499-3.485,4.049C34.07,86.853,33.974,89.653,33.974,93.724z"/>
	<path fill-rule="evenodd" clip-rule="evenodd" fill="#FEFEFE" d="M37.46,99.043c3.467,0,5.909-0.103,8.339,0.025
		c3.146,0.164,6.042,0.484,5.268-4.337c-0.414-2.576,1.981-1.634,3.208-1.648c7.82-0.083,15.642,0,23.462-0.071
		c2.036-0.019,3.822,0.009,3.229,2.771c-0.921,4.284,1.53,4.554,4.751,4.294c2.247-0.181,4.521-0.034,7.73-0.034
		c-9.059,9.065-17.508,17.425-25.821,25.916c-1.974,2.016-2.804,0.401-3.924-0.715C55.221,116.787,46.749,108.319,37.46,99.043z"/>
	<path fill-rule="evenodd" clip-rule="evenodd" fill="#A00F0F" d="M44.232,75.974c-1.687-4.903-3.502-9.794-1.563-15.075
		c1.174,4.686,3.19,8.68,8.31,10.128c3.663,0.699,6.548,5.671,11.006,2.002c0.961,0.014,1.922,0.028,2.884,0.042
		c0.816,1.062,1.983,0.94,3.118,0.929c3.66,2.844,7.335-0.915,11,0.024c2.06,3.284,5.651,0.754,8.206,2.162
		c-1.049,3.425-3.11,6.042-6.232,7.813c-0.809-4.078-4.326-3.595-7.075-3.867c-2.397-0.237-5.252,1.268-7.252,0.436
		C59.409,77.562,52.038,75.867,44.232,75.974z M81.166,78.274c-0.146,0.043-0.316,0.057-0.425,0.146
		c-0.042,0.034,0.058,0.241,0.093,0.369c0.146-0.044,0.316-0.058,0.425-0.146C81.3,78.608,81.201,78.402,81.166,78.274z"/>
	<path fill-rule="evenodd" clip-rule="evenodd" fill="#7B090A" d="M44.232,75.974c7.806-0.107,15.177,1.587,22.402,4.595
		c2,0.832,4.855-0.673,7.252-0.436c2.749,0.272,6.266-0.211,7.075,3.867c-1.514,0.384-1.723,3.129-3.966,2.191
		c-2.36-2.441-5.298-0.349-7.894-0.628c-5.66-0.609-11.212-4.189-17.134-1.424C48.03,82.705,45.313,80.115,44.232,75.974z"/>
	<path fill-rule="evenodd" clip-rule="evenodd" fill="#B31515" d="M50.979,71.028c-5.12-1.449-7.136-5.443-8.31-10.128
		c0.149-5.019,2.672-8.806,6.246-12.05c1.63,2.019,3.483-2.21,5.101,0.183c-0.238,0.862-1.317,1.813-0.214,2.585
		c1.203,0.844,2.48,0.355,3.569-0.529c2.582-2.096,5.208-3.983,8.709-1.933c-0.704,1.301-2.277,2.142-2.082,3.922
		c-1.58-0.178-1.999,1.336-2.973,2.041c-2.766,0.056-5.585-0.583-8.271,0.528c-1.265,0.524-2.718-1.136-3.965,0.734
		c-2.211,3.313-0.5,10.724,3.174,12.658c0.329,0.072,0.657,0.145,0.987,0.216C52.293,69.845,51.636,70.436,50.979,71.028z"/>
	<path fill-rule="evenodd" clip-rule="evenodd" fill="#BF1313" d="M87.194,76.187c-2.555-1.408-6.146,1.122-8.206-2.162
		c0-0.662-0.001-1.325-0.002-1.987c1.978-1.075,3.258-2.565,2.962-4.99c3.744-4.229,3.75-8.983,1.966-13.99
		c0.704,0.013,1.407,0.025,2.111,0.038c2.666,2.029,2.049,5.636,3.878,8.067c-2.414,3.36,0.898,6.708,0.021,10.064
		C89.014,72.881,88.104,74.534,87.194,76.187z"/>
	<path fill-rule="evenodd" clip-rule="evenodd" fill="#4A1010" d="M51.967,84.139c5.922-2.766,11.474,0.814,17.134,1.424
		c2.596,0.279,5.534-1.813,7.894,0.628C67.923,90.391,60.37,92.464,51.967,84.139z"/>
	<path fill-rule="evenodd" clip-rule="evenodd" fill="#9D0404" d="M66.082,49.156c-3.501-2.051-6.128-0.164-8.71,1.932
		c-1.088,0.884-2.366,1.374-3.569,0.529c-1.103-0.772-0.024-1.724,0.214-2.585c1.534-2.888,6.434-1.749,6.974-5.826
		c0.316-0.113,0.641-0.174,0.976-0.186c2.618,2.169,5.287,2.048,7.996,0.18c2.2,0.415,4.602,0.351,6.058,2.542
		c-0.446,1.593-1.643,2.223-3.146,2.457C70.479,47.589,68.364,48.961,66.082,49.156z"/>
	<path fill-rule="evenodd" clip-rule="evenodd" fill="#BC1D1E" d="M72.873,48.201c1.505-0.235,2.701-0.866,3.147-2.458
		c5.074,0.084,7.327,4.008,10.005,7.353c-0.703-0.012-1.407-0.024-2.109-0.038c-0.648-0.333-1.296-0.666-1.945-0.999l-0.013-0.013
		c-0.271-0.536-0.562-0.645-0.888-0.044c-1.689,0.023-3.378,0.046-5.068,0.069C74.339,51.283,72.672,50.498,72.873,48.201z"/>
	<path fill-rule="evenodd" clip-rule="evenodd" fill="#A00F0F" d="M60.99,43.206c-0.54,4.078-5.44,2.938-6.974,5.826
		c-1.617-2.393-3.47,1.836-5.101-0.183C51.869,44.676,56.427,43.935,60.99,43.206z"/>
	<path fill-rule="evenodd" clip-rule="evenodd" fill="#A00F0F" d="M69.962,43.2c-2.709,1.868-5.378,1.989-7.996-0.18
		C64.681,40.875,67.276,44.049,69.962,43.2z"/>
	<path fill-rule="evenodd" clip-rule="evenodd" fill="#C30C0D" d="M76.002,52.071c1.689-0.023,3.378-0.046,5.067-0.068
		c0.295,0.03,0.591,0.044,0.889,0.043c0,0,0.013,0.013,0.013,0.012c0.315,1.408,0.705,2.804,0.933,4.227
		c0.622,3.889-0.893,4.994-4.918,3.645c-2.248-3.538-4.518-1.989-6.483,0.167c-2.512,2.757-2.095,5.206,1.335,6.949
		c0,0,0.193-0.018,0.192-0.018c-0.024,0.67-0.048,1.34-0.072,2.01l0.001-0.007c-1.611,0.011-3.237,0.169-4.829,0
		c-3.298-0.348-3.886,1.315-3.261,4.042c-0.96-0.015-1.922-0.029-2.883-0.043c0.084-1.751,1.97-3.87-1.018-4.995
		c-0.06-0.708-0.12-1.417-0.18-2.125c0.326-0.037,0.629-0.14,0.909-0.31c3.125-1.839,4.929-4.972,7.347-7.502
		C71.468,56.211,74.438,54.952,76.002,52.071z"/>
	<path fill-rule="evenodd" clip-rule="evenodd" fill="#BC1D1E" d="M60.967,68.035c2.988,1.125,1.103,3.244,1.018,4.995
		c-4.458,3.669-7.343-1.303-11.006-2.002c0.657-0.592,1.313-1.183,1.971-1.776c1.347-0.062,2.693-0.12,4.04-0.18
		C58.994,71.327,59.747,68.785,60.967,68.035z"/>
	<path fill-rule="evenodd" clip-rule="evenodd" fill="#BC1D1E" d="M78.986,72.039c0,0.662,0.001,1.325,0.002,1.987
		c-3.665-0.939-7.34,2.82-11-0.024c1.779-1.535,4.962-1.665,4.971-4.97l-0.001,0.007c0.655,0.043,1.31,0.086,1.965,0.129
		C75.4,71.365,77.189,71.708,78.986,72.039z"/>
	<path fill-rule="evenodd" clip-rule="evenodd" fill="#C93132" d="M72.958,69.031c-0.008,3.305-3.191,3.435-4.971,4.97
		c-1.135,0.011-2.302,0.133-3.118-0.929c-0.626-2.725-0.038-4.389,3.26-4.041C69.721,69.2,71.348,69.042,72.958,69.031z"/>
	<path fill-rule="evenodd" clip-rule="evenodd" fill="#BF1313" d="M81.166,78.274c0.035,0.128,0.134,0.334,0.093,0.368
		c-0.109,0.089-0.279,0.103-0.425,0.146c-0.035-0.128-0.135-0.335-0.093-0.369C80.85,78.331,81.02,78.317,81.166,78.274z"/>
	<path fill-rule="evenodd" clip-rule="evenodd" fill="#DE2E2E" d="M76.002,52.071c-1.564,2.88-4.534,4.14-6.96,6.026
		c-0.656-2.704-3.838-2.869-5.042-5.02c-0.196-1.78,1.378-2.621,2.082-3.922c2.283-0.194,4.398-1.566,6.792-0.956
		C72.672,50.498,74.339,51.283,76.002,52.071z"/>
	<path fill-rule="evenodd" clip-rule="evenodd" fill="#E94141" d="M64,53.077c1.205,2.151,4.387,2.316,5.042,5.02
		c-2.417,2.532-4.221,5.664-7.342,7.507c-3.357-1.479,0.269-4.818-1.766-6.654c0.722-1.175,1.166-2.43,1.092-3.833
		C62,54.414,62.42,52.899,64,53.077z"/>
	<path fill-rule="evenodd" clip-rule="evenodd" fill="#C93132" d="M61.026,55.118c0.074,1.403-0.37,2.658-1.092,3.834
		c-3.434-1.255-7.133-3.728-9.043,1.98c-2.029,2.462-0.427,4.278,1.086,6.111c-0.005,0.665-0.01,1.33-0.014,1.996
		c-3.674-1.934-5.385-9.345-3.174-12.658c1.248-1.87,2.701-0.21,3.965-0.734C55.441,54.535,58.26,55.173,61.026,55.118z"/>
	<path fill-rule="evenodd" clip-rule="evenodd" fill="#DC5050" d="M51.963,69.038c0.004-0.666,0.009-1.331,0.014-1.996
		c2.747,0.442,4.229-0.905,5.223-3.354c0.583-1.436,0.484-2.402-0.579-3.521c-2.182-2.294-3.434,0.968-5.238,0.768
		c-0.163-0.018-0.329-0.003-0.493-0.004c1.91-5.708,5.61-3.235,9.043-1.98c2.034,1.834-1.592,5.174,1.765,6.653
		c-0.284,0.166-0.587,0.269-0.91,0.307c-2.318-0.213-3.083,1.446-3.8,3.161c-1.346,0.06-2.693,0.118-4.04,0.18
		C52.621,69.183,52.292,69.11,51.963,69.038z"/>
	<path fill-rule="evenodd" clip-rule="evenodd" fill="#DE2E2E" d="M77.985,59.929c4.026,1.349,5.54,0.244,4.918-3.645
		c-0.228-1.422-0.617-2.818-0.933-4.227c0.649,0.334,1.297,0.667,1.945,1c1.782,5.007,1.776,9.761-1.967,13.991
		c-0.314-0.001-0.628,0.002-0.942,0.007c0.001-1.003,0.002-2.006,0.003-3.011c0.243-0.354,0.486-0.707,0.729-1.061
		c-0.124-0.085-0.247-0.169-0.37-0.254c-0.135,0.425-0.271,0.85-0.406,1.274c-3.451-1.106-5.024,2.712-7.934,3.023
		c0,0-0.193,0.018-0.191,0.018C72.851,63.441,73.025,59.955,77.985,59.929z"/>
	<path fill-rule="evenodd" clip-rule="evenodd" fill="#C93132" d="M81.007,67.055c0.314-0.005,0.628-0.008,0.942-0.007
		c0.295,2.425-0.985,3.915-2.963,4.99c-1.797-0.331-3.586-0.674-4.064-2.874C77.071,68.808,79.694,69.82,81.007,67.055z"/>
	<path fill-rule="evenodd" clip-rule="evenodd" fill="#DE2E2E" d="M81.958,52.046c-0.297,0.001-0.594-0.013-0.889-0.043
		C81.396,51.401,81.688,51.51,81.958,52.046z"/>
	<path fill-rule="evenodd" clip-rule="evenodd" fill="#BF1313" d="M77.985,59.929c-4.96,0.025-5.134,3.512-5.146,7.116
		c-3.432-1.744-3.849-4.192-1.337-6.949C73.467,57.94,75.737,56.392,77.985,59.929z"/>
	<path fill-rule="evenodd" clip-rule="evenodd" fill="#E94141" d="M81.007,67.055c-1.313,2.765-3.936,1.753-6.085,2.11
		c-0.655-0.041-1.311-0.084-1.965-0.127c0.024-0.67,0.047-1.34,0.072-2.01c2.91-0.312,4.484-4.13,7.935-3.023l0.047,0.041
		C81.01,65.049,81.009,66.052,81.007,67.055z"/>
	<path fill-rule="evenodd" clip-rule="evenodd" fill="#C93132" d="M56.99,69.072c0.717-1.715,1.482-3.374,3.8-3.161
		c0.058,0.707,0.118,1.416,0.178,2.124C59.747,68.785,58.994,71.327,56.99,69.072z"/>
	<path fill-rule="evenodd" clip-rule="evenodd" fill="#E76969" d="M50.891,60.932c0.165,0.001,0.331-0.014,0.493,0.004
		c1.804,0.2,3.056-3.063,5.238-0.768c1.063,1.119,1.162,2.084,0.579,3.521c-0.995,2.45-2.477,3.797-5.223,3.354
		C50.464,65.21,48.862,63.394,50.891,60.932z"/>
	<path fill-rule="evenodd" clip-rule="evenodd" fill="#E94141" d="M80.963,64.004c0.135-0.425,0.271-0.85,0.406-1.274
		c0.124,0.085,0.247,0.169,0.37,0.254c-0.243,0.354-0.486,0.707-0.729,1.061C81.011,64.045,80.963,64.004,80.963,64.004z"/>
</g>
</svg>
