<?xml version="1.0" encoding="utf-8"?>
<!-- Generator: Adobe Illustrator 16.0.3, SVG Export Plug-In . SVG Version: 6.00 Build 0)  -->
<!DOCTYPE svg PUBLIC "-//W3C//DTD SVG 1.1//EN" "http://www.w3.org/Graphics/SVG/1.1/DTD/svg11.dtd">
<svg version="1.1" id="Capa_1" xmlns="http://www.w3.org/2000/svg" xmlns:xlink="http://www.w3.org/1999/xlink" x="0px" y="0px"
	 width="131.03px" height="130.03px" viewBox="0 0 131.03 130.03" enable-background="new 0 0 131.03 130.03" xml:space="preserve">
<g>
	<path fill-rule="evenodd" clip-rule="evenodd" fill="#FDFDFD" d="M0.631,119.022c0-35.504,0-71.01,0-106.515
		c43.006,0,86.012,0.029,129.017-0.072c2.569-0.007,3.083,0.503,3.075,3.073c-0.111,33.629-0.102,67.26-0.012,100.889
		c0.006,2.237-0.45,2.692-2.688,2.688C86.893,119,43.762,119.022,0.631,119.022z M59.809,50.897l-0.048-0.047
		c2.661,2.167,5.659,3.228,9.117,2.779c3.288,0.016,5.389-2.806,8.378-3.503c2.021-0.675,3.875-1.527,4.212-3.983
		c4.303-4.881,3.789-12.208,0.341-16.531c-0.069-1.09-0.813-1.684-1.631-2.224c-1.261-1.8-2.824-3.187-5.035-3.692
		c-0.384-0.74-1.068-0.705-1.75-0.68l-0.136-0.146l-0.177,0.091c-2.536-1.491-5.265-0.442-7.902-0.601
		c-1.279,0.341-2.517,0.74-3.066,2.129c-2.016,0.959-4.024,1.927-4.517,4.436c-1.003-0.121-1.577,0.464-2.115,1.205
		c-3.846,5.287-3.862,10.644-0.022,16.498c0.596,0.947,1.019,2.032,2.074,2.615C58.011,50.181,58.871,50.592,59.809,50.897z
		 M89.813,96.653l-0.047-0.047c2.661,2.167,5.659,3.228,9.117,2.779c3.288,0.016,5.389-2.806,8.378-3.503
		c2.021-0.675,3.875-1.527,4.213-3.982c4.302-4.882,3.789-12.209,0.341-16.532c-0.068-1.09-0.813-1.684-1.631-2.224
		c-1.261-1.8-2.824-3.187-5.035-3.692c-0.384-0.74-1.069-0.705-1.75-0.68l-0.136-0.146l-0.177,0.091
		c-2.536-1.491-5.265-0.442-7.902-0.601c-1.278,0.34-2.517,0.74-3.066,2.129c-2.016,0.959-4.023,1.927-4.517,4.436
		c-1.003-0.121-1.576,0.464-2.115,1.205c-3.846,5.287-3.862,10.644-0.022,16.498c0.597,0.947,1.019,2.032,2.075,2.614
		C88.016,95.937,88.875,96.349,89.813,96.653z M97.313,56.898l-0.047-0.047c2.661,2.166,5.659,3.228,9.117,2.779
		c3.288,0.016,5.389-2.806,8.378-3.504c2.022-0.674,3.875-1.526,4.213-3.982c4.302-4.881,3.789-12.208,0.341-16.531
		c-0.068-1.09-0.813-1.684-1.631-2.224c-1.261-1.8-2.824-3.187-5.035-3.692c-0.384-0.741-1.069-0.706-1.75-0.68l-0.136-0.146
		l-0.177,0.092c-2.536-1.492-5.265-0.442-7.902-0.601c-1.278,0.34-2.517,0.74-3.066,2.129c-2.016,0.959-4.023,1.926-4.517,4.436
		c-1.003-0.121-1.576,0.464-2.115,1.204c-3.846,5.288-3.862,10.644-0.022,16.498c0.597,0.947,1.019,2.032,2.075,2.614
		C95.517,56.182,96.376,56.593,97.313,56.898z M25.304,65.149l-0.047-0.047c2.661,2.167,5.659,3.228,9.116,2.779
		c3.288,0.016,5.39-2.806,8.379-3.503c2.021-0.675,3.875-1.527,4.213-3.982c4.302-4.882,3.789-12.209,0.341-16.532
		c-0.068-1.09-0.813-1.684-1.631-2.224c-1.261-1.8-2.824-3.187-5.035-3.692c-0.384-0.74-1.069-0.705-1.75-0.68l-0.136-0.146
		l-0.177,0.091c-2.536-1.491-5.265-0.442-7.902-0.601c-1.279,0.341-2.517,0.74-3.066,2.129c-2.016,0.959-4.024,1.927-4.517,4.436
		c-1.003-0.121-1.576,0.464-2.115,1.205c-3.846,5.287-3.862,10.644-0.022,16.498c0.596,0.947,1.019,2.032,2.075,2.615
		C23.506,64.433,24.367,64.844,25.304,65.149z M18.553,105.655l-0.047-0.047c2.661,2.166,5.659,3.228,9.116,2.779
		c3.288,0.015,5.39-2.806,8.379-3.504c2.021-0.675,3.875-1.526,4.213-3.982c4.302-4.881,3.789-12.209,0.341-16.532
		c-0.068-1.09-0.813-1.684-1.631-2.224c-1.261-1.8-2.824-3.188-5.035-3.692c-0.384-0.741-1.069-0.706-1.75-0.68l-0.136-0.146
		l-0.177,0.092c-2.536-1.492-5.265-0.443-7.902-0.601c-1.279,0.341-2.517,0.74-3.066,2.129c-2.016,0.96-4.023,1.927-4.517,4.437
		c-1.003-0.121-1.576,0.463-2.115,1.204c-3.846,5.288-3.862,10.644-0.022,16.498c0.597,0.947,1.019,2.032,2.075,2.614
		C16.755,104.938,17.616,105.35,18.553,105.655z M77.261,78.018c-0.034-9.495-7.267-15.267-18.784-14.991
		c-5.104,0.122-12.148,8.867-12.151,15.085c-0.004,8.345,7.204,15.504,15.576,15.472C70.35,93.551,77.292,86.516,77.261,78.018z"/>
	<path fill-rule="evenodd" clip-rule="evenodd" fill="#DC3516" d="M77.261,78.018c0.03,8.498-6.912,15.534-15.359,15.566
		c-8.372,0.032-15.58-7.127-15.576-15.472c0.003-6.218,7.047-14.963,12.151-15.085C69.994,62.751,77.228,68.523,77.261,78.018z
		 M74.844,78.169c0.033-6.827-6.183-13.163-12.853-13.099c-6.96,0.067-12.906,5.875-13.147,12.841
		c-0.221,6.383,6.472,13.194,12.954,13.182C68.583,91.081,74.812,84.911,74.844,78.169z"/>
	<path fill-rule="evenodd" clip-rule="evenodd" fill="#1A1A1B" d="M23.091,43.179c0.493-2.509,2.501-3.477,4.517-4.436
		c1.006,0.766,2.021,0.397,3.134,0.196c3.477-0.632,6.838-0.086,10.04,1.42c1.872,0.88,2.391,3.525,4.812,3.69l0.013-0.007
		c0.91,4.754,2.536,9.509-0.007,14.263c-0.252,0.701-0.504,1.402-0.756,2.103c-0.422,1.072-1.296,1.728-2.182,2.374
		c-0.49,0.036-1.083-0.096-1.456,0.132c-6.662,4.07-12.477,2.063-17.965-2.432c-0.178-0.85-0.532-1.519-1.546-1.515l-0.01,0.015
		c-0.508-3.469-1.236-6.921-0.821-10.462C21.578,46.729,22.898,45.189,23.091,43.179z M44.128,55.259
		c-0.196-1.778,1.337-3.328,0.679-5.166c-0.728-5.864-5.225-9.034-12.928-9.112c-3.18-0.032-8.681,5.528-9.164,9.262
		c-0.348,2.192-0.09,4.274,1.125,6.181c-0.267,1.193,0.347,1.738,1.428,1.94c6.362,7.911,14.432,5.077,17.451-0.041
		C43.555,57.471,44.233,56.545,44.128,55.259z"/>
	<path fill-rule="evenodd" clip-rule="evenodd" fill="#1A1A1B" d="M87.6,74.684c0.494-2.509,2.501-3.477,4.517-4.436
		c1.007,0.766,2.021,0.397,3.134,0.195c3.477-0.631,6.838-0.085,10.04,1.42c1.873,0.881,2.391,3.526,4.812,3.69l0.013-0.007
		c0.91,4.755,2.536,9.51-0.007,14.263c-0.252,0.701-0.504,1.402-0.756,2.103c-0.423,1.072-1.297,1.728-2.183,2.374
		c-0.491,0.036-1.083-0.096-1.456,0.132c-6.662,4.07-12.477,2.063-17.965-2.432c-0.178-0.85-0.532-1.519-1.546-1.515l-0.01,0.015
		c-0.508-3.469-1.237-6.921-0.822-10.462C86.087,78.233,87.407,76.694,87.6,74.684z M108.637,86.764
		c-0.196-1.778,1.337-3.328,0.679-5.166c-0.727-5.864-5.225-9.034-12.927-9.112c-3.181-0.032-8.681,5.528-9.164,9.262
		c-0.348,2.192-0.09,4.273,1.125,6.181c-0.267,1.193,0.347,1.738,1.428,1.939c6.362,7.912,14.432,5.077,17.451-0.04
		C108.064,88.975,108.742,88.049,108.637,86.764z"/>
	<path fill-rule="evenodd" clip-rule="evenodd" fill="#1A1A1B" d="M57.596,28.927c0.493-2.509,2.501-3.477,4.517-4.436
		c1.006,0.766,2.021,0.397,3.134,0.196c3.477-0.632,6.838-0.086,10.04,1.42c1.872,0.88,2.391,3.525,4.812,3.69l0.012-0.007
		c0.91,4.754,2.537,9.509-0.007,14.263c-0.252,0.701-0.504,1.402-0.756,2.103c-0.422,1.072-1.296,1.728-2.183,2.374
		c-0.49,0.036-1.083-0.096-1.456,0.132c-6.662,4.07-12.477,2.063-17.966-2.432c-0.178-0.85-0.531-1.519-1.546-1.515l-0.01,0.015
		c-0.508-3.469-1.236-6.921-0.821-10.462C56.083,32.477,57.403,30.938,57.596,28.927z M58.346,42.173
		c-0.268,1.193,0.347,1.738,1.428,1.94c6.362,7.911,14.432,5.077,17.451-0.041c0.835-0.854,1.514-1.779,1.409-3.065
		c-0.195-1.778,1.337-3.328,0.679-5.166c-0.727-5.864-5.225-9.034-12.927-9.112c-3.181-0.032-8.681,5.528-9.164,9.262
		C56.872,38.184,57.13,40.265,58.346,42.173z"/>
	<path fill-rule="evenodd" clip-rule="evenodd" fill="#1A1A1B" d="M16.34,83.685c0.494-2.51,2.501-3.477,4.517-4.437
		c1.007,0.767,2.021,0.397,3.134,0.196c3.477-0.631,6.838-0.085,10.04,1.42c1.872,0.88,2.391,3.525,4.812,3.69l0.013-0.007
		c0.91,4.755,2.536,9.51-0.007,14.263c-0.252,0.701-0.504,1.402-0.756,2.103c-0.423,1.071-1.297,1.728-2.183,2.373
		c-0.49,0.036-1.083-0.096-1.456,0.132c-6.662,4.07-12.477,2.063-17.965-2.432c-0.178-0.85-0.532-1.52-1.546-1.515l-0.01,0.015
		c-0.508-3.468-1.237-6.921-0.821-10.462C14.827,87.234,16.147,85.695,16.34,83.685z M17.09,96.93
		c-0.267,1.193,0.347,1.738,1.428,1.94c6.362,7.911,14.432,5.077,17.451-0.041c0.835-0.853,1.513-1.779,1.409-3.064
		c-0.196-1.778,1.337-3.328,0.679-5.166c-0.728-5.864-5.225-9.033-12.927-9.112c-3.181-0.032-8.681,5.528-9.164,9.262
		C15.617,92.942,15.875,95.023,17.09,96.93z"/>
	<path fill-rule="evenodd" clip-rule="evenodd" fill="#1A1A1B" d="M95.101,34.928c0.494-2.51,2.501-3.477,4.517-4.436
		c1.007,0.766,2.021,0.397,3.134,0.195c3.477-0.631,6.838-0.085,10.04,1.42c1.873,0.881,2.391,3.526,4.812,3.69l0.013-0.007
		c0.91,4.755,2.536,9.51-0.007,14.263c-0.252,0.701-0.504,1.402-0.756,2.103c-0.423,1.072-1.297,1.728-2.183,2.374
		c-0.491,0.036-1.083-0.096-1.456,0.132c-6.662,4.07-12.477,2.063-17.965-2.432c-0.178-0.85-0.532-1.52-1.546-1.515l-0.01,0.015
		c-0.508-3.468-1.237-6.921-0.822-10.462C93.588,38.477,94.908,36.938,95.101,34.928z M116.138,47.008
		c-0.196-1.778,1.337-3.328,0.679-5.166c-0.727-5.864-5.225-9.034-12.927-9.112c-3.181-0.032-8.681,5.528-9.164,9.262
		c-0.348,2.192-0.09,4.273,1.125,6.181c-0.268,1.193,0.347,1.737,1.427,1.939c6.363,7.912,14.432,5.077,17.451-0.04
		C115.565,49.22,116.243,48.294,116.138,47.008z"/>
	<path fill-rule="evenodd" clip-rule="evenodd" fill="#444446" d="M87.748,91.985c5.488,4.495,11.302,6.502,17.964,2.433
		c0.373-0.228,0.965-0.096,1.456-0.132c0.031,0.532,0.061,1.064,0.092,1.596c-2.989,0.698-5.091,3.519-8.378,3.503
		c-2.617-2.31-6.037-1.989-9.117-2.779l0.047,0.047c0.083-1.71-1.126-1.64-2.275-1.653c-1.056-0.582-1.478-1.667-2.075-2.614
		c0.24-0.135,0.48-0.271,0.721-0.407C86.705,91.981,87.226,91.983,87.748,91.985z"/>
	<path fill-rule="evenodd" clip-rule="evenodd" fill="#444446" d="M95.249,52.229c5.488,4.496,11.302,6.503,17.964,2.433
		c0.373-0.228,0.965-0.096,1.456-0.132c0.031,0.532,0.061,1.064,0.092,1.596c-2.989,0.698-5.091,3.52-8.378,3.504
		c-2.617-2.31-6.037-1.989-9.117-2.779l0.047,0.047c0.083-1.71-1.126-1.64-2.275-1.653c-1.056-0.582-1.478-1.667-2.075-2.614
		c0.24-0.136,0.48-0.271,0.721-0.407C94.206,52.225,94.727,52.228,95.249,52.229z"/>
	<path fill-rule="evenodd" clip-rule="evenodd" fill="#444446" d="M23.239,60.481c5.488,4.495,11.302,6.502,17.964,2.433
		c0.373-0.228,0.966-0.096,1.456-0.132c0.03,0.532,0.061,1.064,0.092,1.596c-2.989,0.698-5.091,3.519-8.379,3.503
		c-2.617-2.31-6.036-1.989-9.116-2.779l0.047,0.047c0.083-1.71-1.126-1.64-2.275-1.653c-1.056-0.583-1.479-1.667-2.075-2.615
		c0.24-0.135,0.48-0.271,0.721-0.407C22.196,60.477,22.717,60.479,23.239,60.481z"/>
	<path fill-rule="evenodd" clip-rule="evenodd" fill="#444446" d="M16.488,100.986c5.488,4.496,11.302,6.502,17.964,2.433
		c0.373-0.228,0.966-0.096,1.456-0.132c0.031,0.532,0.061,1.064,0.092,1.596c-2.989,0.698-5.091,3.519-8.379,3.504
		c-2.617-2.31-6.036-1.989-9.116-2.779l0.047,0.047c0.083-1.71-1.126-1.64-2.275-1.653c-1.056-0.583-1.478-1.667-2.075-2.614
		c0.24-0.136,0.48-0.271,0.721-0.407C15.445,100.982,15.966,100.984,16.488,100.986z"/>
	<path fill-rule="evenodd" clip-rule="evenodd" fill="#444446" d="M57.744,46.229c5.488,4.495,11.303,6.502,17.965,2.433
		c0.373-0.228,0.966-0.096,1.456-0.132c0.031,0.532,0.061,1.064,0.092,1.596c-2.99,0.698-5.091,3.519-8.378,3.503
		c-2.617-2.31-6.037-1.989-9.117-2.779l0.048,0.047c0.083-1.71-1.126-1.64-2.276-1.653c-1.055-0.583-1.478-1.667-2.074-2.615
		c0.24-0.135,0.48-0.271,0.72-0.407C56.701,46.225,57.222,46.227,57.744,46.229z"/>
	<path fill-rule="evenodd" clip-rule="evenodd" fill="#4A4A4C" d="M110.102,75.554c-2.42-0.165-2.939-2.81-4.812-3.69
		c-3.201-1.506-6.563-2.052-10.04-1.42c-1.113,0.202-2.127,0.571-3.134-0.195c0.55-1.39,1.788-1.789,3.066-2.129
		c2.547,1.339,5.271,0.369,7.902,0.601l0.177-0.091l0.136,0.146c0.378,0.756,1.073,0.695,1.75,0.68
		c2.21,0.505,3.773,1.892,5.035,3.692C110.156,73.948,110.129,74.751,110.102,75.554z"/>
	<path fill-rule="evenodd" clip-rule="evenodd" fill="#4A4A4C" d="M117.603,35.798c-2.42-0.165-2.939-2.81-4.812-3.69
		c-3.201-1.506-6.563-2.052-10.04-1.42c-1.113,0.202-2.127,0.571-3.134-0.195c0.55-1.39,1.788-1.789,3.066-2.129
		c2.547,1.339,5.271,0.368,7.902,0.601l0.177-0.092l0.136,0.146c0.378,0.756,1.073,0.695,1.75,0.68
		c2.21,0.505,3.773,1.892,5.035,3.692C117.657,34.192,117.63,34.996,117.603,35.798z"/>
	<path fill-rule="evenodd" clip-rule="evenodd" fill="#4A4A4C" d="M80.098,29.798c-2.421-0.165-2.94-2.81-4.812-3.69
		c-3.201-1.506-6.563-2.052-10.04-1.42c-1.113,0.201-2.127,0.57-3.134-0.196c0.55-1.39,1.788-1.789,3.066-2.129
		c2.547,1.339,5.271,0.369,7.902,0.601l0.177-0.091l0.136,0.146c0.378,0.756,1.073,0.695,1.75,0.68
		c2.21,0.505,3.774,1.892,5.035,3.692C80.152,28.191,80.125,28.995,80.098,29.798z"/>
	<path fill-rule="evenodd" clip-rule="evenodd" fill="#4A4A4C" d="M45.593,44.05c-2.42-0.165-2.939-2.81-4.812-3.69
		c-3.201-1.506-6.563-2.052-10.04-1.42c-1.113,0.201-2.127,0.57-3.134-0.196c0.55-1.39,1.788-1.789,3.066-2.129
		c2.547,1.339,5.271,0.369,7.902,0.601l0.177-0.091l0.136,0.146c0.378,0.756,1.073,0.695,1.75,0.68
		c2.21,0.505,3.773,1.892,5.035,3.692C45.647,42.443,45.62,43.247,45.593,44.05z"/>
	<path fill-rule="evenodd" clip-rule="evenodd" fill="#4A4A4C" d="M38.842,84.555c-2.42-0.165-2.939-2.81-4.812-3.69
		c-3.201-1.506-6.563-2.052-10.04-1.42c-1.113,0.202-2.127,0.571-3.134-0.196c0.55-1.389,1.788-1.789,3.066-2.129
		c2.547,1.339,5.271,0.369,7.902,0.601l0.177-0.092l0.136,0.146c0.378,0.756,1.073,0.695,1.75,0.68
		c2.21,0.504,3.773,1.892,5.035,3.692C38.896,82.949,38.869,83.752,38.842,84.555z"/>
	<path fill-rule="evenodd" clip-rule="evenodd" fill="#353637" d="M79.347,46.156c0.252-0.701,0.504-1.402,0.757-2.104
		c3.234-1.804,3.222-4.818,2.78-7.868c-0.312-2.15-1.38-4.167-1.251-6.415l0.178-0.158c3.448,4.323,3.961,11.65-0.341,16.531
		C80.762,46.147,80.054,46.152,79.347,46.156z"/>
	<path fill-rule="evenodd" clip-rule="evenodd" fill="#353637" d="M109.351,91.913c0.252-0.701,0.504-1.402,0.756-2.104
		c3.234-1.804,3.222-4.818,2.78-7.868c-0.312-2.15-1.38-4.167-1.251-6.416l0.177-0.157c3.448,4.323,3.961,11.65-0.341,16.532
		C110.766,91.904,110.058,91.908,109.351,91.913z"/>
	<path fill-rule="evenodd" clip-rule="evenodd" fill="#353637" d="M44.842,60.408c0.252-0.701,0.504-1.402,0.757-2.104
		c3.234-1.804,3.222-4.818,2.78-7.868c-0.312-2.15-1.38-4.167-1.25-6.415l0.177-0.158c3.448,4.323,3.961,11.65-0.341,16.532
		C46.257,60.399,45.549,60.404,44.842,60.408z"/>
	<path fill-rule="evenodd" clip-rule="evenodd" fill="#353637" d="M116.852,52.157c0.252-0.701,0.504-1.402,0.756-2.104
		c3.234-1.803,3.222-4.818,2.78-7.867c-0.312-2.151-1.38-4.167-1.251-6.416l0.177-0.157c3.448,4.322,3.961,11.65-0.341,16.531
		C118.267,52.148,117.559,52.153,116.852,52.157z"/>
	<path fill-rule="evenodd" clip-rule="evenodd" fill="#353637" d="M38.091,100.914c0.252-0.701,0.504-1.402,0.756-2.104
		c3.234-1.804,3.222-4.818,2.78-7.867c-0.312-2.151-1.38-4.167-1.25-6.416l0.177-0.158c3.448,4.323,3.961,11.65-0.341,16.532
		C39.506,100.905,38.798,100.91,38.091,100.914z"/>
	<path fill-rule="evenodd" clip-rule="evenodd" fill="#444446" d="M57.596,28.927c-0.193,2.01-1.513,3.549-2.23,5.34
		c-2.43,2.378-2.111,6.452,0.821,10.462l0.01-0.015c-0.006,0.502-0.012,1.005-0.018,1.507c-0.24,0.136-0.48,0.272-0.72,0.407
		c-3.84-5.854-3.824-11.21,0.022-16.498C56.019,29.391,56.592,28.807,57.596,28.927z"/>
	<path fill-rule="evenodd" clip-rule="evenodd" fill="#444446" d="M87.6,74.684c-0.192,2.01-1.513,3.549-2.23,5.34
		c-2.431,2.378-2.111,6.452,0.821,10.462l0.01-0.015c-0.006,0.502-0.012,1.005-0.018,1.507c-0.24,0.136-0.48,0.272-0.721,0.407
		c-3.84-5.854-3.824-11.21,0.022-16.498C86.023,75.147,86.596,74.563,87.6,74.684z"/>
	<path fill-rule="evenodd" clip-rule="evenodd" fill="#444446" d="M23.091,43.179c-0.193,2.01-1.513,3.549-2.23,5.34
		c-2.431,2.378-2.111,6.452,0.821,10.462l0.01-0.015c-0.006,0.502-0.012,1.005-0.018,1.507c-0.24,0.136-0.48,0.272-0.721,0.407
		c-3.84-5.854-3.824-11.21,0.022-16.498C21.515,43.643,22.087,43.059,23.091,43.179z"/>
	<path fill-rule="evenodd" clip-rule="evenodd" fill="#444446" d="M16.34,83.685c-0.192,2.01-1.513,3.549-2.23,5.34
		c-2.431,2.378-2.111,6.452,0.821,10.462l0.01-0.015c-0.006,0.502-0.012,1.005-0.018,1.508c-0.24,0.136-0.48,0.271-0.721,0.407
		c-3.84-5.854-3.824-11.21,0.022-16.498C14.764,84.148,15.336,83.564,16.34,83.685z"/>
	<path fill-rule="evenodd" clip-rule="evenodd" fill="#444446" d="M95.101,34.928c-0.192,2.01-1.513,3.549-2.23,5.34
		c-2.431,2.379-2.111,6.452,0.821,10.462l0.01-0.015c-0.006,0.503-0.012,1.005-0.018,1.508c-0.24,0.136-0.48,0.271-0.721,0.407
		c-3.84-5.854-3.824-11.21,0.022-16.498C93.524,35.392,94.097,34.807,95.101,34.928z"/>
	<path fill-rule="evenodd" clip-rule="evenodd" fill="#353637" d="M18.505,105.608c3.08,0.791,6.5,0.47,9.116,2.779
		C24.164,108.835,21.166,107.774,18.505,105.608z"/>
	<path fill-rule="evenodd" clip-rule="evenodd" fill="#353637" d="M25.256,65.102c3.08,0.791,6.5,0.47,9.116,2.779
		C30.915,68.33,27.917,67.269,25.256,65.102z"/>
	<path fill-rule="evenodd" clip-rule="evenodd" fill="#353637" d="M97.266,56.851c3.08,0.791,6.5,0.47,9.117,2.779
		C102.925,60.079,99.927,59.017,97.266,56.851z"/>
	<path fill-rule="evenodd" clip-rule="evenodd" fill="#353637" d="M89.765,96.606c3.08,0.791,6.5,0.47,9.117,2.779
		C95.424,99.834,92.426,98.773,89.765,96.606z"/>
	<path fill-rule="evenodd" clip-rule="evenodd" fill="#353637" d="M59.761,50.85c3.081,0.791,6.5,0.47,9.117,2.779
		C65.419,54.078,62.422,53.017,59.761,50.85z"/>
	<path fill-rule="evenodd" clip-rule="evenodd" fill="#8E8E90" d="M79.347,46.156c0.708-0.004,1.415-0.009,2.122-0.013
		c-0.337,2.456-2.191,3.308-4.212,3.983c-0.031-0.532-0.062-1.064-0.092-1.596C78.05,47.884,78.924,47.228,79.347,46.156z"/>
	<path fill-rule="evenodd" clip-rule="evenodd" fill="#8E8E90" d="M116.852,52.157c0.707-0.004,1.415-0.009,2.122-0.013
		c-0.337,2.456-2.191,3.308-4.213,3.982c-0.031-0.532-0.061-1.064-0.092-1.596C115.555,53.885,116.429,53.229,116.852,52.157z"/>
	<path fill-rule="evenodd" clip-rule="evenodd" fill="#8E8E90" d="M44.842,60.408c0.708-0.004,1.415-0.009,2.123-0.012
		c-0.337,2.455-2.191,3.307-4.213,3.982c-0.031-0.532-0.062-1.064-0.092-1.596C43.545,62.136,44.419,61.48,44.842,60.408z"/>
	<path fill-rule="evenodd" clip-rule="evenodd" fill="#8E8E90" d="M109.351,91.913c0.707-0.004,1.415-0.009,2.122-0.012
		c-0.337,2.455-2.191,3.307-4.213,3.982c-0.031-0.532-0.061-1.064-0.092-1.596C108.054,93.641,108.928,92.984,109.351,91.913z"/>
	<path fill-rule="evenodd" clip-rule="evenodd" fill="#8E8E90" d="M38.091,100.914c0.707-0.004,1.415-0.009,2.122-0.013
		c-0.337,2.456-2.191,3.307-4.213,3.982c-0.031-0.532-0.061-1.064-0.092-1.596C36.794,102.642,37.668,101.985,38.091,100.914z"/>
	<path fill-rule="evenodd" clip-rule="evenodd" fill="#2B2C2C" d="M73.081,22.962c-2.631-0.232-5.354,0.738-7.902-0.601
		C67.816,22.52,70.545,21.471,73.081,22.962z"/>
	<path fill-rule="evenodd" clip-rule="evenodd" fill="#2B2C2C" d="M103.085,68.719c-2.632-0.232-5.355,0.738-7.902-0.601
		C97.82,68.276,100.549,67.228,103.085,68.719z"/>
	<path fill-rule="evenodd" clip-rule="evenodd" fill="#2B2C2C" d="M38.576,37.214c-2.631-0.232-5.354,0.738-7.902-0.601
		C33.312,36.772,36.041,35.723,38.576,37.214z"/>
	<path fill-rule="evenodd" clip-rule="evenodd" fill="#2B2C2C" d="M31.826,77.72c-2.632-0.232-5.355,0.738-7.902-0.601
		C26.561,77.277,29.29,76.229,31.826,77.72z"/>
	<path fill-rule="evenodd" clip-rule="evenodd" fill="#2B2C2C" d="M110.586,28.963c-2.632-0.232-5.355,0.738-7.902-0.601
		C105.321,28.521,108.05,27.472,110.586,28.963z"/>
	<path fill-rule="evenodd" clip-rule="evenodd" fill="#353637" d="M95.038,55.245c1.149,0.013,2.359-0.057,2.275,1.653
		C96.376,56.593,95.517,56.182,95.038,55.245z"/>
	<path fill-rule="evenodd" clip-rule="evenodd" fill="#353637" d="M23.028,63.496c1.149,0.013,2.359-0.057,2.275,1.653
		C24.367,64.844,23.506,64.433,23.028,63.496z"/>
	<path fill-rule="evenodd" clip-rule="evenodd" fill="#353637" d="M110.102,75.554c0.027-0.803,0.054-1.606,0.082-2.409
		c0.818,0.54,1.563,1.134,1.631,2.224l-0.177,0.157c-0.508,0.007-1.015,0.013-1.522,0.021L110.102,75.554z"/>
	<path fill-rule="evenodd" clip-rule="evenodd" fill="#353637" d="M57.533,49.244c1.149,0.013,2.359-0.057,2.276,1.653
		C58.871,50.592,58.011,50.181,57.533,49.244z"/>
	<path fill-rule="evenodd" clip-rule="evenodd" fill="#353637" d="M45.593,44.05c0.027-0.803,0.054-1.606,0.082-2.41
		c0.818,0.54,1.563,1.134,1.631,2.224l-0.177,0.158c-0.508,0.006-1.015,0.013-1.522,0.021L45.593,44.05z"/>
	<path fill-rule="evenodd" clip-rule="evenodd" fill="#353637" d="M117.603,35.798c0.027-0.803,0.054-1.606,0.082-2.409
		c0.818,0.54,1.563,1.134,1.631,2.224l-0.177,0.157c-0.508,0.007-1.015,0.013-1.522,0.021L117.603,35.798z"/>
	<path fill-rule="evenodd" clip-rule="evenodd" fill="#353637" d="M38.842,84.555c0.027-0.803,0.054-1.606,0.082-2.409
		c0.818,0.54,1.563,1.134,1.631,2.224l-0.177,0.158c-0.508,0.006-1.015,0.013-1.522,0.021L38.842,84.555z"/>
	<path fill-rule="evenodd" clip-rule="evenodd" fill="#353637" d="M87.537,95c1.149,0.013,2.359-0.057,2.275,1.653
		C88.875,96.349,88.016,95.937,87.537,95z"/>
	<path fill-rule="evenodd" clip-rule="evenodd" fill="#353637" d="M80.098,29.798c0.027-0.803,0.054-1.606,0.081-2.41
		c0.818,0.54,1.563,1.134,1.631,2.224l-0.178,0.158c-0.507,0.006-1.015,0.013-1.522,0.021L80.098,29.798z"/>
	<path fill-rule="evenodd" clip-rule="evenodd" fill="#353637" d="M16.277,104.001c1.149,0.013,2.359-0.057,2.275,1.653
		C17.616,105.35,16.755,104.938,16.277,104.001z"/>
	<path fill-rule="evenodd" clip-rule="evenodd" fill="#2B2C2C" d="M40.64,37.948c-0.677,0.016-1.373,0.076-1.75-0.68
		C39.571,37.243,40.256,37.208,40.64,37.948z"/>
	<path fill-rule="evenodd" clip-rule="evenodd" fill="#2B2C2C" d="M112.649,29.697c-0.677,0.016-1.373,0.076-1.75-0.68
		C111.581,28.992,112.266,28.957,112.649,29.697z"/>
	<path fill-rule="evenodd" clip-rule="evenodd" fill="#2B2C2C" d="M33.889,78.454c-0.677,0.015-1.373,0.076-1.75-0.68
		C32.82,77.749,33.505,77.713,33.889,78.454z"/>
	<path fill-rule="evenodd" clip-rule="evenodd" fill="#2B2C2C" d="M75.144,23.696c-0.677,0.016-1.372,0.076-1.75-0.68
		C74.076,22.991,74.76,22.956,75.144,23.696z"/>
	<path fill-rule="evenodd" clip-rule="evenodd" fill="#2B2C2C" d="M105.148,69.453c-0.677,0.016-1.373,0.076-1.75-0.68
		C104.08,68.748,104.765,68.712,105.148,69.453z"/>
	<path fill-rule="evenodd" clip-rule="evenodd" fill="#850B03" d="M74.844,78.169c-0.033,6.742-6.261,12.912-13.046,12.924
		c-6.482,0.012-13.175-6.799-12.954-13.182c0.241-6.966,6.188-12.774,13.147-12.841C68.662,65.006,74.877,71.342,74.844,78.169z
		 M56.135,68.729c-0.617-0.049-1.205-0.038-1.445,0.696c-1.108,2.396-4.246,3.648-3.876,6.877c-0.066,2.589-0.358,5.221,1.432,7.452
		c5.939,8.892,17.068,6.331,19.756-0.799c0.056-0.193,0.079-0.39,0.07-0.59c0.203-0.48,0.406-0.96,0.608-1.441
		c1.053-1.808,1.123-3.619,0.017-5.434l0.005-0.006c0.012-0.838,0.104-1.703-0.756-2.248l-0.008-0.012
		c-0.248-0.245-0.495-0.488-0.743-0.733l-0.014-0.029c0.188-1.141-0.537-1.491-1.453-1.674c-0.792-0.694-1.583-1.388-2.375-2.081
		c-3.074-2.619-6.325-2.817-9.744-0.711l0.024-0.018c-0.684-0.09-1.275,0.005-1.526,0.771L56.135,68.729z"/>
	<path fill-rule="evenodd" clip-rule="evenodd" fill="#4A4A4C" d="M22.717,50.245c0.481-3.734,5.982-9.295,9.162-9.263
		c7.703,0.078,12.2,3.248,12.928,9.112c-1.736-0.81-3.129,0.721-4.75,0.698c-1.371-0.188-2.019-1.355-2.919-2.172
		c-2.555-2.314-5.648-2.006-7.613,0.789c-0.481,0.685-0.333,1.756-1.309,2.14C26.379,51.132,24.955,48.971,22.717,50.245z"/>
	<path fill-rule="evenodd" clip-rule="evenodd" fill="#505052" d="M42.719,58.324c-3.019,5.118-11.088,7.952-17.45,0.04
		c2.534,0.406,4.97,0.976,6.495-2.181c0.638-1.319,2.64-1.445,3.53-0.219C37.28,58.696,39.847,58.805,42.719,58.324z"/>
	<path fill-rule="evenodd" clip-rule="evenodd" fill="#6A6B6C" d="M42.719,58.324c-2.873,0.48-5.439,0.372-7.425-2.36
		c-0.891-1.226-2.892-1.1-3.53,0.219c-1.524,3.156-3.961,2.586-6.495,2.181c-1.082-0.201-1.696-0.746-1.428-1.939
		c1.769-1.227,4.587-0.858,5.396-3.547c2.936,0.977,5.873,1.102,8.813,0.016c1.228,2.84,3.456,3.111,6.079,2.366
		C44.233,56.545,43.555,57.471,42.719,58.324z"/>
	<path fill-rule="evenodd" clip-rule="evenodd" fill="#8E8E90" d="M29.237,52.878c-0.808,2.689-3.626,2.32-5.396,3.547
		c-1.216-1.907-1.474-3.989-1.125-6.18c2.239-1.274,3.663,0.887,5.5,1.304C28.557,51.992,28.897,52.435,29.237,52.878z"/>
	<path fill-rule="evenodd" clip-rule="evenodd" fill="#8E8E90" d="M44.128,55.259c-2.624,0.745-4.851,0.474-6.079-2.366
		c0.669-0.701,1.339-1.401,2.008-2.102c1.621,0.023,3.014-1.508,4.75-0.698C45.465,51.932,43.933,53.481,44.128,55.259z"/>
	<path fill-rule="evenodd" clip-rule="evenodd" fill="#4A4A4C" d="M45.605,44.042c0.507-0.007,1.015-0.014,1.522-0.021
		c-0.129,2.249,0.939,4.265,1.25,6.415c0.442,3.05,0.454,6.064-2.78,7.868C48.142,53.552,46.515,48.797,45.605,44.042z"/>
	<path fill-rule="evenodd" clip-rule="evenodd" fill="#4A4A4C" d="M21.682,58.981c-2.932-4.01-3.251-8.083-0.821-10.462
		C20.445,52.061,21.174,55.513,21.682,58.981z"/>
	<path fill-rule="evenodd" clip-rule="evenodd" fill="#4A4A4C" d="M21.674,60.474c0.006-0.502,0.012-1.005,0.018-1.507
		c1.015-0.004,1.369,0.665,1.546,1.515C22.717,60.479,22.196,60.477,21.674,60.474z"/>
	<path fill-rule="evenodd" clip-rule="evenodd" fill="#4A4A4C" d="M87.226,81.749c0.481-3.734,5.982-9.295,9.163-9.263
		c7.702,0.078,12.2,3.248,12.927,9.112c-1.736-0.811-3.129,0.721-4.75,0.698c-1.371-0.188-2.019-1.356-2.919-2.172
		c-2.555-2.314-5.648-2.006-7.613,0.789c-0.481,0.685-0.333,1.755-1.309,2.14C90.888,82.636,89.464,80.475,87.226,81.749z"/>
	<path fill-rule="evenodd" clip-rule="evenodd" fill="#505052" d="M107.229,89.829c-3.019,5.117-11.089,7.952-17.45,0.04
		c2.534,0.406,4.97,0.976,6.495-2.181c0.638-1.319,2.64-1.445,3.531-0.219C101.789,90.201,104.355,90.309,107.229,89.829z"/>
	<path fill-rule="evenodd" clip-rule="evenodd" fill="#6A6B6C" d="M107.229,89.829c-2.873,0.48-5.439,0.372-7.425-2.36
		c-0.891-1.226-2.893-1.1-3.531,0.219c-1.524,3.156-3.961,2.586-6.495,2.181c-1.082-0.201-1.696-0.746-1.428-1.939
		c1.769-1.227,4.587-0.858,5.396-3.547c2.936,0.977,5.873,1.102,8.812,0.015c1.228,2.839,3.456,3.111,6.079,2.366
		C108.742,88.049,108.064,88.975,107.229,89.829z"/>
	<path fill-rule="evenodd" clip-rule="evenodd" fill="#8E8E90" d="M93.746,84.382c-0.809,2.689-3.627,2.32-5.396,3.547
		c-1.215-1.908-1.474-3.989-1.125-6.18c2.238-1.274,3.662,0.887,5.5,1.304C93.066,83.496,93.406,83.939,93.746,84.382z"/>
	<path fill-rule="evenodd" clip-rule="evenodd" fill="#8E8E90" d="M108.637,86.764c-2.624,0.745-4.851,0.473-6.079-2.366
		c0.669-0.7,1.339-1.401,2.008-2.102c1.621,0.023,3.014-1.508,4.75-0.698C109.974,83.436,108.441,84.986,108.637,86.764z"/>
	<path fill-rule="evenodd" clip-rule="evenodd" fill="#4A4A4C" d="M110.114,75.546c0.507-0.007,1.015-0.014,1.522-0.021
		c-0.129,2.249,0.939,4.265,1.251,6.416c0.441,3.05,0.454,6.064-2.78,7.868C112.65,85.056,111.024,80.301,110.114,75.546z"/>
	<path fill-rule="evenodd" clip-rule="evenodd" fill="#4A4A4C" d="M86.191,90.486c-2.933-4.01-3.252-8.083-0.821-10.462
		C84.954,83.565,85.683,87.017,86.191,90.486z"/>
	<path fill-rule="evenodd" clip-rule="evenodd" fill="#4A4A4C" d="M86.183,91.979c0.006-0.502,0.012-1.005,0.018-1.507
		c1.015-0.004,1.369,0.665,1.546,1.515C87.226,91.983,86.705,91.981,86.183,91.979z"/>
	<path fill-rule="evenodd" clip-rule="evenodd" fill="#4A4A4C" d="M57.222,35.993c0.481-3.734,5.981-9.295,9.162-9.263
		c7.703,0.078,12.2,3.248,12.928,9.111c-1.736-0.809-3.129,0.722-4.75,0.699c-1.371-0.188-2.019-1.355-2.919-2.172
		c-2.555-2.314-5.648-2.006-7.613,0.789c-0.482,0.685-0.333,1.756-1.309,2.14C60.883,36.88,59.46,34.719,57.222,35.993z"/>
	<path fill-rule="evenodd" clip-rule="evenodd" fill="#505052" d="M77.224,44.072c-3.019,5.118-11.088,7.952-17.45,0.04
		c2.534,0.406,4.97,0.976,6.495-2.181c0.638-1.319,2.639-1.445,3.53-0.219C71.785,44.444,74.351,44.553,77.224,44.072z"/>
	<path fill-rule="evenodd" clip-rule="evenodd" fill="#6A6B6C" d="M77.224,44.072c-2.873,0.48-5.439,0.372-7.425-2.36
		c-0.891-1.226-2.893-1.1-3.53,0.219c-1.525,3.156-3.961,2.586-6.495,2.181c-1.081-0.201-1.696-0.746-1.428-1.939
		c1.769-1.227,4.587-0.858,5.396-3.547c2.936,0.977,5.873,1.102,8.813,0.016c1.228,2.84,3.456,3.111,6.079,2.366
		C78.738,42.293,78.06,43.219,77.224,44.072z"/>
	<path fill-rule="evenodd" clip-rule="evenodd" fill="#8E8E90" d="M63.742,38.626c-0.808,2.689-3.626,2.32-5.396,3.547
		c-1.216-1.908-1.474-3.989-1.125-6.18c2.239-1.274,3.662,0.887,5.5,1.304C63.062,37.74,63.402,38.183,63.742,38.626z"/>
	<path fill-rule="evenodd" clip-rule="evenodd" fill="#8E8E90" d="M78.633,41.007c-2.623,0.745-4.851,0.474-6.079-2.366
		c0.669-0.701,1.338-1.401,2.008-2.102c1.621,0.023,3.014-1.508,4.75-0.699C79.97,37.68,78.438,39.229,78.633,41.007z"/>
	<path fill-rule="evenodd" clip-rule="evenodd" fill="#4A4A4C" d="M80.11,29.791c0.508-0.007,1.015-0.014,1.522-0.021
		c-0.129,2.249,0.939,4.265,1.251,6.415c0.442,3.05,0.454,6.064-2.78,7.868C82.646,39.3,81.02,34.545,80.11,29.791z"/>
	<path fill-rule="evenodd" clip-rule="evenodd" fill="#4A4A4C" d="M56.187,44.729c-2.932-4.01-3.251-8.083-0.821-10.462
		C54.95,37.809,55.679,41.261,56.187,44.729z"/>
	<path fill-rule="evenodd" clip-rule="evenodd" fill="#4A4A4C" d="M56.179,46.222c0.006-0.502,0.012-1.005,0.018-1.507
		c1.015-0.004,1.368,0.665,1.546,1.515C57.222,46.227,56.701,46.225,56.179,46.222z"/>
	<path fill-rule="evenodd" clip-rule="evenodd" fill="#4A4A4C" d="M15.966,90.75c0.481-3.734,5.982-9.295,9.163-9.263
		c7.702,0.079,12.2,3.248,12.927,9.112c-1.736-0.81-3.129,0.721-4.75,0.698c-1.371-0.188-2.019-1.356-2.919-2.172
		c-2.555-2.314-5.648-2.006-7.613,0.788c-0.481,0.685-0.333,1.756-1.309,2.141C19.628,91.637,18.204,89.476,15.966,90.75z"/>
	<path fill-rule="evenodd" clip-rule="evenodd" fill="#505052" d="M35.969,98.83c-3.019,5.118-11.089,7.952-17.451,0.04
		c2.534,0.406,4.971,0.976,6.495-2.181c0.638-1.319,2.64-1.445,3.531-0.219C30.529,99.202,33.096,99.311,35.969,98.83z"/>
	<path fill-rule="evenodd" clip-rule="evenodd" fill="#6A6B6C" d="M35.969,98.83c-2.873,0.481-5.439,0.373-7.425-2.36
		c-0.891-1.226-2.893-1.1-3.531,0.219c-1.524,3.157-3.961,2.587-6.495,2.181c-1.081-0.201-1.695-0.746-1.428-1.939
		c1.769-1.227,4.587-0.857,5.396-3.547c2.936,0.977,5.873,1.102,8.812,0.016c1.228,2.84,3.456,3.111,6.079,2.366
		C37.482,97.05,36.804,97.977,35.969,98.83z"/>
	<path fill-rule="evenodd" clip-rule="evenodd" fill="#8E8E90" d="M22.486,93.383c-0.809,2.689-3.627,2.32-5.396,3.547
		c-1.216-1.907-1.474-3.988-1.125-6.18c2.239-1.274,3.663,0.887,5.5,1.304C21.806,92.497,22.146,92.94,22.486,93.383z"/>
	<path fill-rule="evenodd" clip-rule="evenodd" fill="#8E8E90" d="M37.377,95.765c-2.624,0.745-4.851,0.474-6.079-2.366
		c0.669-0.7,1.339-1.401,2.008-2.102c1.621,0.022,3.014-1.508,4.75-0.698C38.714,92.437,37.182,93.987,37.377,95.765z"/>
	<path fill-rule="evenodd" clip-rule="evenodd" fill="#4A4A4C" d="M38.854,84.548c0.507-0.007,1.015-0.014,1.522-0.021
		c-0.129,2.249,0.939,4.265,1.25,6.416c0.442,3.049,0.455,6.063-2.78,7.867C41.391,94.058,39.764,89.303,38.854,84.548z"/>
	<path fill-rule="evenodd" clip-rule="evenodd" fill="#4A4A4C" d="M14.931,99.487c-2.933-4.01-3.252-8.083-0.821-10.462
		C13.694,92.566,14.423,96.019,14.931,99.487z"/>
	<path fill-rule="evenodd" clip-rule="evenodd" fill="#4A4A4C" d="M14.923,100.98c0.006-0.503,0.012-1.005,0.018-1.508
		c1.015-0.004,1.369,0.665,1.546,1.515C15.966,100.984,15.445,100.982,14.923,100.98z"/>
	<path fill-rule="evenodd" clip-rule="evenodd" fill="#4A4A4C" d="M94.727,41.994c0.482-3.735,5.982-9.295,9.163-9.263
		c7.703,0.078,12.2,3.248,12.927,9.112c-1.736-0.81-3.129,0.721-4.75,0.698c-1.371-0.188-2.019-1.356-2.919-2.172
		c-2.555-2.314-5.647-2.006-7.613,0.788c-0.481,0.685-0.333,1.756-1.309,2.141C98.389,42.88,96.965,40.72,94.727,41.994z"/>
	<path fill-rule="evenodd" clip-rule="evenodd" fill="#505052" d="M114.729,50.073c-3.019,5.117-11.088,7.952-17.45,0.04
		c2.534,0.406,4.97,0.976,6.495-2.181c0.638-1.319,2.64-1.445,3.531-0.219C109.29,50.445,111.856,50.554,114.729,50.073z"/>
	<path fill-rule="evenodd" clip-rule="evenodd" fill="#6A6B6C" d="M114.729,50.073c-2.873,0.48-5.439,0.372-7.425-2.36
		c-0.891-1.226-2.893-1.1-3.531,0.219c-1.524,3.156-3.961,2.586-6.495,2.181c-1.081-0.202-1.696-0.746-1.428-1.939
		c1.769-1.227,4.587-0.858,5.396-3.547c2.936,0.976,5.873,1.102,8.812,0.015c1.228,2.839,3.456,3.111,6.079,2.366
		C116.243,48.294,115.565,49.22,114.729,50.073z"/>
	<path fill-rule="evenodd" clip-rule="evenodd" fill="#8E8E90" d="M101.247,44.627c-0.809,2.689-3.627,2.32-5.396,3.547
		c-1.215-1.908-1.474-3.989-1.125-6.18c2.238-1.274,3.662,0.887,5.5,1.304C100.567,43.741,100.907,44.184,101.247,44.627z"/>
	<path fill-rule="evenodd" clip-rule="evenodd" fill="#8E8E90" d="M116.138,47.008c-2.623,0.745-4.851,0.473-6.079-2.366
		c0.67-0.7,1.339-1.401,2.008-2.102c1.621,0.023,3.014-1.508,4.75-0.698C117.475,43.68,115.942,45.23,116.138,47.008z"/>
	<path fill-rule="evenodd" clip-rule="evenodd" fill="#4A4A4C" d="M117.615,35.791c0.507-0.007,1.015-0.014,1.522-0.021
		c-0.129,2.249,0.939,4.265,1.251,6.416c0.441,3.049,0.454,6.064-2.78,7.867C120.151,45.301,118.525,40.546,117.615,35.791z"/>
	<path fill-rule="evenodd" clip-rule="evenodd" fill="#4A4A4C" d="M93.692,50.73c-2.933-4.01-3.252-8.083-0.821-10.462
		C92.455,43.809,93.184,47.262,93.692,50.73z"/>
	<path fill-rule="evenodd" clip-rule="evenodd" fill="#4A4A4C" d="M93.684,52.223c0.006-0.502,0.012-1.005,0.018-1.508
		c1.014-0.004,1.368,0.666,1.546,1.515C94.727,52.228,94.206,52.225,93.684,52.223z"/>
	<path fill-rule="evenodd" clip-rule="evenodd" fill="#DF2A09" d="M50.813,76.302c-0.369-3.229,2.769-4.481,3.876-6.877
		c0.619,0.051,1.251,0.133,1.445-0.696l-0.029,0.02c0.661,0.045,1.347,0.139,1.526-0.771l-0.024,0.018
		c3.265,0,6.538-0.103,9.744,0.711c0.792,0.693,1.583,1.387,2.375,2.083c0.096,0.896,0.618,1.42,1.453,1.672
		c0,0,0.014,0.029,0.015,0.029c0.248,0.245,0.495,0.488,0.742,0.733l0.008,0.012c-0.034,0.846-0.211,1.739,0.756,2.248l-0.005,0.006
		c-0.035,0.221-0.046,0.444-0.035,0.667c-1.661-0.441-2.973,0.599-4.426,1.04c-1.008-3.407-3.502-5.325-6.833-5.177
		c-3.152,0.139-5.004,2.406-5.309,5.676C54.366,77.107,52.762,76.052,50.813,76.302z"/>
	<path fill-rule="evenodd" clip-rule="evenodd" fill="#ED7862" d="M50.813,76.302c1.949-0.25,3.553,0.805,5.28,1.395
		c4.178,3.012,8.226,2.862,12.142-0.5c1.453-0.441,2.766-1.481,4.426-1.039c0.006,1.589,0.012,3.177,0.018,4.766
		c-0.203,0.48-0.405,0.961-0.609,1.441c-4.734-1.756-9.646-0.519-14.465-0.853c-1.414-0.098-2.723,0.283-3.695,1.429
		c-0.555,0.271-1.109,0.542-1.664,0.813C50.455,81.522,50.747,78.891,50.813,76.302z"/>
	<path fill-rule="evenodd" clip-rule="evenodd" fill="#DF2A09" d="M52.245,83.754c0.555-0.271,1.109-0.542,1.664-0.813
		c0.338,0.899,0.99,1.521,1.936,1.502c5.419-0.108,10.949,0.921,16.157-1.489C69.313,90.084,58.184,92.646,52.245,83.754z"/>
	<path fill-rule="evenodd" clip-rule="evenodd" fill="#D64F33" d="M72.001,82.955c-5.208,2.41-10.738,1.381-16.157,1.489
		c-0.945,0.019-1.598-0.604-1.936-1.502c0.973-1.146,2.282-1.528,3.696-1.43c4.819,0.334,9.731-0.903,14.465,0.853
		C72.08,82.565,72.057,82.761,72.001,82.955z"/>
	<path fill-rule="evenodd" clip-rule="evenodd" fill="#ED7862" d="M67.352,68.707c-3.206-0.814-6.479-0.711-9.744-0.711
		C61.027,65.89,64.278,66.088,67.352,68.707z"/>
	<path fill-rule="evenodd" clip-rule="evenodd" fill="#DC3516" d="M72.679,80.923c-0.006-1.589-0.012-3.177-0.018-4.766
		c-0.011-0.224,0-0.447,0.035-0.668C73.802,77.305,73.732,79.115,72.679,80.923z"/>
	<path fill-rule="evenodd" clip-rule="evenodd" fill="#DC3516" d="M71.18,72.462c-0.835-0.252-1.357-0.776-1.453-1.672
		C70.643,70.971,71.367,71.321,71.18,72.462z"/>
	<path fill-rule="evenodd" clip-rule="evenodd" fill="#DC3516" d="M72.701,75.483c-0.967-0.508-0.79-1.402-0.756-2.248
		C72.805,73.78,72.713,74.645,72.701,75.483z"/>
	<path fill-rule="evenodd" clip-rule="evenodd" fill="#ED7862" d="M57.632,67.978c-0.179,0.909-0.865,0.815-1.526,0.771
		C56.357,67.982,56.948,67.887,57.632,67.978z"/>
	<path fill-rule="evenodd" clip-rule="evenodd" fill="#ED7862" d="M56.135,68.729c-0.194,0.83-0.827,0.747-1.445,0.696
		C54.93,68.691,55.518,68.679,56.135,68.729z"/>
	<path fill-rule="evenodd" clip-rule="evenodd" fill="#DC3516" d="M71.937,73.224c-0.248-0.245-0.495-0.488-0.742-0.733
		C71.441,72.735,71.689,72.979,71.937,73.224z"/>
	<path fill-rule="evenodd" clip-rule="evenodd" fill="#1C1C1D" d="M40.057,50.792c-0.669,0.701-1.338,1.401-2.008,2.102
		c-2.939,1.086-5.876,0.961-8.813-0.016c-0.34-0.443-0.68-0.886-1.02-1.33c0.975-0.384,0.827-1.456,1.308-2.14
		c1.965-2.795,5.058-3.103,7.613-0.789C38.039,49.436,38.686,50.604,40.057,50.792z"/>
	<path fill-rule="evenodd" clip-rule="evenodd" fill="#1C1C1D" d="M104.566,82.296c-0.669,0.701-1.338,1.401-2.008,2.102
		c-2.939,1.086-5.876,0.961-8.812-0.015c-0.34-0.443-0.68-0.886-1.021-1.33c0.975-0.385,0.827-1.456,1.308-2.14
		c1.965-2.795,5.058-3.103,7.613-0.789C102.547,80.94,103.195,82.108,104.566,82.296z"/>
	<path fill-rule="evenodd" clip-rule="evenodd" fill="#1C1C1D" d="M74.562,36.54c-0.669,0.701-1.338,1.401-2.008,2.102
		c-2.939,1.086-5.877,0.961-8.813-0.016c-0.34-0.443-0.68-0.886-1.021-1.33c0.975-0.384,0.827-1.456,1.309-2.14
		c1.965-2.795,5.058-3.103,7.613-0.789C72.543,35.184,73.191,36.352,74.562,36.54z"/>
	<path fill-rule="evenodd" clip-rule="evenodd" fill="#1C1C1D" d="M33.306,91.297c-0.669,0.7-1.338,1.401-2.008,2.102
		c-2.939,1.086-5.876,0.961-8.812-0.016c-0.34-0.443-0.68-0.886-1.021-1.329c0.975-0.385,0.827-1.456,1.308-2.141
		c1.965-2.794,5.058-3.102,7.613-0.788C31.288,89.941,31.935,91.11,33.306,91.297z"/>
	<path fill-rule="evenodd" clip-rule="evenodd" fill="#1C1C1D" d="M112.067,42.541c-0.669,0.7-1.338,1.401-2.008,2.102
		c-2.939,1.086-5.876,0.961-8.812-0.015c-0.34-0.443-0.68-0.886-1.021-1.33c0.975-0.385,0.827-1.456,1.308-2.141
		c1.965-2.794,5.058-3.102,7.613-0.788C110.048,41.185,110.696,42.353,112.067,42.541z"/>
	<path fill-rule="evenodd" clip-rule="evenodd" fill="#AE2C0A" d="M68.235,77.197c-3.916,3.362-7.963,3.512-12.142,0.5
		c0.304-3.271,2.156-5.538,5.308-5.677C64.733,71.872,67.227,73.79,68.235,77.197z"/>
</g>
</svg>
