<?xml version="1.0" encoding="utf-8"?>
<!-- Generator: Adobe Illustrator 16.0.3, SVG Export Plug-In . SVG Version: 6.00 Build 0)  -->
<!DOCTYPE svg PUBLIC "-//W3C//DTD SVG 1.1//EN" "http://www.w3.org/Graphics/SVG/1.1/DTD/svg11.dtd">
<svg version="1.1" id="Capa_1" xmlns="http://www.w3.org/2000/svg" xmlns:xlink="http://www.w3.org/1999/xlink" x="0px" y="0px"
	 width="131.03px" height="130.03px" viewBox="0 0 131.03 130.03" enable-background="new 0 0 131.03 130.03" xml:space="preserve">
<g>
	<path fill-rule="evenodd" clip-rule="evenodd" fill="#FDFDFD" d="M66.687,119.022c-21.111,0-42.223-0.023-63.333,0.039
		c-1.963,0.006-2.815-0.047-2.806-2.564C0.672,82.645,0.655,48.791,0.572,14.938c-0.005-2.09,0.433-2.491,2.5-2.488
		c42.347,0.076,84.695,0.089,127.042-0.023c2.488-0.006,2.578,0.804,2.574,2.793c-0.056,33.728-0.068,67.456,0.023,101.184
		c0.007,2.25-0.47,2.692-2.692,2.681C108.91,118.98,87.798,119.022,66.687,119.022z M89.813,96.653l-0.047-0.047
		c2.661,2.167,5.659,3.228,9.117,2.779c3.288,0.016,5.389-2.806,8.378-3.503c2.021-0.675,3.875-1.527,4.213-3.982
		c4.302-4.882,3.789-12.209,0.341-16.532c-0.068-1.09-0.813-1.684-1.631-2.224c-1.261-1.8-2.824-3.187-5.035-3.692
		c-0.384-0.74-1.069-0.705-1.75-0.68l-0.136-0.146l-0.177,0.091c-2.536-1.491-5.265-0.442-7.902-0.601
		c-1.278,0.34-2.517,0.74-3.066,2.129c-2.016,0.959-4.023,1.927-4.517,4.436c-1.003-0.121-1.576,0.464-2.115,1.205
		c-3.846,5.287-3.862,10.644-0.022,16.498c0.597,0.947,1.019,2.032,2.075,2.614C88.016,95.937,88.875,96.349,89.813,96.653z
		 M25.304,65.149l-0.047-0.047c2.661,2.167,5.659,3.228,9.116,2.779c3.288,0.016,5.39-2.806,8.379-3.503
		c2.021-0.675,3.875-1.527,4.213-3.982c4.302-4.882,3.789-12.209,0.341-16.532c-0.068-1.09-0.813-1.684-1.631-2.224
		c-1.261-1.8-2.824-3.187-5.035-3.692c-0.384-0.74-1.069-0.705-1.75-0.68l-0.136-0.146l-0.177,0.091
		c-2.536-1.491-5.265-0.442-7.902-0.601c-1.279,0.341-2.517,0.74-3.066,2.129c-2.016,0.959-4.024,1.927-4.517,4.436
		c-1.003-0.121-1.576,0.464-2.115,1.205c-3.846,5.287-3.862,10.644-0.022,16.498c0.596,0.947,1.019,2.032,2.075,2.615
		C23.506,64.433,24.367,64.844,25.304,65.149z M53.058,90.653l-0.047-0.047c2.661,2.166,5.658,3.228,9.117,2.779
		c3.288,0.015,5.389-2.806,8.378-3.504c2.021-0.675,3.875-1.526,4.212-3.982c4.303-4.881,3.789-12.209,0.341-16.532
		c-0.069-1.09-0.813-1.684-1.631-2.224c-1.261-1.8-2.825-3.188-5.035-3.692c-0.384-0.741-1.068-0.706-1.75-0.68l-0.136-0.146
		l-0.177,0.091c-2.536-1.491-5.265-0.442-7.902-0.601c-1.279,0.341-2.517,0.74-3.066,2.129c-2.016,0.96-4.024,1.927-4.517,4.437
		c-1.003-0.121-1.577,0.463-2.115,1.204c-3.846,5.287-3.862,10.644-0.022,16.498c0.596,0.947,1.019,2.032,2.075,2.614
		C51.26,89.936,52.121,90.348,53.058,90.653z M59.809,50.897l-0.048-0.047c2.661,2.167,5.659,3.228,9.117,2.779
		c3.288,0.016,5.389-2.806,8.378-3.503c2.021-0.675,3.875-1.527,4.212-3.983c4.303-4.881,3.789-12.208,0.341-16.531
		c-0.069-1.09-0.813-1.684-1.631-2.224c-1.261-1.8-2.824-3.187-5.035-3.692c-0.384-0.74-1.068-0.705-1.75-0.68l-0.136-0.146
		l-0.177,0.091c-2.536-1.491-5.265-0.442-7.902-0.601c-1.279,0.341-2.517,0.74-3.066,2.129c-2.016,0.959-4.024,1.927-4.517,4.436
		c-1.003-0.121-1.577,0.464-2.115,1.205c-3.846,5.287-3.862,10.644-0.022,16.498c0.596,0.947,1.019,2.032,2.074,2.615
		C58.011,50.181,58.871,50.592,59.809,50.897z M97.313,56.898l-0.047-0.047c2.661,2.166,5.659,3.228,9.117,2.779
		c3.288,0.016,5.389-2.806,8.378-3.504c2.022-0.674,3.875-1.526,4.213-3.982c4.302-4.881,3.789-12.208,0.341-16.531
		c-0.068-1.09-0.813-1.684-1.631-2.224c-1.261-1.8-2.824-3.187-5.035-3.692c-0.384-0.741-1.069-0.706-1.75-0.68l-0.136-0.146
		l-0.177,0.092c-2.536-1.492-5.265-0.442-7.902-0.601c-1.278,0.34-2.517,0.74-3.066,2.129c-2.016,0.959-4.023,1.926-4.517,4.436
		c-1.003-0.121-1.576,0.464-2.115,1.204c-3.846,5.288-3.862,10.644-0.022,16.498c0.597,0.947,1.019,2.032,2.075,2.614
		C95.517,56.182,96.376,56.593,97.313,56.898z M42.758,93.185c0.019-9.523-6.751-15.036-18.622-15.166
		c-5.011-0.055-12.226,8.693-12.312,14.929c-0.115,8.319,7.036,15.577,15.408,15.639C35.674,108.649,42.741,101.639,42.758,93.185z"
		/>
	<path fill-rule="evenodd" clip-rule="evenodd" fill="#DC3516" d="M42.758,93.185c-0.017,8.454-7.084,15.464-15.526,15.402
		c-8.372-0.062-15.523-7.32-15.408-15.639c0.086-6.236,7.301-14.984,12.312-14.929C36.007,78.149,42.777,83.662,42.758,93.185z
		 M40.339,93.108c-0.009-6.831-6.27-13.149-12.916-13.036c-6.961,0.119-12.918,5.99-13.091,12.904
		c-0.162,6.417,6.564,13.188,13.023,13.112C34.179,106.006,40.349,99.838,40.339,93.108z"/>
	<path fill-rule="evenodd" clip-rule="evenodd" fill="#1A1A1B" d="M87.6,74.684c0.494-2.509,2.501-3.477,4.517-4.436
		c1.007,0.766,2.021,0.397,3.134,0.195c3.477-0.631,6.838-0.085,10.04,1.42c1.873,0.881,2.391,3.526,4.812,3.69l0.013-0.007
		c0.91,4.755,2.536,9.51-0.007,14.263c-0.252,0.701-0.504,1.402-0.756,2.103c-0.423,1.072-1.297,1.728-2.183,2.374
		c-0.491,0.036-1.083-0.096-1.456,0.132c-6.662,4.07-12.477,2.063-17.965-2.432c-0.178-0.85-0.532-1.519-1.546-1.515l-0.01,0.015
		c-0.508-3.469-1.237-6.921-0.822-10.462C86.087,78.233,87.407,76.694,87.6,74.684z M108.637,86.764
		c-0.196-1.778,1.337-3.328,0.679-5.166c-0.727-5.864-5.225-9.034-12.927-9.112c-3.181-0.032-8.681,5.528-9.164,9.262
		c-0.348,2.192-0.09,4.273,1.125,6.181c-0.267,1.193,0.347,1.738,1.428,1.939c6.362,7.912,14.432,5.077,17.451-0.04
		C108.064,88.975,108.742,88.049,108.637,86.764z"/>
	<path fill-rule="evenodd" clip-rule="evenodd" fill="#1A1A1B" d="M57.596,28.927c0.493-2.509,2.501-3.477,4.517-4.436
		c1.006,0.766,2.021,0.397,3.134,0.196c3.477-0.632,6.838-0.086,10.04,1.42c1.872,0.88,2.391,3.525,4.812,3.69l0.012-0.007
		c0.91,4.754,2.537,9.509-0.007,14.263c-0.252,0.701-0.504,1.402-0.756,2.103c-0.422,1.072-1.296,1.728-2.183,2.374
		c-0.49,0.036-1.083-0.096-1.456,0.132c-6.662,4.07-12.477,2.063-17.966-2.432c-0.178-0.85-0.531-1.519-1.546-1.515l-0.01,0.015
		c-0.508-3.469-1.236-6.921-0.821-10.462C56.083,32.477,57.403,30.938,57.596,28.927z M78.633,41.007
		c-0.195-1.778,1.337-3.328,0.679-5.166c-0.727-5.864-5.225-9.034-12.927-9.112c-3.181-0.032-8.681,5.528-9.164,9.262
		c-0.349,2.192-0.09,4.273,1.125,6.181c-0.268,1.193,0.347,1.738,1.428,1.94c6.362,7.911,14.432,5.077,17.451-0.041
		C78.06,43.219,78.738,42.293,78.633,41.007z"/>
	<path fill-rule="evenodd" clip-rule="evenodd" fill="#1A1A1B" d="M50.845,68.683c0.493-2.51,2.501-3.477,4.517-4.437
		c1.006,0.767,2.021,0.397,3.134,0.196c3.477-0.631,6.838-0.086,10.04,1.42c1.872,0.88,2.391,3.525,4.812,3.69l0.012-0.007
		c0.91,4.755,2.537,9.509-0.007,14.263c-0.252,0.701-0.504,1.402-0.756,2.103c-0.422,1.072-1.296,1.728-2.183,2.374
		c-0.49,0.036-1.083-0.096-1.456,0.132c-6.662,4.07-12.477,2.063-17.966-2.432c-0.177-0.85-0.531-1.519-1.546-1.515l-0.01,0.015
		c-0.508-3.469-1.236-6.921-0.821-10.462C49.332,72.232,50.652,70.693,50.845,68.683z M71.882,80.763
		c-0.195-1.778,1.337-3.328,0.679-5.166c-0.727-5.864-5.225-9.034-12.927-9.112c-3.181-0.032-8.681,5.528-9.164,9.262
		c-0.349,2.192-0.09,4.273,1.125,6.181c-0.267,1.193,0.347,1.738,1.428,1.94c6.362,7.911,14.432,5.077,17.451-0.041
		C71.309,82.975,71.987,82.048,71.882,80.763z"/>
	<path fill-rule="evenodd" clip-rule="evenodd" fill="#1A1A1B" d="M23.091,43.179c0.493-2.509,2.501-3.477,4.517-4.436
		c1.006,0.766,2.021,0.397,3.134,0.196c3.477-0.632,6.838-0.086,10.04,1.42c1.872,0.88,2.391,3.525,4.812,3.69l0.013-0.007
		c0.91,4.754,2.536,9.509-0.007,14.263c-0.252,0.701-0.504,1.402-0.756,2.103c-0.422,1.072-1.296,1.728-2.182,2.374
		c-0.49,0.036-1.083-0.096-1.456,0.132c-6.662,4.07-12.477,2.063-17.965-2.432c-0.178-0.85-0.532-1.519-1.546-1.515l-0.01,0.015
		c-0.508-3.469-1.236-6.921-0.821-10.462C21.578,46.729,22.898,45.189,23.091,43.179z M44.128,55.259
		c-0.196-1.778,1.337-3.328,0.679-5.166c-0.728-5.864-5.225-9.034-12.928-9.112c-3.18-0.032-8.681,5.528-9.164,9.262
		c-0.348,2.192-0.09,4.274,1.125,6.181c-0.267,1.193,0.347,1.738,1.428,1.94c6.362,7.911,14.432,5.077,17.451-0.041
		C43.555,57.471,44.233,56.545,44.128,55.259z"/>
	<path fill-rule="evenodd" clip-rule="evenodd" fill="#1A1A1B" d="M95.101,34.928c0.494-2.51,2.501-3.477,4.517-4.436
		c1.007,0.766,2.021,0.397,3.134,0.195c3.477-0.631,6.838-0.085,10.04,1.42c1.873,0.881,2.391,3.526,4.812,3.69l0.013-0.007
		c0.91,4.755,2.536,9.51-0.007,14.263c-0.252,0.701-0.504,1.402-0.756,2.103c-0.423,1.072-1.297,1.728-2.183,2.374
		c-0.491,0.036-1.083-0.096-1.456,0.132c-6.662,4.07-12.477,2.063-17.965-2.432c-0.178-0.85-0.532-1.52-1.546-1.515l-0.01,0.015
		c-0.508-3.468-1.237-6.921-0.822-10.462C93.588,38.477,94.908,36.938,95.101,34.928z M116.138,47.008
		c-0.196-1.778,1.337-3.328,0.679-5.166c-0.727-5.864-5.225-9.034-12.927-9.112c-3.181-0.032-8.681,5.528-9.164,9.262
		c-0.348,2.192-0.09,4.273,1.125,6.181c-0.268,1.193,0.347,1.737,1.427,1.939c6.363,7.912,14.432,5.077,17.451-0.04
		C115.565,49.22,116.243,48.294,116.138,47.008z"/>
	<path fill-rule="evenodd" clip-rule="evenodd" fill="#444446" d="M57.744,46.229c5.488,4.495,11.303,6.502,17.965,2.433
		c0.373-0.228,0.966-0.096,1.456-0.132c0.031,0.532,0.061,1.064,0.092,1.596c-2.99,0.698-5.091,3.519-8.378,3.503
		c-2.617-2.31-6.037-1.989-9.117-2.779l0.048,0.047c0.083-1.71-1.126-1.64-2.276-1.653c-1.055-0.583-1.478-1.667-2.074-2.615
		c0.24-0.135,0.48-0.271,0.72-0.407C56.701,46.225,57.222,46.227,57.744,46.229z"/>
	<path fill-rule="evenodd" clip-rule="evenodd" fill="#444446" d="M50.993,85.984c5.487,4.496,11.302,6.502,17.964,2.433
		c0.373-0.228,0.966-0.096,1.456-0.132c0.031,0.532,0.062,1.064,0.092,1.596c-2.99,0.698-5.091,3.519-8.378,3.504
		c-2.617-2.31-6.037-1.989-9.117-2.779l0.047,0.047c0.083-1.71-1.126-1.64-2.275-1.653c-1.056-0.583-1.479-1.667-2.075-2.614
		c0.24-0.136,0.48-0.271,0.721-0.408C49.95,85.98,50.471,85.982,50.993,85.984z"/>
	<path fill-rule="evenodd" clip-rule="evenodd" fill="#444446" d="M23.239,60.481c5.488,4.495,11.302,6.502,17.964,2.433
		c0.373-0.228,0.966-0.096,1.456-0.132c0.03,0.532,0.061,1.064,0.092,1.596c-2.989,0.698-5.091,3.519-8.379,3.503
		c-2.617-2.31-6.036-1.989-9.116-2.779l0.047,0.047c0.083-1.71-1.126-1.64-2.275-1.653c-1.056-0.583-1.479-1.667-2.075-2.615
		c0.24-0.135,0.48-0.271,0.721-0.407C22.196,60.477,22.717,60.479,23.239,60.481z"/>
	<path fill-rule="evenodd" clip-rule="evenodd" fill="#444446" d="M87.748,91.985c5.488,4.495,11.302,6.502,17.964,2.433
		c0.373-0.228,0.965-0.096,1.456-0.132c0.031,0.532,0.061,1.064,0.092,1.596c-2.989,0.698-5.091,3.519-8.378,3.503
		c-2.617-2.31-6.037-1.989-9.117-2.779l0.047,0.047c0.083-1.71-1.126-1.64-2.275-1.653c-1.056-0.582-1.478-1.667-2.075-2.614
		c0.24-0.135,0.48-0.271,0.721-0.407C86.705,91.981,87.226,91.983,87.748,91.985z"/>
	<path fill-rule="evenodd" clip-rule="evenodd" fill="#444446" d="M95.249,52.229c5.488,4.496,11.302,6.503,17.964,2.433
		c0.373-0.228,0.965-0.096,1.456-0.132c0.031,0.532,0.061,1.064,0.092,1.596c-2.989,0.698-5.091,3.52-8.378,3.504
		c-2.617-2.31-6.037-1.989-9.117-2.779l0.047,0.047c0.083-1.71-1.126-1.64-2.275-1.653c-1.056-0.582-1.478-1.667-2.075-2.614
		c0.24-0.136,0.48-0.271,0.721-0.407C94.206,52.225,94.727,52.228,95.249,52.229z"/>
	<path fill-rule="evenodd" clip-rule="evenodd" fill="#4A4A4C" d="M117.603,35.798c-2.42-0.165-2.939-2.81-4.812-3.69
		c-3.201-1.506-6.563-2.052-10.04-1.42c-1.113,0.202-2.127,0.571-3.134-0.195c0.55-1.39,1.788-1.789,3.066-2.129
		c2.547,1.339,5.271,0.368,7.902,0.601l0.177-0.092l0.136,0.146c0.378,0.756,1.073,0.695,1.75,0.68
		c2.21,0.505,3.773,1.892,5.035,3.692C117.657,34.192,117.63,34.996,117.603,35.798z"/>
	<path fill-rule="evenodd" clip-rule="evenodd" fill="#4A4A4C" d="M80.098,29.798c-2.421-0.165-2.94-2.81-4.812-3.69
		c-3.201-1.506-6.563-2.052-10.04-1.42c-1.113,0.201-2.127,0.57-3.134-0.196c0.55-1.39,1.788-1.789,3.066-2.129
		c2.547,1.339,5.271,0.369,7.902,0.601l0.177-0.091l0.136,0.146c0.378,0.756,1.073,0.695,1.75,0.68
		c2.21,0.505,3.774,1.892,5.035,3.692C80.152,28.191,80.125,28.995,80.098,29.798z"/>
	<path fill-rule="evenodd" clip-rule="evenodd" fill="#4A4A4C" d="M110.102,75.554c-2.42-0.165-2.939-2.81-4.812-3.69
		c-3.201-1.506-6.563-2.052-10.04-1.42c-1.113,0.202-2.127,0.571-3.134-0.195c0.55-1.39,1.788-1.789,3.066-2.129
		c2.547,1.339,5.271,0.369,7.902,0.601l0.177-0.091l0.136,0.146c0.378,0.756,1.073,0.695,1.75,0.68
		c2.21,0.505,3.773,1.892,5.035,3.692C110.156,73.948,110.129,74.751,110.102,75.554z"/>
	<path fill-rule="evenodd" clip-rule="evenodd" fill="#4A4A4C" d="M73.347,69.553c-2.42-0.165-2.939-2.81-4.812-3.69
		c-3.201-1.506-6.563-2.052-10.04-1.42c-1.113,0.201-2.127,0.571-3.134-0.196c0.55-1.39,1.788-1.789,3.066-2.129
		c2.547,1.339,5.271,0.369,7.902,0.601l0.177-0.091l0.136,0.146c0.378,0.756,1.073,0.695,1.75,0.68
		c2.21,0.504,3.774,1.892,5.035,3.692C73.401,67.947,73.374,68.75,73.347,69.553z"/>
	<path fill-rule="evenodd" clip-rule="evenodd" fill="#4A4A4C" d="M45.593,44.05c-2.42-0.165-2.939-2.81-4.812-3.69
		c-3.201-1.506-6.563-2.052-10.04-1.42c-1.113,0.201-2.127,0.57-3.134-0.196c0.55-1.39,1.788-1.789,3.066-2.129
		c2.547,1.339,5.271,0.369,7.902,0.601l0.177-0.091l0.136,0.146c0.378,0.756,1.073,0.695,1.75,0.68
		c2.21,0.505,3.773,1.892,5.035,3.692C45.647,42.443,45.62,43.247,45.593,44.05z"/>
	<path fill-rule="evenodd" clip-rule="evenodd" fill="#353637" d="M79.347,46.156c0.252-0.701,0.504-1.402,0.757-2.104
		c3.234-1.804,3.222-4.818,2.78-7.868c-0.312-2.15-1.38-4.167-1.251-6.415l0.178-0.158c3.448,4.323,3.961,11.65-0.341,16.531
		C80.762,46.147,80.054,46.152,79.347,46.156z"/>
	<path fill-rule="evenodd" clip-rule="evenodd" fill="#353637" d="M44.842,60.408c0.252-0.701,0.504-1.402,0.757-2.104
		c3.234-1.804,3.222-4.818,2.78-7.868c-0.312-2.15-1.38-4.167-1.25-6.415l0.177-0.158c3.448,4.323,3.961,11.65-0.341,16.532
		C46.257,60.399,45.549,60.404,44.842,60.408z"/>
	<path fill-rule="evenodd" clip-rule="evenodd" fill="#353637" d="M116.852,52.157c0.252-0.701,0.504-1.402,0.756-2.104
		c3.234-1.803,3.222-4.818,2.78-7.867c-0.312-2.151-1.38-4.167-1.251-6.416l0.177-0.157c3.448,4.322,3.961,11.65-0.341,16.531
		C118.267,52.148,117.559,52.153,116.852,52.157z"/>
	<path fill-rule="evenodd" clip-rule="evenodd" fill="#353637" d="M109.351,91.913c0.252-0.701,0.504-1.402,0.756-2.104
		c3.234-1.804,3.222-4.818,2.78-7.868c-0.312-2.15-1.38-4.167-1.251-6.416l0.177-0.157c3.448,4.323,3.961,11.65-0.341,16.532
		C110.766,91.904,110.058,91.908,109.351,91.913z"/>
	<path fill-rule="evenodd" clip-rule="evenodd" fill="#353637" d="M72.596,85.912c0.252-0.701,0.504-1.402,0.757-2.104
		c3.234-1.804,3.222-4.818,2.78-7.867c-0.312-2.151-1.38-4.167-1.25-6.416l0.177-0.158c3.448,4.323,3.961,11.65-0.341,16.532
		C74.011,85.903,73.303,85.907,72.596,85.912z"/>
	<path fill-rule="evenodd" clip-rule="evenodd" fill="#444446" d="M57.596,28.927c-0.193,2.01-1.513,3.549-2.23,5.34
		c-2.43,2.378-2.111,6.452,0.821,10.462l0.01-0.015c-0.006,0.502-0.012,1.005-0.018,1.507c-0.24,0.136-0.48,0.272-0.72,0.407
		c-3.84-5.854-3.824-11.21,0.022-16.498C56.019,29.391,56.592,28.807,57.596,28.927z"/>
	<path fill-rule="evenodd" clip-rule="evenodd" fill="#444446" d="M50.845,68.683c-0.193,2.01-1.513,3.549-2.23,5.34
		c-2.431,2.378-2.111,6.452,0.821,10.462l0.01-0.015c-0.006,0.502-0.012,1.005-0.018,1.507c-0.241,0.136-0.48,0.272-0.721,0.408
		c-3.84-5.854-3.824-11.211,0.022-16.498C49.268,69.146,49.841,68.562,50.845,68.683z"/>
	<path fill-rule="evenodd" clip-rule="evenodd" fill="#444446" d="M95.101,34.928c-0.192,2.01-1.513,3.549-2.23,5.34
		c-2.431,2.379-2.111,6.452,0.821,10.462l0.01-0.015c-0.006,0.503-0.012,1.005-0.018,1.508c-0.24,0.136-0.48,0.271-0.721,0.407
		c-3.84-5.854-3.824-11.21,0.022-16.498C93.524,35.392,94.097,34.807,95.101,34.928z"/>
	<path fill-rule="evenodd" clip-rule="evenodd" fill="#444446" d="M23.091,43.179c-0.193,2.01-1.513,3.549-2.23,5.34
		c-2.431,2.378-2.111,6.452,0.821,10.462l0.01-0.015c-0.006,0.502-0.012,1.005-0.018,1.507c-0.24,0.136-0.48,0.272-0.721,0.407
		c-3.84-5.854-3.824-11.21,0.022-16.498C21.515,43.643,22.087,43.059,23.091,43.179z"/>
	<path fill-rule="evenodd" clip-rule="evenodd" fill="#444446" d="M87.6,74.684c-0.192,2.01-1.513,3.549-2.23,5.34
		c-2.431,2.378-2.111,6.452,0.821,10.462l0.01-0.015c-0.006,0.502-0.012,1.005-0.018,1.507c-0.24,0.136-0.48,0.272-0.721,0.407
		c-3.84-5.854-3.824-11.21,0.022-16.498C86.023,75.147,86.596,74.563,87.6,74.684z"/>
	<path fill-rule="evenodd" clip-rule="evenodd" fill="#353637" d="M97.266,56.851c3.08,0.791,6.5,0.47,9.117,2.779
		C102.925,60.079,99.927,59.017,97.266,56.851z"/>
	<path fill-rule="evenodd" clip-rule="evenodd" fill="#353637" d="M59.761,50.85c3.081,0.791,6.5,0.47,9.117,2.779
		C65.419,54.078,62.422,53.017,59.761,50.85z"/>
	<path fill-rule="evenodd" clip-rule="evenodd" fill="#353637" d="M53.01,90.606c3.08,0.79,6.5,0.469,9.117,2.779
		C58.668,93.833,55.671,92.772,53.01,90.606z"/>
	<path fill-rule="evenodd" clip-rule="evenodd" fill="#353637" d="M25.256,65.102c3.08,0.791,6.5,0.47,9.116,2.779
		C30.915,68.33,27.917,67.269,25.256,65.102z"/>
	<path fill-rule="evenodd" clip-rule="evenodd" fill="#353637" d="M89.765,96.606c3.08,0.791,6.5,0.47,9.117,2.779
		C95.424,99.834,92.426,98.773,89.765,96.606z"/>
	<path fill-rule="evenodd" clip-rule="evenodd" fill="#8E8E90" d="M79.347,46.156c0.708-0.004,1.415-0.009,2.122-0.013
		c-0.337,2.456-2.191,3.308-4.212,3.983c-0.031-0.532-0.062-1.064-0.092-1.596C78.05,47.884,78.924,47.228,79.347,46.156z"/>
	<path fill-rule="evenodd" clip-rule="evenodd" fill="#8E8E90" d="M116.852,52.157c0.707-0.004,1.415-0.009,2.122-0.013
		c-0.337,2.456-2.191,3.308-4.213,3.982c-0.031-0.532-0.061-1.064-0.092-1.596C115.555,53.885,116.429,53.229,116.852,52.157z"/>
	<path fill-rule="evenodd" clip-rule="evenodd" fill="#8E8E90" d="M72.596,85.912c0.708-0.004,1.415-0.009,2.122-0.012
		c-0.337,2.456-2.191,3.307-4.212,3.982c-0.031-0.532-0.062-1.064-0.092-1.596C71.299,87.64,72.173,86.983,72.596,85.912z"/>
	<path fill-rule="evenodd" clip-rule="evenodd" fill="#8E8E90" d="M44.842,60.408c0.708-0.004,1.415-0.009,2.123-0.012
		c-0.337,2.455-2.191,3.307-4.213,3.982c-0.031-0.532-0.062-1.064-0.092-1.596C43.545,62.136,44.419,61.48,44.842,60.408z"/>
	<path fill-rule="evenodd" clip-rule="evenodd" fill="#8E8E90" d="M109.351,91.913c0.707-0.004,1.415-0.009,2.122-0.012
		c-0.337,2.455-2.191,3.307-4.213,3.982c-0.031-0.532-0.061-1.064-0.092-1.596C108.054,93.641,108.928,92.984,109.351,91.913z"/>
	<path fill-rule="evenodd" clip-rule="evenodd" fill="#2B2C2C" d="M38.576,37.214c-2.631-0.232-5.354,0.738-7.902-0.601
		C33.312,36.772,36.041,35.723,38.576,37.214z"/>
	<path fill-rule="evenodd" clip-rule="evenodd" fill="#2B2C2C" d="M66.33,62.718c-2.631-0.232-5.354,0.739-7.902-0.601
		C61.065,62.275,63.794,61.227,66.33,62.718z"/>
	<path fill-rule="evenodd" clip-rule="evenodd" fill="#2B2C2C" d="M103.085,68.719c-2.632-0.232-5.355,0.738-7.902-0.601
		C97.82,68.276,100.549,67.228,103.085,68.719z"/>
	<path fill-rule="evenodd" clip-rule="evenodd" fill="#2B2C2C" d="M110.586,28.963c-2.632-0.232-5.355,0.738-7.902-0.601
		C105.321,28.521,108.05,27.472,110.586,28.963z"/>
	<path fill-rule="evenodd" clip-rule="evenodd" fill="#2B2C2C" d="M73.081,22.962c-2.631-0.232-5.354,0.738-7.902-0.601
		C67.816,22.52,70.545,21.471,73.081,22.962z"/>
	<path fill-rule="evenodd" clip-rule="evenodd" fill="#353637" d="M23.028,63.496c1.149,0.013,2.359-0.057,2.275,1.653
		C24.367,64.844,23.506,64.433,23.028,63.496z"/>
	<path fill-rule="evenodd" clip-rule="evenodd" fill="#353637" d="M110.102,75.554c0.027-0.803,0.054-1.606,0.082-2.409
		c0.818,0.54,1.563,1.134,1.631,2.224l-0.177,0.157c-0.508,0.007-1.015,0.013-1.522,0.021L110.102,75.554z"/>
	<path fill-rule="evenodd" clip-rule="evenodd" fill="#353637" d="M73.347,69.553c0.027-0.803,0.054-1.606,0.082-2.409
		c0.818,0.54,1.562,1.134,1.631,2.224l-0.177,0.158c-0.508,0.006-1.015,0.013-1.523,0.021L73.347,69.553z"/>
	<path fill-rule="evenodd" clip-rule="evenodd" fill="#353637" d="M45.593,44.05c0.027-0.803,0.054-1.606,0.082-2.41
		c0.818,0.54,1.563,1.134,1.631,2.224l-0.177,0.158c-0.508,0.006-1.015,0.013-1.522,0.021L45.593,44.05z"/>
	<path fill-rule="evenodd" clip-rule="evenodd" fill="#353637" d="M117.603,35.798c0.027-0.803,0.054-1.606,0.082-2.409
		c0.818,0.54,1.563,1.134,1.631,2.224l-0.177,0.157c-0.508,0.007-1.015,0.013-1.522,0.021L117.603,35.798z"/>
	<path fill-rule="evenodd" clip-rule="evenodd" fill="#353637" d="M50.782,89c1.149,0.013,2.359-0.057,2.275,1.653
		C52.121,90.348,51.26,89.936,50.782,89z"/>
	<path fill-rule="evenodd" clip-rule="evenodd" fill="#353637" d="M57.533,49.244c1.149,0.013,2.359-0.057,2.276,1.653
		C58.871,50.592,58.011,50.181,57.533,49.244z"/>
	<path fill-rule="evenodd" clip-rule="evenodd" fill="#353637" d="M95.038,55.245c1.149,0.013,2.359-0.057,2.275,1.653
		C96.376,56.593,95.517,56.182,95.038,55.245z"/>
	<path fill-rule="evenodd" clip-rule="evenodd" fill="#353637" d="M87.537,95c1.149,0.013,2.359-0.057,2.275,1.653
		C88.875,96.349,88.016,95.937,87.537,95z"/>
	<path fill-rule="evenodd" clip-rule="evenodd" fill="#353637" d="M80.098,29.798c0.027-0.803,0.054-1.606,0.081-2.41
		c0.818,0.54,1.563,1.134,1.631,2.224l-0.178,0.158c-0.507,0.006-1.015,0.013-1.522,0.021L80.098,29.798z"/>
	<path fill-rule="evenodd" clip-rule="evenodd" fill="#2B2C2C" d="M68.393,63.452c-0.677,0.015-1.372,0.076-1.75-0.68
		C67.325,62.747,68.009,62.711,68.393,63.452z"/>
	<path fill-rule="evenodd" clip-rule="evenodd" fill="#2B2C2C" d="M105.148,69.453c-0.677,0.016-1.373,0.076-1.75-0.68
		C104.08,68.748,104.765,68.712,105.148,69.453z"/>
	<path fill-rule="evenodd" clip-rule="evenodd" fill="#2B2C2C" d="M40.64,37.948c-0.677,0.016-1.373,0.076-1.75-0.68
		C39.571,37.243,40.256,37.208,40.64,37.948z"/>
	<path fill-rule="evenodd" clip-rule="evenodd" fill="#2B2C2C" d="M112.649,29.697c-0.677,0.016-1.373,0.076-1.75-0.68
		C111.581,28.992,112.266,28.957,112.649,29.697z"/>
	<path fill-rule="evenodd" clip-rule="evenodd" fill="#2B2C2C" d="M75.144,23.696c-0.677,0.016-1.372,0.076-1.75-0.68
		C74.076,22.991,74.76,22.956,75.144,23.696z"/>
	<path fill-rule="evenodd" clip-rule="evenodd" fill="#850B03" d="M40.339,93.108c0.009,6.73-6.16,12.898-12.983,12.98
		c-6.459,0.077-13.185-6.695-13.023-13.112c0.173-6.914,6.129-12.785,13.091-12.904C34.07,79.958,40.33,86.277,40.339,93.108z
		 M21.601,83.75l0.029-0.02c-0.617-0.049-1.205-0.038-1.445,0.696c-1.109,2.396-4.246,3.648-3.876,6.876
		c-0.068,2.589-0.359,5.222,1.432,7.454c5.938,8.892,17.068,6.331,19.755-0.799c0.056-0.193,0.079-0.39,0.07-0.59
		c0.202-0.48,0.405-0.96,0.608-1.441c1.395-2.719,0.809-5.248-0.735-7.686l-0.007-0.014c-0.248-0.245-0.495-0.489-0.743-0.733
		l-0.014-0.029c0.187-1.14-0.537-1.491-1.453-1.674c-0.792-0.694-1.583-1.388-2.375-2.081c-3.074-2.619-6.325-2.817-9.744-0.711
		l0.025-0.019C22.444,82.889,21.853,82.985,21.601,83.75z"/>
	<path fill-rule="evenodd" clip-rule="evenodd" fill="#4A4A4C" d="M87.226,81.749c0.481-3.734,5.982-9.295,9.163-9.263
		c7.702,0.078,12.2,3.248,12.927,9.112c-1.736-0.811-3.129,0.721-4.75,0.698c-1.371-0.188-2.019-1.356-2.919-2.172
		c-2.555-2.314-5.648-2.006-7.613,0.789c-0.481,0.685-0.333,1.755-1.309,2.14C90.888,82.636,89.464,80.475,87.226,81.749z"/>
	<path fill-rule="evenodd" clip-rule="evenodd" fill="#505052" d="M107.229,89.829c-3.019,5.117-11.089,7.952-17.45,0.04
		c2.534,0.406,4.97,0.976,6.495-2.181c0.638-1.319,2.64-1.445,3.531-0.219C101.789,90.201,104.355,90.309,107.229,89.829z"/>
	<path fill-rule="evenodd" clip-rule="evenodd" fill="#6A6B6C" d="M107.229,89.829c-2.873,0.48-5.439,0.372-7.425-2.36
		c-0.891-1.226-2.893-1.1-3.531,0.219c-1.524,3.156-3.961,2.586-6.495,2.181c-1.082-0.201-1.696-0.746-1.428-1.939
		c1.769-1.227,4.587-0.858,5.396-3.547c2.936,0.977,5.873,1.102,8.812,0.015c1.228,2.839,3.456,3.111,6.079,2.366
		C108.742,88.049,108.064,88.975,107.229,89.829z"/>
	<path fill-rule="evenodd" clip-rule="evenodd" fill="#8E8E90" d="M93.746,84.382c-0.809,2.689-3.627,2.32-5.396,3.547
		c-1.215-1.908-1.474-3.989-1.125-6.18c2.238-1.274,3.662,0.887,5.5,1.304C93.066,83.496,93.406,83.939,93.746,84.382z"/>
	<path fill-rule="evenodd" clip-rule="evenodd" fill="#8E8E90" d="M108.637,86.764c-2.624,0.745-4.851,0.473-6.079-2.366
		c0.669-0.7,1.339-1.401,2.008-2.102c1.621,0.023,3.014-1.508,4.75-0.698C109.974,83.436,108.441,84.986,108.637,86.764z"/>
	<path fill-rule="evenodd" clip-rule="evenodd" fill="#4A4A4C" d="M110.114,75.546c0.507-0.007,1.015-0.014,1.522-0.021
		c-0.129,2.249,0.939,4.265,1.251,6.416c0.441,3.05,0.454,6.064-2.78,7.868C112.65,85.056,111.024,80.301,110.114,75.546z"/>
	<path fill-rule="evenodd" clip-rule="evenodd" fill="#4A4A4C" d="M86.191,90.486c-2.933-4.01-3.252-8.083-0.821-10.462
		C84.954,83.565,85.683,87.017,86.191,90.486z"/>
	<path fill-rule="evenodd" clip-rule="evenodd" fill="#4A4A4C" d="M86.183,91.979c0.006-0.502,0.012-1.005,0.018-1.507
		c1.015-0.004,1.369,0.665,1.546,1.515C87.226,91.983,86.705,91.981,86.183,91.979z"/>
	<path fill-rule="evenodd" clip-rule="evenodd" fill="#4A4A4C" d="M57.222,35.993c0.481-3.734,5.981-9.295,9.162-9.263
		c7.703,0.078,12.2,3.248,12.928,9.111c-1.736-0.809-3.129,0.722-4.75,0.699c-1.371-0.188-2.019-1.355-2.919-2.172
		c-2.555-2.314-5.648-2.006-7.613,0.789c-0.482,0.685-0.333,1.756-1.309,2.14C60.883,36.88,59.46,34.719,57.222,35.993z"/>
	<path fill-rule="evenodd" clip-rule="evenodd" fill="#505052" d="M77.224,44.072c-3.019,5.118-11.088,7.952-17.45,0.04
		c2.534,0.406,4.97,0.976,6.495-2.181c0.638-1.319,2.639-1.445,3.53-0.219C71.785,44.444,74.351,44.553,77.224,44.072z"/>
	<path fill-rule="evenodd" clip-rule="evenodd" fill="#6A6B6C" d="M77.224,44.072c-2.873,0.48-5.439,0.372-7.425-2.36
		c-0.891-1.226-2.893-1.1-3.53,0.219c-1.525,3.156-3.961,2.586-6.495,2.181c-1.081-0.201-1.696-0.746-1.428-1.939
		c1.769-1.227,4.587-0.858,5.396-3.547c2.936,0.977,5.873,1.102,8.813,0.016c1.228,2.84,3.456,3.111,6.079,2.366
		C78.738,42.293,78.06,43.219,77.224,44.072z"/>
	<path fill-rule="evenodd" clip-rule="evenodd" fill="#8E8E90" d="M63.742,38.626c-0.808,2.689-3.626,2.32-5.396,3.547
		c-1.216-1.908-1.474-3.989-1.125-6.18c2.239-1.274,3.662,0.887,5.5,1.304C63.062,37.74,63.402,38.183,63.742,38.626z"/>
	<path fill-rule="evenodd" clip-rule="evenodd" fill="#8E8E90" d="M78.633,41.007c-2.623,0.745-4.851,0.474-6.079-2.366
		c0.669-0.701,1.338-1.401,2.008-2.102c1.621,0.023,3.014-1.508,4.75-0.699C79.97,37.68,78.438,39.229,78.633,41.007z"/>
	<path fill-rule="evenodd" clip-rule="evenodd" fill="#4A4A4C" d="M80.11,29.791c0.508-0.007,1.015-0.014,1.522-0.021
		c-0.129,2.249,0.939,4.265,1.251,6.415c0.442,3.05,0.454,6.064-2.78,7.868C82.646,39.3,81.02,34.545,80.11,29.791z"/>
	<path fill-rule="evenodd" clip-rule="evenodd" fill="#4A4A4C" d="M56.187,44.729c-2.932-4.01-3.251-8.083-0.821-10.462
		C54.95,37.809,55.679,41.261,56.187,44.729z"/>
	<path fill-rule="evenodd" clip-rule="evenodd" fill="#4A4A4C" d="M56.179,46.222c0.006-0.502,0.012-1.005,0.018-1.507
		c1.015-0.004,1.368,0.665,1.546,1.515C57.222,46.227,56.701,46.225,56.179,46.222z"/>
	<path fill-rule="evenodd" clip-rule="evenodd" fill="#4A4A4C" d="M50.471,75.748c0.481-3.734,5.981-9.295,9.162-9.263
		c7.703,0.078,12.2,3.248,12.928,9.112c-1.736-0.81-3.129,0.721-4.75,0.698c-1.371-0.188-2.019-1.356-2.919-2.172
		c-2.555-2.314-5.648-2.007-7.613,0.788c-0.481,0.685-0.333,1.756-1.309,2.14C54.132,76.635,52.709,74.474,50.471,75.748z"/>
	<path fill-rule="evenodd" clip-rule="evenodd" fill="#505052" d="M70.473,83.828c-3.019,5.118-11.088,7.952-17.45,0.04
		c2.534,0.406,4.97,0.976,6.495-2.181c0.638-1.319,2.639-1.445,3.53-0.219C65.034,84.2,67.601,84.308,70.473,83.828z"/>
	<path fill-rule="evenodd" clip-rule="evenodd" fill="#6A6B6C" d="M70.473,83.828c-2.873,0.48-5.439,0.372-7.425-2.36
		c-0.891-1.227-2.892-1.101-3.53,0.219c-1.525,3.157-3.961,2.586-6.495,2.181c-1.081-0.201-1.695-0.746-1.428-1.939
		c1.769-1.227,4.587-0.857,5.396-3.547c2.936,0.977,5.873,1.102,8.813,0.016c1.228,2.84,3.456,3.111,6.079,2.366
		C71.987,82.048,71.309,82.975,70.473,83.828z"/>
	<path fill-rule="evenodd" clip-rule="evenodd" fill="#8E8E90" d="M56.991,78.381c-0.808,2.689-3.626,2.32-5.396,3.547
		c-1.216-1.907-1.474-3.988-1.125-6.18c2.239-1.274,3.662,0.887,5.5,1.304C56.311,77.495,56.651,77.938,56.991,78.381z"/>
	<path fill-rule="evenodd" clip-rule="evenodd" fill="#8E8E90" d="M71.882,80.763c-2.623,0.745-4.851,0.474-6.079-2.366
		c0.669-0.7,1.338-1.401,2.008-2.102c1.621,0.022,3.014-1.508,4.75-0.698C73.219,77.435,71.687,78.985,71.882,80.763z"/>
	<path fill-rule="evenodd" clip-rule="evenodd" fill="#4A4A4C" d="M73.359,69.546c0.508-0.007,1.015-0.014,1.523-0.021
		c-0.129,2.249,0.939,4.265,1.25,6.416c0.442,3.049,0.454,6.063-2.78,7.867C75.896,79.055,74.269,74.301,73.359,69.546z"/>
	<path fill-rule="evenodd" clip-rule="evenodd" fill="#4A4A4C" d="M49.436,84.485c-2.932-4.01-3.251-8.083-0.821-10.462
		C48.199,77.564,48.928,81.016,49.436,84.485z"/>
	<path fill-rule="evenodd" clip-rule="evenodd" fill="#4A4A4C" d="M49.428,85.978c0.006-0.502,0.012-1.005,0.018-1.507
		c1.015-0.004,1.369,0.665,1.546,1.515C50.471,85.982,49.95,85.98,49.428,85.978z"/>
	<path fill-rule="evenodd" clip-rule="evenodd" fill="#4A4A4C" d="M22.717,50.245c0.481-3.734,5.982-9.295,9.162-9.263
		c7.703,0.078,12.2,3.248,12.928,9.112c-1.736-0.81-3.129,0.721-4.75,0.698c-1.371-0.188-2.019-1.355-2.919-2.172
		c-2.555-2.314-5.648-2.006-7.613,0.789c-0.481,0.685-0.333,1.756-1.309,2.14C26.379,51.132,24.955,48.971,22.717,50.245z"/>
	<path fill-rule="evenodd" clip-rule="evenodd" fill="#505052" d="M42.719,58.324c-3.019,5.118-11.088,7.952-17.45,0.04
		c2.534,0.406,4.97,0.976,6.495-2.181c0.638-1.319,2.64-1.445,3.53-0.219C37.28,58.696,39.847,58.805,42.719,58.324z"/>
	<path fill-rule="evenodd" clip-rule="evenodd" fill="#6A6B6C" d="M42.719,58.324c-2.873,0.48-5.439,0.372-7.425-2.36
		c-0.891-1.226-2.892-1.1-3.53,0.219c-1.524,3.156-3.961,2.586-6.495,2.181c-1.082-0.201-1.696-0.746-1.428-1.939
		c1.769-1.227,4.587-0.858,5.396-3.547c2.936,0.977,5.873,1.102,8.813,0.016c1.228,2.84,3.456,3.111,6.079,2.366
		C44.233,56.545,43.555,57.471,42.719,58.324z"/>
	<path fill-rule="evenodd" clip-rule="evenodd" fill="#8E8E90" d="M29.237,52.878c-0.808,2.689-3.626,2.32-5.396,3.547
		c-1.216-1.907-1.474-3.989-1.125-6.18c2.239-1.274,3.663,0.887,5.5,1.304C28.557,51.992,28.897,52.435,29.237,52.878z"/>
	<path fill-rule="evenodd" clip-rule="evenodd" fill="#8E8E90" d="M44.128,55.259c-2.624,0.745-4.851,0.474-6.079-2.366
		c0.669-0.701,1.339-1.401,2.008-2.102c1.621,0.023,3.014-1.508,4.75-0.698C45.465,51.932,43.933,53.481,44.128,55.259z"/>
	<path fill-rule="evenodd" clip-rule="evenodd" fill="#4A4A4C" d="M45.605,44.042c0.507-0.007,1.015-0.014,1.522-0.021
		c-0.129,2.249,0.939,4.265,1.25,6.415c0.442,3.05,0.454,6.064-2.78,7.868C48.142,53.552,46.515,48.797,45.605,44.042z"/>
	<path fill-rule="evenodd" clip-rule="evenodd" fill="#4A4A4C" d="M21.682,58.981c-2.932-4.01-3.251-8.083-0.821-10.462
		C20.445,52.061,21.174,55.513,21.682,58.981z"/>
	<path fill-rule="evenodd" clip-rule="evenodd" fill="#4A4A4C" d="M21.674,60.474c0.006-0.502,0.012-1.005,0.018-1.507
		c1.015-0.004,1.369,0.665,1.546,1.515C22.717,60.479,22.196,60.477,21.674,60.474z"/>
	<path fill-rule="evenodd" clip-rule="evenodd" fill="#4A4A4C" d="M94.727,41.994c0.482-3.735,5.982-9.295,9.163-9.263
		c7.703,0.078,12.2,3.248,12.927,9.112c-1.736-0.81-3.129,0.721-4.75,0.698c-1.371-0.188-2.019-1.356-2.919-2.172
		c-2.555-2.314-5.647-2.006-7.613,0.788c-0.481,0.685-0.333,1.756-1.309,2.141C98.389,42.88,96.965,40.72,94.727,41.994z"/>
	<path fill-rule="evenodd" clip-rule="evenodd" fill="#505052" d="M114.729,50.073c-3.019,5.117-11.088,7.952-17.45,0.04
		c2.534,0.406,4.97,0.976,6.495-2.181c0.638-1.319,2.64-1.445,3.531-0.219C109.29,50.445,111.856,50.554,114.729,50.073z"/>
	<path fill-rule="evenodd" clip-rule="evenodd" fill="#6A6B6C" d="M114.729,50.073c-2.873,0.48-5.439,0.372-7.425-2.36
		c-0.891-1.226-2.893-1.1-3.531,0.219c-1.524,3.156-3.961,2.586-6.495,2.181c-1.081-0.202-1.696-0.746-1.428-1.939
		c1.769-1.227,4.587-0.858,5.396-3.547c2.936,0.976,5.873,1.102,8.812,0.015c1.228,2.839,3.456,3.111,6.079,2.366
		C116.243,48.294,115.565,49.22,114.729,50.073z"/>
	<path fill-rule="evenodd" clip-rule="evenodd" fill="#8E8E90" d="M101.247,44.627c-0.809,2.689-3.627,2.32-5.396,3.547
		c-1.215-1.908-1.474-3.989-1.125-6.18c2.238-1.274,3.662,0.887,5.5,1.304C100.567,43.741,100.907,44.184,101.247,44.627z"/>
	<path fill-rule="evenodd" clip-rule="evenodd" fill="#8E8E90" d="M116.138,47.008c-2.623,0.745-4.851,0.473-6.079-2.366
		c0.67-0.7,1.339-1.401,2.008-2.102c1.621,0.023,3.014-1.508,4.75-0.698C117.475,43.68,115.942,45.23,116.138,47.008z"/>
	<path fill-rule="evenodd" clip-rule="evenodd" fill="#4A4A4C" d="M117.615,35.791c0.507-0.007,1.015-0.014,1.522-0.021
		c-0.129,2.249,0.939,4.265,1.251,6.416c0.441,3.049,0.454,6.064-2.78,7.867C120.151,45.301,118.525,40.546,117.615,35.791z"/>
	<path fill-rule="evenodd" clip-rule="evenodd" fill="#4A4A4C" d="M93.692,50.73c-2.933-4.01-3.252-8.083-0.821-10.462
		C92.455,43.809,93.184,47.262,93.692,50.73z"/>
	<path fill-rule="evenodd" clip-rule="evenodd" fill="#4A4A4C" d="M93.684,52.223c0.006-0.502,0.012-1.005,0.018-1.508
		c1.014-0.004,1.368,0.666,1.546,1.515C94.727,52.228,94.206,52.225,93.684,52.223z"/>
	<path fill-rule="evenodd" clip-rule="evenodd" fill="#DF2A09" d="M16.308,91.304c-0.369-3.229,2.768-4.481,3.877-6.877
		c0.618,0.051,1.251,0.133,1.445-0.696l-0.029,0.02c0.661,0.045,1.347,0.139,1.527-0.771l-0.025,0.019
		c3.266,0,6.539-0.104,9.744,0.711c0.792,0.693,1.583,1.387,2.375,2.083c0.096,0.897,0.618,1.42,1.454,1.672
		c0,0,0.014,0.029,0.014,0.029c0.248,0.245,0.495,0.488,0.742,0.733c0,0,0.007,0.014,0.007,0.014
		c-0.032,0.826-0.064,1.651-0.096,2.477c-1.204,0.495-2.408,0.989-3.612,1.483c-1.008-3.407-3.502-5.325-6.834-5.178
		c-3.151,0.139-5.003,2.406-5.309,5.676C19.861,92.109,18.257,91.054,16.308,91.304z"/>
	<path fill-rule="evenodd" clip-rule="evenodd" fill="#ED7862" d="M33.73,92.199c1.204-0.494,2.408-0.988,3.612-1.479
		c1.451,1.55,0.603,3.463,0.832,5.205c-0.203,0.48-0.406,0.961-0.609,1.442c-4.734-1.757-9.646-0.52-14.465-0.854
		c-1.414-0.098-2.722,0.283-3.695,1.429c-0.554,0.271-1.109,0.542-1.664,0.813c-1.791-2.232-1.5-4.865-1.432-7.453
		c1.948-0.249,3.552,0.806,5.28,1.396C25.767,95.711,29.814,95.562,33.73,92.199z"/>
	<path fill-rule="evenodd" clip-rule="evenodd" fill="#DF2A09" d="M17.741,98.756c0.555-0.271,1.109-0.542,1.663-0.813
		c0.338,0.899,0.991,1.521,1.936,1.502c5.419-0.107,10.949,0.921,16.157-1.489C34.809,105.086,23.679,107.648,17.741,98.756z"/>
	<path fill-rule="evenodd" clip-rule="evenodd" fill="#D64F33" d="M37.496,97.957c-5.208,2.41-10.737,1.382-16.157,1.489
		c-0.945,0.019-1.598-0.604-1.936-1.502c0.974-1.146,2.282-1.528,3.696-1.43c4.819,0.334,9.731-0.903,14.465,0.854
		C37.575,97.567,37.552,97.763,37.496,97.957z"/>
	<path fill-rule="evenodd" clip-rule="evenodd" fill="#ED7862" d="M32.847,83.709c-3.206-0.814-6.479-0.71-9.744-0.711
		C26.522,80.892,29.773,81.09,32.847,83.709z"/>
	<path fill-rule="evenodd" clip-rule="evenodd" fill="#DC3516" d="M38.174,95.925c-0.229-1.742,0.619-3.655-0.832-5.205
		c0.032-0.829,0.064-1.655,0.096-2.48C38.983,90.678,39.569,93.206,38.174,95.925z"/>
	<path fill-rule="evenodd" clip-rule="evenodd" fill="#DC3516" d="M36.675,87.464c-0.835-0.252-1.358-0.775-1.454-1.672
		C36.138,85.973,36.862,86.324,36.675,87.464z"/>
	<path fill-rule="evenodd" clip-rule="evenodd" fill="#ED7862" d="M21.63,83.73c-0.194,0.83-0.827,0.747-1.445,0.696
		C20.425,83.693,21.013,83.681,21.63,83.73z"/>
	<path fill-rule="evenodd" clip-rule="evenodd" fill="#ED7862" d="M23.128,82.979c-0.18,0.909-0.866,0.815-1.527,0.771
		C21.853,82.985,22.444,82.889,23.128,82.979z"/>
	<path fill-rule="evenodd" clip-rule="evenodd" fill="#DC3516" d="M37.432,88.226c-0.248-0.245-0.495-0.489-0.742-0.733
		C36.937,87.737,37.184,87.981,37.432,88.226z"/>
	<path fill-rule="evenodd" clip-rule="evenodd" fill="#1C1C1D" d="M104.566,82.296c-0.669,0.701-1.338,1.401-2.008,2.102
		c-2.939,1.086-5.876,0.961-8.812-0.015c-0.34-0.443-0.68-0.886-1.021-1.33c0.975-0.385,0.827-1.456,1.308-2.14
		c1.965-2.795,5.058-3.103,7.613-0.789C102.547,80.94,103.195,82.108,104.566,82.296z"/>
	<path fill-rule="evenodd" clip-rule="evenodd" fill="#1C1C1D" d="M74.562,36.54c-0.669,0.701-1.338,1.401-2.008,2.102
		c-2.939,1.086-5.877,0.961-8.813-0.016c-0.34-0.443-0.68-0.886-1.021-1.33c0.975-0.384,0.827-1.456,1.309-2.14
		c1.965-2.795,5.058-3.103,7.613-0.789C72.543,35.184,73.191,36.352,74.562,36.54z"/>
	<path fill-rule="evenodd" clip-rule="evenodd" fill="#1C1C1D" d="M67.811,76.295c-0.669,0.7-1.338,1.401-2.008,2.102
		c-2.939,1.086-5.877,0.961-8.813-0.016c-0.34-0.443-0.68-0.886-1.021-1.33c0.975-0.384,0.827-1.456,1.309-2.14
		c1.965-2.795,5.058-3.103,7.613-0.788C65.792,74.939,66.44,76.108,67.811,76.295z"/>
	<path fill-rule="evenodd" clip-rule="evenodd" fill="#1C1C1D" d="M40.057,50.792c-0.669,0.701-1.338,1.401-2.008,2.102
		c-2.939,1.086-5.876,0.961-8.813-0.016c-0.34-0.443-0.68-0.886-1.02-1.33c0.975-0.384,0.827-1.456,1.308-2.14
		c1.965-2.795,5.058-3.103,7.613-0.789C38.039,49.436,38.686,50.604,40.057,50.792z"/>
	<path fill-rule="evenodd" clip-rule="evenodd" fill="#1C1C1D" d="M112.067,42.541c-0.669,0.7-1.338,1.401-2.008,2.102
		c-2.939,1.086-5.876,0.961-8.812-0.015c-0.34-0.443-0.68-0.886-1.021-1.33c0.975-0.385,0.827-1.456,1.308-2.141
		c1.965-2.794,5.058-3.102,7.613-0.788C110.048,41.185,110.696,42.353,112.067,42.541z"/>
	<path fill-rule="evenodd" clip-rule="evenodd" fill="#AE2C0A" d="M33.73,92.199c-3.916,3.362-7.964,3.512-12.142,0.5
		c0.305-3.271,2.157-5.538,5.308-5.677C30.228,86.875,32.722,88.792,33.73,92.199z"/>
</g>
</svg>
