<?xml version="1.0" encoding="utf-8"?>
<!-- Generator: Adobe Illustrator 16.0.3, SVG Export Plug-In . SVG Version: 6.00 Build 0)  -->
<!DOCTYPE svg PUBLIC "-//W3C//DTD SVG 1.1//EN" "http://www.w3.org/Graphics/SVG/1.1/DTD/svg11.dtd">
<svg version="1.1" id="Capa_1" xmlns="http://www.w3.org/2000/svg" xmlns:xlink="http://www.w3.org/1999/xlink" x="0px" y="0px"
	 width="131.03px" height="130.03px" viewBox="0 0 131.03 130.03" enable-background="new 0 0 131.03 130.03" xml:space="preserve">
<g>
	<path fill-rule="evenodd" clip-rule="evenodd" fill="#FDFDFD" d="M66.64,119.022c-21.128,0-42.256-0.043-63.383,0.064
		c-2.239,0.012-2.694-0.451-2.688-2.689c0.09-33.754,0.09-67.509,0-101.264c-0.006-2.238,0.451-2.692,2.688-2.688
		c42.256,0.084,84.512,0.084,126.768,0c2.237-0.004,2.693,0.45,2.688,2.688c-0.09,33.754-0.09,67.509,0,101.264
		c0.006,2.238-0.449,2.701-2.688,2.689C108.896,118.979,87.768,119.022,66.64,119.022z M18.553,107.155l-0.047-0.047
		c2.661,2.166,5.659,3.228,9.116,2.779c3.288,0.016,5.39-2.806,8.379-3.503c2.021-0.675,3.875-1.527,4.213-3.982
		c4.302-4.882,3.789-12.209,0.341-16.532c-0.068-1.09-0.813-1.684-1.631-2.224c-1.261-1.8-2.824-3.187-5.035-3.692
		c-0.384-0.741-1.069-0.706-1.75-0.68l-0.136-0.146l-0.177,0.092c-2.536-1.491-5.265-0.442-7.902-0.601
		c-1.279,0.34-2.517,0.74-3.066,2.129c-2.016,0.959-4.023,1.926-4.517,4.436c-1.003-0.121-1.576,0.464-2.115,1.204
		c-3.846,5.288-3.862,10.644-0.022,16.498c0.597,0.947,1.019,2.032,2.075,2.614C16.755,106.438,17.616,106.85,18.553,107.155z
		 M97.313,58.398l-0.047-0.047c2.661,2.166,5.659,3.227,9.117,2.779c3.288,0.016,5.389-2.805,8.378-3.503
		c2.022-0.675,3.875-1.527,4.213-3.983c4.302-4.881,3.789-12.208,0.341-16.531c-0.068-1.09-0.813-1.684-1.631-2.224
		c-1.261-1.8-2.824-3.187-5.035-3.691c-0.384-0.741-1.069-0.706-1.75-0.68l-0.136-0.146l-0.177,0.091
		c-2.536-1.491-5.265-0.442-7.902-0.601c-1.278,0.341-2.517,0.74-3.066,2.129c-2.016,0.959-4.023,1.927-4.517,4.436
		c-1.003-0.121-1.576,0.464-2.115,1.205c-3.846,5.287-3.862,10.644-0.022,16.498c0.597,0.947,1.019,2.032,2.075,2.615
		C95.517,57.682,96.376,58.094,97.313,58.398z M89.813,98.154l-0.047-0.047c2.661,2.166,5.659,3.228,9.117,2.779
		c3.288,0.015,5.389-2.806,8.378-3.504c2.021-0.675,3.875-1.526,4.213-3.982c4.302-4.881,3.789-12.209,0.341-16.532
		c-0.068-1.09-0.813-1.684-1.631-2.224c-1.261-1.8-2.824-3.188-5.035-3.692c-0.384-0.741-1.069-0.706-1.75-0.68l-0.136-0.146
		l-0.177,0.091c-2.536-1.491-5.265-0.442-7.902-0.601c-1.278,0.341-2.517,0.74-3.066,2.129c-2.016,0.96-4.023,1.927-4.517,4.437
		c-1.003-0.121-1.576,0.463-2.115,1.204c-3.846,5.287-3.862,10.644-0.022,16.498c0.597,0.947,1.019,2.032,2.075,2.614
		C88.016,97.438,88.875,97.849,89.813,98.154z M53.058,92.153l-0.047-0.047c2.661,2.166,5.658,3.228,9.117,2.779
		c3.288,0.015,5.389-2.806,8.378-3.504c2.021-0.674,3.875-1.526,4.212-3.982c4.303-4.881,3.789-12.209,0.341-16.531
		c-0.069-1.09-0.813-1.684-1.631-2.224c-1.261-1.8-2.825-3.187-5.035-3.692c-0.384-0.741-1.068-0.706-1.75-0.68l-0.136-0.146
		l-0.177,0.092c-2.536-1.492-5.265-0.442-7.902-0.601c-1.279,0.34-2.517,0.74-3.066,2.129c-2.016,0.959-4.024,1.926-4.517,4.436
		c-1.003-0.121-1.577,0.464-2.115,1.204c-3.846,5.288-3.862,10.644-0.022,16.498c0.596,0.947,1.019,2.032,2.075,2.614
		C51.26,91.437,52.121,91.848,53.058,92.153z M25.304,66.649l-0.047-0.047c2.661,2.166,5.659,3.228,9.116,2.779
		c3.288,0.015,5.39-2.806,8.379-3.504c2.021-0.674,3.875-1.526,4.213-3.982c4.302-4.881,3.789-12.209,0.341-16.532
		c-0.068-1.09-0.813-1.684-1.631-2.224c-1.261-1.8-2.824-3.188-5.035-3.692c-0.384-0.741-1.069-0.706-1.75-0.68l-0.136-0.146
		l-0.177,0.092c-2.536-1.492-5.265-0.443-7.902-0.601c-1.279,0.341-2.517,0.74-3.066,2.13c-2.016,0.959-4.024,1.926-4.517,4.436
		c-1.003-0.121-1.576,0.463-2.115,1.204c-3.846,5.288-3.862,10.644-0.022,16.498c0.596,0.947,1.019,2.032,2.075,2.614
		C23.506,65.933,24.367,66.345,25.304,66.649z M67.921,24.491c-7.523-0.436-14.439,6.437-14.833,13.999
		c-0.421,8.088,6.285,15.482,14.573,16.066c7.979,0.563,15.704-6.063,16.329-13.8c0.351-4.337-0.68-8.233-3.508-11.414
		C77.008,25.434,72.852,22.782,67.921,24.491z"/>
	<path fill-rule="evenodd" clip-rule="evenodd" fill="#DC3516" d="M67.921,24.491c4.931-1.708,9.087,0.943,12.561,4.851
		c2.828,3.181,3.858,7.077,3.508,11.414c-0.625,7.737-8.35,14.363-16.329,13.8c-8.288-0.584-14.994-7.978-14.573-16.066
		C53.482,30.927,60.398,24.055,67.921,24.491z M81.594,38.951c-0.106-6.849-6.461-13.117-13.064-12.886
		c-6.986,0.244-12.952,6.253-12.958,13.051c-0.006,6.482,6.807,13.17,13.188,12.947C75.692,51.821,81.699,45.685,81.594,38.951z"/>
	<path fill-rule="evenodd" clip-rule="evenodd" fill="#1A1A1B" d="M50.845,70.183c0.493-2.51,2.501-3.477,4.517-4.436
		c1.006,0.766,2.021,0.397,3.134,0.195c3.477-0.631,6.838-0.085,10.04,1.42c1.872,0.88,2.391,3.526,4.812,3.69l0.012-0.007
		c0.91,4.755,2.537,9.51-0.007,14.263c-0.252,0.701-0.504,1.402-0.756,2.103c-0.422,1.072-1.296,1.728-2.183,2.373
		c-0.49,0.036-1.083-0.096-1.456,0.132c-6.662,4.07-12.477,2.063-17.966-2.432c-0.177-0.85-0.531-1.52-1.546-1.515l-0.01,0.015
		c-0.508-3.468-1.236-6.921-0.821-10.462C49.332,73.732,50.652,72.193,50.845,70.183z M51.595,83.429
		c-0.267,1.193,0.347,1.738,1.428,1.939c6.362,7.911,14.432,5.077,17.451-0.04c0.835-0.854,1.514-1.779,1.409-3.065
		c-0.195-1.778,1.337-3.328,0.679-5.166c-0.727-5.864-5.225-9.034-12.927-9.112c-3.181-0.032-8.681,5.528-9.164,9.262
		C50.121,79.44,50.379,81.521,51.595,83.429z"/>
	<path fill-rule="evenodd" clip-rule="evenodd" fill="#1A1A1B" d="M16.34,85.185c0.494-2.51,2.501-3.477,4.517-4.436
		c1.007,0.766,2.021,0.397,3.134,0.196c3.477-0.632,6.838-0.086,10.04,1.42c1.872,0.881,2.391,3.526,4.812,3.69l0.013-0.007
		c0.91,4.755,2.536,9.51-0.007,14.263c-0.252,0.701-0.504,1.402-0.756,2.103c-0.423,1.072-1.297,1.728-2.183,2.374
		c-0.49,0.036-1.083-0.096-1.456,0.132c-6.662,4.07-12.477,2.063-17.965-2.432c-0.178-0.85-0.532-1.519-1.546-1.515l-0.01,0.015
		c-0.508-3.469-1.237-6.921-0.821-10.462C14.827,88.734,16.147,87.195,16.34,85.185z M17.09,98.431
		c-0.267,1.193,0.347,1.738,1.428,1.939c6.362,7.912,14.432,5.077,17.451-0.04c0.835-0.854,1.513-1.779,1.409-3.065
		c-0.196-1.778,1.337-3.328,0.679-5.166c-0.728-5.864-5.225-9.034-12.927-9.112c-3.181-0.032-8.681,5.528-9.164,9.262
		C15.617,94.442,15.875,96.523,17.09,98.431z"/>
	<path fill-rule="evenodd" clip-rule="evenodd" fill="#1A1A1B" d="M87.6,76.184c0.494-2.51,2.501-3.477,4.517-4.437
		c1.007,0.767,2.021,0.397,3.134,0.196c3.477-0.631,6.838-0.086,10.04,1.42c1.872,0.88,2.391,3.525,4.812,3.69l0.013-0.007
		c0.91,4.755,2.536,9.51-0.007,14.263c-0.252,0.701-0.504,1.402-0.756,2.103c-0.423,1.072-1.297,1.729-2.183,2.374
		c-0.491,0.036-1.083-0.096-1.456,0.132c-6.662,4.07-12.477,2.063-17.965-2.432c-0.178-0.85-0.532-1.519-1.546-1.515l-0.01,0.015
		c-0.508-3.468-1.237-6.921-0.822-10.462C86.087,79.733,87.407,78.194,87.6,76.184z M108.637,88.264
		c-0.196-1.778,1.337-3.328,0.679-5.166c-0.727-5.864-5.225-9.034-12.927-9.112c-3.181-0.032-8.681,5.528-9.164,9.262
		c-0.348,2.192-0.09,4.273,1.125,6.181c-0.267,1.193,0.347,1.738,1.428,1.94c6.362,7.911,14.432,5.077,17.451-0.041
		C108.064,90.476,108.742,89.549,108.637,88.264z"/>
	<path fill-rule="evenodd" clip-rule="evenodd" fill="#1A1A1B" d="M95.101,36.428c0.494-2.509,2.501-3.477,4.517-4.436
		c1.007,0.766,2.021,0.397,3.134,0.196c3.477-0.631,6.838-0.086,10.04,1.42c1.873,0.88,2.391,3.525,4.812,3.69l0.013-0.007
		c0.91,4.755,2.536,9.509-0.007,14.263c-0.252,0.701-0.504,1.402-0.756,2.103c-0.423,1.072-1.297,1.728-2.183,2.374
		c-0.491,0.036-1.083-0.096-1.456,0.132c-6.662,4.07-12.477,2.063-17.965-2.432c-0.178-0.85-0.532-1.519-1.546-1.515l-0.01,0.015
		c-0.508-3.469-1.237-6.921-0.822-10.462C93.588,39.978,94.908,38.438,95.101,36.428z M116.138,48.508
		c-0.196-1.778,1.337-3.328,0.679-5.166c-0.728-5.864-5.225-9.034-12.927-9.112c-3.181-0.032-8.681,5.528-9.164,9.262
		c-0.348,2.193-0.09,4.274,1.125,6.181c-0.268,1.193,0.347,1.738,1.427,1.94c6.363,7.911,14.432,5.077,17.451-0.041
		C115.565,50.72,116.243,49.794,116.138,48.508z"/>
	<path fill-rule="evenodd" clip-rule="evenodd" fill="#1A1A1B" d="M23.091,44.68c0.493-2.51,2.501-3.477,4.517-4.436
		c1.006,0.766,2.021,0.397,3.134,0.195c3.477-0.631,6.838-0.085,10.04,1.42c1.872,0.88,2.391,3.525,4.812,3.69l0.013-0.007
		c0.91,4.755,2.536,9.51-0.007,14.263c-0.252,0.701-0.504,1.402-0.756,2.104c-0.422,1.071-1.296,1.728-2.182,2.373
		c-0.49,0.036-1.083-0.096-1.456,0.132c-6.662,4.07-12.477,2.063-17.965-2.432c-0.178-0.85-0.532-1.52-1.546-1.515l-0.01,0.015
		c-0.508-3.468-1.236-6.921-0.821-10.462C21.578,48.229,22.898,46.689,23.091,44.68z M23.841,57.925
		c-0.267,1.193,0.347,1.738,1.428,1.939c6.362,7.911,14.432,5.077,17.451-0.04c0.836-0.854,1.514-1.779,1.409-3.065
		c-0.196-1.778,1.337-3.328,0.679-5.166c-0.728-5.864-5.225-9.033-12.928-9.112c-3.18-0.032-8.681,5.528-9.164,9.262
		C22.368,53.937,22.625,56.018,23.841,57.925z"/>
	<path fill-rule="evenodd" clip-rule="evenodd" fill="#444446" d="M23.239,61.981c5.488,4.496,11.302,6.503,17.964,2.433
		c0.373-0.228,0.966-0.096,1.456-0.132c0.03,0.532,0.061,1.064,0.092,1.596c-2.989,0.698-5.091,3.519-8.379,3.504
		c-2.617-2.31-6.036-1.989-9.116-2.779l0.047,0.047c0.083-1.71-1.126-1.64-2.275-1.653c-1.056-0.583-1.479-1.667-2.075-2.614
		c0.24-0.136,0.48-0.271,0.721-0.407C22.196,61.977,22.717,61.979,23.239,61.981z"/>
	<path fill-rule="evenodd" clip-rule="evenodd" fill="#444446" d="M16.488,102.487c5.488,4.495,11.302,6.502,17.964,2.433
		c0.373-0.228,0.966-0.096,1.456-0.132c0.031,0.532,0.061,1.064,0.092,1.596c-2.989,0.698-5.091,3.519-8.379,3.503
		c-2.617-2.31-6.036-1.989-9.116-2.779l0.047,0.047c0.083-1.71-1.126-1.64-2.275-1.653c-1.056-0.582-1.478-1.667-2.075-2.614
		c0.24-0.135,0.48-0.271,0.721-0.407C15.445,102.482,15.966,102.484,16.488,102.487z"/>
	<path fill-rule="evenodd" clip-rule="evenodd" fill="#444446" d="M87.748,93.485c5.488,4.496,11.302,6.502,17.964,2.433
		c0.373-0.228,0.965-0.096,1.456-0.132c0.031,0.532,0.061,1.064,0.092,1.596c-2.989,0.698-5.091,3.519-8.378,3.504
		c-2.617-2.31-6.037-1.989-9.117-2.779l0.047,0.047c0.083-1.71-1.126-1.64-2.275-1.653c-1.056-0.583-1.478-1.667-2.075-2.614
		c0.24-0.136,0.48-0.271,0.721-0.407C86.705,93.481,87.226,93.483,87.748,93.485z"/>
	<path fill-rule="evenodd" clip-rule="evenodd" fill="#444446" d="M50.993,87.484c5.487,4.496,11.302,6.503,17.964,2.433
		c0.373-0.228,0.966-0.096,1.456-0.132c0.031,0.532,0.062,1.064,0.092,1.596c-2.99,0.698-5.091,3.519-8.378,3.504
		c-2.617-2.31-6.037-1.989-9.117-2.779l0.047,0.047c0.083-1.71-1.126-1.64-2.275-1.653c-1.056-0.582-1.479-1.667-2.075-2.614
		c0.24-0.136,0.48-0.271,0.721-0.407C49.95,87.48,50.471,87.482,50.993,87.484z"/>
	<path fill-rule="evenodd" clip-rule="evenodd" fill="#444446" d="M95.249,53.73c5.488,4.496,11.302,6.502,17.964,2.433
		c0.373-0.228,0.965-0.096,1.456-0.132c0.031,0.532,0.061,1.064,0.092,1.596c-2.989,0.698-5.091,3.52-8.378,3.503
		c-2.617-2.31-6.037-1.989-9.117-2.779l0.047,0.047c0.083-1.71-1.126-1.64-2.275-1.653c-1.056-0.583-1.478-1.667-2.075-2.615
		c0.24-0.135,0.48-0.271,0.721-0.407C94.206,53.726,94.727,53.728,95.249,53.73z"/>
	<path fill-rule="evenodd" clip-rule="evenodd" fill="#4A4A4C" d="M110.102,77.054c-2.42-0.165-2.939-2.81-4.812-3.69
		c-3.201-1.506-6.563-2.052-10.04-1.42c-1.113,0.202-2.127,0.571-3.134-0.196c0.55-1.39,1.788-1.789,3.066-2.129
		c2.547,1.339,5.271,0.369,7.902,0.601l0.177-0.091l0.136,0.146c0.378,0.756,1.073,0.695,1.75,0.68
		c2.21,0.504,3.773,1.892,5.035,3.692C110.156,75.448,110.129,76.251,110.102,77.054z"/>
	<path fill-rule="evenodd" clip-rule="evenodd" fill="#4A4A4C" d="M45.593,45.55c-2.42-0.165-2.939-2.81-4.812-3.69
		c-3.201-1.506-6.563-2.052-10.04-1.42c-1.113,0.202-2.127,0.571-3.134-0.195c0.55-1.39,1.788-1.789,3.066-2.13
		c2.547,1.339,5.271,0.369,7.902,0.601l0.177-0.092l0.136,0.146c0.378,0.756,1.073,0.695,1.75,0.68
		c2.21,0.504,3.773,1.892,5.035,3.692C45.647,43.943,45.62,44.747,45.593,45.55z"/>
	<path fill-rule="evenodd" clip-rule="evenodd" fill="#4A4A4C" d="M38.842,86.055c-2.42-0.165-2.939-2.81-4.812-3.69
		c-3.201-1.506-6.563-2.052-10.04-1.42c-1.113,0.201-2.127,0.57-3.134-0.196c0.55-1.39,1.788-1.789,3.066-2.129
		c2.547,1.339,5.271,0.368,7.902,0.601l0.177-0.092l0.136,0.146c0.378,0.756,1.073,0.695,1.75,0.68
		c2.21,0.505,3.773,1.892,5.035,3.692C38.896,84.449,38.869,85.252,38.842,86.055z"/>
	<path fill-rule="evenodd" clip-rule="evenodd" fill="#4A4A4C" d="M117.603,37.299c-2.42-0.165-2.939-2.81-4.812-3.69
		c-3.201-1.506-6.563-2.052-10.04-1.42c-1.113,0.201-2.127,0.57-3.134-0.196c0.55-1.39,1.788-1.789,3.066-2.129
		c2.547,1.339,5.271,0.369,7.902,0.601l0.177-0.091l0.136,0.146c0.378,0.756,1.073,0.695,1.75,0.68
		c2.21,0.504,3.773,1.892,5.035,3.691C117.657,35.692,117.63,36.496,117.603,37.299z"/>
	<path fill-rule="evenodd" clip-rule="evenodd" fill="#4A4A4C" d="M73.347,71.053c-2.42-0.165-2.939-2.81-4.812-3.69
		c-3.201-1.506-6.563-2.052-10.04-1.42c-1.113,0.202-2.127,0.571-3.134-0.195c0.55-1.39,1.788-1.789,3.066-2.129
		c2.547,1.339,5.271,0.368,7.902,0.601l0.177-0.092l0.136,0.146c0.378,0.756,1.073,0.695,1.75,0.68
		c2.21,0.505,3.774,1.892,5.035,3.692C73.401,69.447,73.374,70.25,73.347,71.053z"/>
	<path fill-rule="evenodd" clip-rule="evenodd" fill="#353637" d="M72.596,87.412c0.252-0.701,0.504-1.402,0.757-2.104
		c3.234-1.803,3.222-4.818,2.78-7.867c-0.312-2.151-1.38-4.167-1.25-6.416l0.177-0.157c3.448,4.322,3.961,11.65-0.341,16.531
		C74.011,87.403,73.303,87.408,72.596,87.412z"/>
	<path fill-rule="evenodd" clip-rule="evenodd" fill="#353637" d="M109.351,93.413c0.252-0.701,0.504-1.402,0.756-2.104
		c3.234-1.804,3.222-4.818,2.78-7.867c-0.312-2.151-1.38-4.167-1.251-6.416l0.177-0.158c3.448,4.323,3.961,11.65-0.341,16.532
		C110.766,93.404,110.058,93.409,109.351,93.413z"/>
	<path fill-rule="evenodd" clip-rule="evenodd" fill="#353637" d="M38.091,102.414c0.252-0.701,0.504-1.402,0.756-2.104
		c3.234-1.803,3.222-4.817,2.78-7.867c-0.312-2.15-1.38-4.167-1.25-6.416l0.177-0.157c3.448,4.323,3.961,11.65-0.341,16.532
		C39.506,102.405,38.798,102.41,38.091,102.414z"/>
	<path fill-rule="evenodd" clip-rule="evenodd" fill="#353637" d="M116.852,53.657c0.252-0.701,0.504-1.402,0.756-2.104
		c3.234-1.804,3.222-4.818,2.78-7.868c-0.312-2.15-1.38-4.167-1.251-6.415l0.177-0.158c3.448,4.323,3.961,11.65-0.341,16.531
		C118.267,53.648,117.559,53.653,116.852,53.657z"/>
	<path fill-rule="evenodd" clip-rule="evenodd" fill="#353637" d="M44.842,61.909c0.252-0.701,0.504-1.402,0.757-2.104
		c3.234-1.803,3.222-4.818,2.78-7.867c-0.312-2.151-1.38-4.167-1.25-6.416l0.177-0.158c3.448,4.323,3.961,11.65-0.341,16.532
		C46.257,61.9,45.549,61.904,44.842,61.909z"/>
	<path fill-rule="evenodd" clip-rule="evenodd" fill="#444446" d="M87.6,76.184c-0.192,2.01-1.513,3.549-2.23,5.34
		c-2.431,2.378-2.111,6.452,0.821,10.462l0.01-0.015c-0.006,0.502-0.012,1.005-0.018,1.508c-0.24,0.136-0.48,0.271-0.721,0.407
		c-3.84-5.854-3.824-11.211,0.022-16.498C86.023,76.647,86.596,76.063,87.6,76.184z"/>
	<path fill-rule="evenodd" clip-rule="evenodd" fill="#444446" d="M16.34,85.185c-0.192,2.01-1.513,3.549-2.23,5.34
		c-2.431,2.378-2.111,6.452,0.821,10.462l0.01-0.015c-0.006,0.502-0.012,1.005-0.018,1.507c-0.24,0.136-0.48,0.272-0.721,0.407
		c-3.84-5.854-3.824-11.21,0.022-16.498C14.764,85.649,15.336,85.064,16.34,85.185z"/>
	<path fill-rule="evenodd" clip-rule="evenodd" fill="#444446" d="M95.101,36.428c-0.192,2.01-1.513,3.549-2.23,5.34
		c-2.431,2.378-2.111,6.452,0.821,10.462l0.01-0.015c-0.006,0.502-0.012,1.005-0.018,1.507c-0.24,0.136-0.48,0.272-0.721,0.407
		c-3.84-5.854-3.824-11.211,0.022-16.498C93.524,36.892,94.097,36.308,95.101,36.428z"/>
	<path fill-rule="evenodd" clip-rule="evenodd" fill="#444446" d="M50.845,70.183c-0.193,2.01-1.513,3.549-2.23,5.34
		c-2.431,2.379-2.111,6.452,0.821,10.462l0.01-0.015c-0.006,0.503-0.012,1.005-0.018,1.508c-0.241,0.136-0.48,0.271-0.721,0.407
		c-3.84-5.854-3.824-11.21,0.022-16.498C49.268,70.647,49.841,70.062,50.845,70.183z"/>
	<path fill-rule="evenodd" clip-rule="evenodd" fill="#444446" d="M23.091,44.68c-0.193,2.01-1.513,3.549-2.23,5.34
		c-2.431,2.378-2.111,6.452,0.821,10.462l0.01-0.015c-0.006,0.502-0.012,1.005-0.018,1.508c-0.24,0.136-0.48,0.271-0.721,0.407
		c-3.84-5.854-3.824-11.21,0.022-16.498C21.515,45.143,22.087,44.559,23.091,44.68z"/>
	<path fill-rule="evenodd" clip-rule="evenodd" fill="#353637" d="M25.256,66.603c3.08,0.791,6.5,0.47,9.116,2.779
		C30.915,69.83,27.917,68.769,25.256,66.603z"/>
	<path fill-rule="evenodd" clip-rule="evenodd" fill="#353637" d="M53.01,92.106c3.08,0.791,6.5,0.47,9.117,2.779
		C58.668,95.333,55.671,94.272,53.01,92.106z"/>
	<path fill-rule="evenodd" clip-rule="evenodd" fill="#353637" d="M89.765,98.107c3.08,0.791,6.5,0.469,9.117,2.779
		C95.424,101.334,92.426,100.273,89.765,98.107z"/>
	<path fill-rule="evenodd" clip-rule="evenodd" fill="#353637" d="M97.266,58.352c3.08,0.79,6.5,0.469,9.117,2.779
		C102.925,61.579,99.927,60.518,97.266,58.352z"/>
	<path fill-rule="evenodd" clip-rule="evenodd" fill="#353637" d="M18.505,107.108c3.08,0.791,6.5,0.47,9.116,2.779
		C24.164,110.335,21.166,109.274,18.505,107.108z"/>
	<path fill-rule="evenodd" clip-rule="evenodd" fill="#8E8E90" d="M116.852,53.657c0.707-0.004,1.415-0.009,2.122-0.013
		c-0.337,2.456-2.191,3.308-4.213,3.983c-0.031-0.532-0.061-1.064-0.092-1.596C115.555,55.385,116.429,54.729,116.852,53.657z"/>
	<path fill-rule="evenodd" clip-rule="evenodd" fill="#8E8E90" d="M72.596,87.412c0.708-0.004,1.415-0.009,2.122-0.013
		c-0.337,2.456-2.191,3.308-4.212,3.982c-0.031-0.532-0.062-1.064-0.092-1.596C71.299,89.14,72.173,88.484,72.596,87.412z"/>
	<path fill-rule="evenodd" clip-rule="evenodd" fill="#8E8E90" d="M44.842,61.909c0.708-0.004,1.415-0.009,2.123-0.013
		c-0.337,2.456-2.191,3.308-4.213,3.982c-0.031-0.532-0.062-1.064-0.092-1.596C43.545,63.637,44.419,62.98,44.842,61.909z"/>
	<path fill-rule="evenodd" clip-rule="evenodd" fill="#8E8E90" d="M109.351,93.413c0.707-0.004,1.415-0.009,2.122-0.012
		c-0.337,2.456-2.191,3.307-4.213,3.982c-0.031-0.532-0.061-1.064-0.092-1.596C108.054,95.141,108.928,94.484,109.351,93.413z"/>
	<path fill-rule="evenodd" clip-rule="evenodd" fill="#8E8E90" d="M38.091,102.414c0.707-0.004,1.415-0.009,2.122-0.012
		c-0.337,2.455-2.191,3.307-4.213,3.982c-0.031-0.532-0.061-1.064-0.092-1.596C36.794,104.142,37.668,103.486,38.091,102.414z"/>
	<path fill-rule="evenodd" clip-rule="evenodd" fill="#2B2C2C" d="M31.826,79.22c-2.632-0.232-5.355,0.738-7.902-0.601
		C26.561,78.778,29.29,77.729,31.826,79.22z"/>
	<path fill-rule="evenodd" clip-rule="evenodd" fill="#2B2C2C" d="M110.586,30.463c-2.632-0.232-5.355,0.738-7.902-0.601
		C105.321,30.021,108.05,28.972,110.586,30.463z"/>
	<path fill-rule="evenodd" clip-rule="evenodd" fill="#2B2C2C" d="M66.33,64.218c-2.631-0.232-5.354,0.738-7.902-0.601
		C61.065,63.776,63.794,62.727,66.33,64.218z"/>
	<path fill-rule="evenodd" clip-rule="evenodd" fill="#2B2C2C" d="M103.085,70.219c-2.632-0.232-5.355,0.739-7.902-0.601
		C97.82,69.776,100.549,68.728,103.085,70.219z"/>
	<path fill-rule="evenodd" clip-rule="evenodd" fill="#2B2C2C" d="M38.576,38.715c-2.631-0.232-5.354,0.738-7.902-0.601
		C33.312,38.272,36.041,37.223,38.576,38.715z"/>
	<path fill-rule="evenodd" clip-rule="evenodd" fill="#353637" d="M23.028,64.996c1.149,0.013,2.359-0.057,2.275,1.653
		C24.367,66.345,23.506,65.933,23.028,64.996z"/>
	<path fill-rule="evenodd" clip-rule="evenodd" fill="#353637" d="M38.842,86.055c0.027-0.803,0.054-1.606,0.082-2.409
		c0.818,0.54,1.563,1.134,1.631,2.224l-0.177,0.157c-0.508,0.007-1.015,0.013-1.522,0.021L38.842,86.055z"/>
	<path fill-rule="evenodd" clip-rule="evenodd" fill="#353637" d="M87.537,96.5c1.149,0.013,2.359-0.057,2.275,1.653
		C88.875,97.849,88.016,97.438,87.537,96.5z"/>
	<path fill-rule="evenodd" clip-rule="evenodd" fill="#353637" d="M45.593,45.55c0.027-0.803,0.054-1.606,0.082-2.409
		c0.818,0.54,1.563,1.134,1.631,2.224l-0.177,0.158c-0.508,0.007-1.015,0.013-1.522,0.021L45.593,45.55z"/>
	<path fill-rule="evenodd" clip-rule="evenodd" fill="#353637" d="M110.102,77.054c0.027-0.803,0.054-1.606,0.082-2.409
		c0.818,0.54,1.563,1.134,1.631,2.224l-0.177,0.158c-0.508,0.006-1.015,0.013-1.522,0.021L110.102,77.054z"/>
	<path fill-rule="evenodd" clip-rule="evenodd" fill="#353637" d="M16.277,105.501c1.149,0.013,2.359-0.057,2.275,1.653
		C17.616,106.85,16.755,106.438,16.277,105.501z"/>
	<path fill-rule="evenodd" clip-rule="evenodd" fill="#353637" d="M117.603,37.299c0.027-0.803,0.054-1.606,0.082-2.41
		c0.818,0.54,1.563,1.134,1.631,2.224l-0.177,0.158c-0.508,0.006-1.015,0.013-1.522,0.021L117.603,37.299z"/>
	<path fill-rule="evenodd" clip-rule="evenodd" fill="#353637" d="M95.038,56.745c1.149,0.013,2.359-0.057,2.275,1.653
		C96.376,58.094,95.517,57.682,95.038,56.745z"/>
	<path fill-rule="evenodd" clip-rule="evenodd" fill="#353637" d="M50.782,90.5c1.149,0.013,2.359-0.057,2.275,1.653
		C52.121,91.848,51.26,91.437,50.782,90.5z"/>
	<path fill-rule="evenodd" clip-rule="evenodd" fill="#353637" d="M73.347,71.053c0.027-0.803,0.054-1.606,0.082-2.409
		c0.818,0.54,1.562,1.134,1.631,2.224l-0.177,0.157c-0.508,0.007-1.015,0.013-1.523,0.021L73.347,71.053z"/>
	<path fill-rule="evenodd" clip-rule="evenodd" fill="#2B2C2C" d="M112.649,31.198c-0.677,0.015-1.373,0.076-1.75-0.68
		C111.581,30.492,112.266,30.457,112.649,31.198z"/>
	<path fill-rule="evenodd" clip-rule="evenodd" fill="#2B2C2C" d="M105.148,70.953c-0.677,0.015-1.373,0.076-1.75-0.68
		C104.08,70.248,104.765,70.212,105.148,70.953z"/>
	<path fill-rule="evenodd" clip-rule="evenodd" fill="#2B2C2C" d="M40.64,39.449c-0.677,0.015-1.373,0.076-1.75-0.68
		C39.571,38.743,40.256,38.708,40.64,39.449z"/>
	<path fill-rule="evenodd" clip-rule="evenodd" fill="#2B2C2C" d="M68.393,64.952c-0.677,0.015-1.372,0.076-1.75-0.68
		C67.325,64.247,68.009,64.211,68.393,64.952z"/>
	<path fill-rule="evenodd" clip-rule="evenodd" fill="#2B2C2C" d="M33.889,79.954c-0.677,0.016-1.373,0.076-1.75-0.68
		C32.82,79.249,33.505,79.213,33.889,79.954z"/>
	<path fill-rule="evenodd" clip-rule="evenodd" fill="#850B03" d="M81.594,38.951c0.104,6.733-5.902,12.87-12.834,13.112
		c-6.382,0.223-13.194-6.464-13.188-12.947c0.006-6.798,5.972-12.807,12.958-13.051C75.133,25.834,81.488,32.102,81.594,38.951z
		 M62.857,29.743l0.029-0.02c-0.617-0.049-1.205-0.038-1.445,0.696c-1.108,2.396-4.246,3.648-3.876,6.877
		c-0.066,2.589-0.358,5.221,1.432,7.452c5.939,8.892,17.068,6.331,19.756-0.8c0.056-0.193,0.079-0.389,0.07-0.59
		c0.203-0.48,0.406-0.96,0.608-1.441c1.054-1.808,1.123-3.619,0.017-5.434l0.005-0.006c0.012-0.838,0.104-1.703-0.756-2.248
		l-0.008-0.012c-0.248-0.245-0.495-0.488-0.743-0.733l-0.014-0.029c0.187-1.141-0.537-1.491-1.453-1.674
		c-0.792-0.694-1.583-1.388-2.375-2.081c-3.074-2.619-6.325-2.817-9.744-0.711l0.024-0.018
		C63.699,28.882,63.108,28.977,62.857,29.743z"/>
	<path fill-rule="evenodd" clip-rule="evenodd" fill="#4A4A4C" d="M50.471,77.248c0.481-3.734,5.981-9.295,9.162-9.263
		c7.703,0.078,12.2,3.248,12.928,9.112c-1.736-0.81-3.129,0.721-4.75,0.698c-1.371-0.188-2.019-1.356-2.919-2.172
		c-2.555-2.314-5.648-2.006-7.613,0.788c-0.481,0.685-0.333,1.756-1.309,2.141C54.132,78.135,52.709,75.975,50.471,77.248z"/>
	<path fill-rule="evenodd" clip-rule="evenodd" fill="#505052" d="M70.473,85.328c-3.019,5.117-11.088,7.951-17.45,0.04
		c2.534,0.406,4.97,0.976,6.495-2.181c0.638-1.319,2.639-1.445,3.53-0.219C65.034,85.7,67.601,85.809,70.473,85.328z"/>
	<path fill-rule="evenodd" clip-rule="evenodd" fill="#6A6B6C" d="M70.473,85.328c-2.873,0.48-5.439,0.372-7.425-2.36
		c-0.891-1.226-2.892-1.1-3.53,0.219c-1.525,3.156-3.961,2.586-6.495,2.181c-1.081-0.201-1.695-0.746-1.428-1.939
		c1.769-1.227,4.587-0.858,5.396-3.547c2.936,0.976,5.873,1.102,8.813,0.015c1.228,2.84,3.456,3.111,6.079,2.366
		C71.987,83.549,71.309,84.475,70.473,85.328z"/>
	<path fill-rule="evenodd" clip-rule="evenodd" fill="#8E8E90" d="M56.991,79.882c-0.808,2.689-3.626,2.32-5.396,3.547
		c-1.216-1.908-1.474-3.989-1.125-6.181c2.239-1.273,3.662,0.887,5.5,1.304C56.311,78.995,56.651,79.438,56.991,79.882z"/>
	<path fill-rule="evenodd" clip-rule="evenodd" fill="#8E8E90" d="M71.882,82.263c-2.623,0.745-4.851,0.474-6.079-2.366
		c0.669-0.7,1.338-1.401,2.008-2.102c1.621,0.023,3.014-1.508,4.75-0.698C73.219,78.935,71.687,80.485,71.882,82.263z"/>
	<path fill-rule="evenodd" clip-rule="evenodd" fill="#4A4A4C" d="M73.359,71.046c0.508-0.007,1.015-0.014,1.523-0.021
		c-0.129,2.249,0.939,4.265,1.25,6.416c0.442,3.049,0.454,6.064-2.78,7.867C75.896,80.556,74.269,75.801,73.359,71.046z"/>
	<path fill-rule="evenodd" clip-rule="evenodd" fill="#4A4A4C" d="M49.436,85.985c-2.932-4.01-3.251-8.083-0.821-10.462
		C48.199,79.064,48.928,82.517,49.436,85.985z"/>
	<path fill-rule="evenodd" clip-rule="evenodd" fill="#4A4A4C" d="M49.428,87.478c0.006-0.502,0.012-1.005,0.018-1.508
		c1.015-0.004,1.369,0.666,1.546,1.515C50.471,87.482,49.95,87.48,49.428,87.478z"/>
	<path fill-rule="evenodd" clip-rule="evenodd" fill="#4A4A4C" d="M15.966,92.25c0.481-3.734,5.982-9.295,9.163-9.263
		c7.702,0.078,12.2,3.248,12.927,9.112c-1.736-0.811-3.129,0.721-4.75,0.698c-1.371-0.188-2.019-1.356-2.919-2.172
		c-2.555-2.314-5.648-2.006-7.613,0.788c-0.481,0.685-0.333,1.756-1.309,2.141C19.628,93.137,18.204,90.977,15.966,92.25z"/>
	<path fill-rule="evenodd" clip-rule="evenodd" fill="#505052" d="M35.969,100.33c-3.019,5.117-11.089,7.952-17.451,0.04
		c2.534,0.406,4.971,0.976,6.495-2.181c0.638-1.319,2.64-1.445,3.531-0.219C30.529,100.702,33.096,100.811,35.969,100.33z"/>
	<path fill-rule="evenodd" clip-rule="evenodd" fill="#6A6B6C" d="M35.969,100.33c-2.873,0.48-5.439,0.372-7.425-2.36
		c-0.891-1.226-2.893-1.1-3.531,0.219c-1.524,3.156-3.961,2.586-6.495,2.181c-1.081-0.201-1.695-0.746-1.428-1.939
		c1.769-1.227,4.587-0.858,5.396-3.547c2.936,0.977,5.873,1.102,8.812,0.015c1.228,2.84,3.456,3.111,6.079,2.366
		C37.482,98.551,36.804,99.477,35.969,100.33z"/>
	<path fill-rule="evenodd" clip-rule="evenodd" fill="#8E8E90" d="M22.486,94.884c-0.809,2.689-3.627,2.32-5.396,3.547
		c-1.216-1.908-1.474-3.989-1.125-6.18c2.239-1.274,3.663,0.887,5.5,1.304C21.806,93.998,22.146,94.44,22.486,94.884z"/>
	<path fill-rule="evenodd" clip-rule="evenodd" fill="#8E8E90" d="M37.377,97.265c-2.624,0.745-4.851,0.474-6.079-2.366
		c0.669-0.7,1.339-1.401,2.008-2.102c1.621,0.023,3.014-1.508,4.75-0.698C38.714,93.938,37.182,95.487,37.377,97.265z"/>
	<path fill-rule="evenodd" clip-rule="evenodd" fill="#4A4A4C" d="M38.854,86.048c0.507-0.007,1.015-0.014,1.522-0.021
		c-0.129,2.249,0.939,4.265,1.25,6.416c0.442,3.05,0.455,6.064-2.78,7.867C41.391,95.558,39.764,90.803,38.854,86.048z"/>
	<path fill-rule="evenodd" clip-rule="evenodd" fill="#4A4A4C" d="M14.931,100.987c-2.933-4.01-3.252-8.083-0.821-10.462
		C13.694,94.066,14.423,97.519,14.931,100.987z"/>
	<path fill-rule="evenodd" clip-rule="evenodd" fill="#4A4A4C" d="M14.923,102.48c0.006-0.502,0.012-1.005,0.018-1.507
		c1.015-0.004,1.369,0.665,1.546,1.515C15.966,102.484,15.445,102.482,14.923,102.48z"/>
	<path fill-rule="evenodd" clip-rule="evenodd" fill="#4A4A4C" d="M87.226,83.249c0.481-3.734,5.982-9.295,9.163-9.263
		c7.702,0.078,12.2,3.248,12.927,9.112c-1.736-0.81-3.129,0.721-4.75,0.698c-1.371-0.188-2.019-1.356-2.919-2.172
		c-2.555-2.314-5.648-2.006-7.613,0.788c-0.481,0.685-0.333,1.756-1.309,2.141C90.888,84.136,89.464,81.975,87.226,83.249z"/>
	<path fill-rule="evenodd" clip-rule="evenodd" fill="#505052" d="M107.229,91.329c-3.019,5.118-11.089,7.952-17.45,0.04
		c2.534,0.406,4.97,0.976,6.495-2.181c0.638-1.319,2.64-1.445,3.531-0.219C101.789,91.701,104.355,91.81,107.229,91.329z"/>
	<path fill-rule="evenodd" clip-rule="evenodd" fill="#6A6B6C" d="M107.229,91.329c-2.873,0.481-5.439,0.372-7.425-2.36
		c-0.891-1.227-2.893-1.101-3.531,0.219c-1.524,3.157-3.961,2.586-6.495,2.181c-1.082-0.201-1.696-0.746-1.428-1.939
		c1.769-1.227,4.587-0.857,5.396-3.547c2.936,0.977,5.873,1.102,8.812,0.016c1.228,2.839,3.456,3.111,6.079,2.366
		C108.742,89.549,108.064,90.476,107.229,91.329z"/>
	<path fill-rule="evenodd" clip-rule="evenodd" fill="#8E8E90" d="M93.746,85.882c-0.809,2.689-3.627,2.32-5.396,3.547
		c-1.215-1.907-1.474-3.988-1.125-6.18c2.238-1.274,3.662,0.887,5.5,1.304C93.066,84.996,93.406,85.439,93.746,85.882z"/>
	<path fill-rule="evenodd" clip-rule="evenodd" fill="#8E8E90" d="M108.637,88.264c-2.624,0.745-4.851,0.473-6.079-2.366
		c0.669-0.7,1.339-1.401,2.008-2.102c1.621,0.022,3.014-1.508,4.75-0.698C109.974,84.936,108.441,86.486,108.637,88.264z"/>
	<path fill-rule="evenodd" clip-rule="evenodd" fill="#4A4A4C" d="M110.114,77.047c0.507-0.007,1.015-0.014,1.522-0.021
		c-0.129,2.249,0.939,4.265,1.251,6.416c0.441,3.049,0.454,6.063-2.78,7.867C112.65,86.557,111.024,81.802,110.114,77.047z"/>
	<path fill-rule="evenodd" clip-rule="evenodd" fill="#4A4A4C" d="M86.191,91.986c-2.933-4.01-3.252-8.083-0.821-10.462
		C84.954,85.065,85.683,88.518,86.191,91.986z"/>
	<path fill-rule="evenodd" clip-rule="evenodd" fill="#4A4A4C" d="M86.183,93.479c0.006-0.503,0.012-1.005,0.018-1.508
		c1.015-0.004,1.369,0.665,1.546,1.515C87.226,93.483,86.705,93.481,86.183,93.479z"/>
	<path fill-rule="evenodd" clip-rule="evenodd" fill="#4A4A4C" d="M94.727,43.494c0.482-3.734,5.982-9.295,9.163-9.263
		c7.703,0.078,12.2,3.248,12.927,9.112c-1.736-0.81-3.129,0.721-4.75,0.698c-1.371-0.188-2.019-1.356-2.919-2.172
		c-2.555-2.314-5.647-2.006-7.613,0.789c-0.481,0.685-0.333,1.756-1.309,2.14C98.389,44.381,96.965,42.22,94.727,43.494z"/>
	<path fill-rule="evenodd" clip-rule="evenodd" fill="#505052" d="M114.729,51.573c-3.019,5.118-11.088,7.952-17.45,0.04
		c2.534,0.406,4.97,0.976,6.495-2.181c0.638-1.319,2.64-1.445,3.531-0.219C109.29,51.945,111.856,52.054,114.729,51.573z"/>
	<path fill-rule="evenodd" clip-rule="evenodd" fill="#6A6B6C" d="M114.729,51.573c-2.873,0.48-5.439,0.372-7.425-2.36
		c-0.891-1.227-2.893-1.101-3.531,0.219c-1.524,3.156-3.961,2.586-6.495,2.181c-1.081-0.201-1.696-0.746-1.428-1.939
		c1.769-1.227,4.587-0.858,5.396-3.547c2.936,0.977,5.873,1.102,8.812,0.016c1.228,2.839,3.456,3.111,6.079,2.366
		C116.243,49.794,115.565,50.72,114.729,51.573z"/>
	<path fill-rule="evenodd" clip-rule="evenodd" fill="#8E8E90" d="M101.247,46.127c-0.809,2.689-3.627,2.32-5.396,3.547
		c-1.215-1.907-1.474-3.988-1.125-6.18c2.238-1.274,3.662,0.887,5.5,1.304C100.567,45.241,100.907,45.684,101.247,46.127z"/>
	<path fill-rule="evenodd" clip-rule="evenodd" fill="#8E8E90" d="M116.138,48.508c-2.623,0.745-4.851,0.474-6.079-2.366
		c0.67-0.701,1.339-1.401,2.008-2.102c1.621,0.022,3.014-1.508,4.75-0.698C117.475,45.181,115.942,46.73,116.138,48.508z"/>
	<path fill-rule="evenodd" clip-rule="evenodd" fill="#4A4A4C" d="M117.615,37.292c0.507-0.007,1.015-0.014,1.522-0.021
		c-0.129,2.249,0.939,4.265,1.251,6.415c0.441,3.05,0.454,6.064-2.78,7.868C120.151,46.801,118.525,42.046,117.615,37.292z"/>
	<path fill-rule="evenodd" clip-rule="evenodd" fill="#4A4A4C" d="M93.692,52.23c-2.933-4.01-3.252-8.083-0.821-10.462
		C92.455,45.31,93.184,48.762,93.692,52.23z"/>
	<path fill-rule="evenodd" clip-rule="evenodd" fill="#4A4A4C" d="M93.684,53.723c0.006-0.502,0.012-1.005,0.018-1.507
		c1.014-0.004,1.368,0.665,1.546,1.515C94.727,53.728,94.206,53.726,93.684,53.723z"/>
	<path fill-rule="evenodd" clip-rule="evenodd" fill="#4A4A4C" d="M22.717,51.745c0.481-3.734,5.982-9.295,9.162-9.263
		c7.703,0.079,12.2,3.248,12.928,9.112c-1.736-0.81-3.129,0.721-4.75,0.698c-1.371-0.188-2.019-1.356-2.919-2.172
		c-2.555-2.314-5.648-2.006-7.613,0.788c-0.481,0.685-0.333,1.756-1.309,2.141C26.379,52.632,24.955,50.471,22.717,51.745z"/>
	<path fill-rule="evenodd" clip-rule="evenodd" fill="#505052" d="M42.719,59.825c-3.019,5.117-11.088,7.951-17.45,0.04
		c2.534,0.406,4.97,0.976,6.495-2.181c0.638-1.319,2.64-1.445,3.53-0.219C37.28,60.197,39.847,60.305,42.719,59.825z"/>
	<path fill-rule="evenodd" clip-rule="evenodd" fill="#6A6B6C" d="M42.719,59.825c-2.873,0.48-5.439,0.372-7.425-2.36
		c-0.891-1.227-2.892-1.1-3.53,0.219c-1.524,3.157-3.961,2.587-6.495,2.181c-1.082-0.201-1.696-0.746-1.428-1.939
		c1.769-1.227,4.587-0.858,5.396-3.547c2.936,0.976,5.873,1.102,8.813,0.015c1.228,2.84,3.456,3.111,6.079,2.366
		C44.233,58.045,43.555,58.971,42.719,59.825z"/>
	<path fill-rule="evenodd" clip-rule="evenodd" fill="#8E8E90" d="M29.237,54.378c-0.808,2.689-3.626,2.32-5.396,3.547
		c-1.216-1.908-1.474-3.989-1.125-6.181c2.239-1.274,3.663,0.887,5.5,1.304C28.557,53.492,28.897,53.935,29.237,54.378z"/>
	<path fill-rule="evenodd" clip-rule="evenodd" fill="#8E8E90" d="M44.128,56.76c-2.624,0.745-4.851,0.474-6.079-2.366
		c0.669-0.7,1.339-1.401,2.008-2.102c1.621,0.022,3.014-1.508,4.75-0.698C45.465,53.432,43.933,54.982,44.128,56.76z"/>
	<path fill-rule="evenodd" clip-rule="evenodd" fill="#4A4A4C" d="M45.605,45.542c0.507-0.007,1.015-0.014,1.522-0.021
		c-0.129,2.249,0.939,4.265,1.25,6.416c0.442,3.049,0.454,6.064-2.78,7.867C48.142,55.052,46.515,50.297,45.605,45.542z"/>
	<path fill-rule="evenodd" clip-rule="evenodd" fill="#4A4A4C" d="M21.682,60.481c-2.932-4.01-3.251-8.083-0.821-10.462
		C20.445,53.561,21.174,57.013,21.682,60.481z"/>
	<path fill-rule="evenodd" clip-rule="evenodd" fill="#4A4A4C" d="M21.674,61.975c0.006-0.502,0.012-1.005,0.018-1.508
		c1.015-0.004,1.369,0.665,1.546,1.515C22.717,61.979,22.196,61.977,21.674,61.975z"/>
	<path fill-rule="evenodd" clip-rule="evenodd" fill="#DF2A09" d="M57.564,37.296c-0.37-3.229,2.769-4.481,3.876-6.877
		c0.619,0.051,1.251,0.133,1.445-0.696l-0.029,0.02c0.661,0.045,1.347,0.139,1.526-0.771l-0.024,0.018
		c3.265,0,6.538-0.103,9.744,0.711c0.792,0.693,1.583,1.387,2.375,2.083c0.096,0.896,0.618,1.42,1.453,1.672l0.014,0.029
		c0.248,0.245,0.495,0.488,0.743,0.733l0.008,0.012c-0.034,0.846-0.211,1.739,0.756,2.248l-0.005,0.006
		c-0.035,0.222-0.046,0.444-0.035,0.667c-1.661-0.442-2.973,0.599-4.426,1.04c-1.008-3.407-3.502-5.325-6.833-5.177
		C65,33.153,63.148,35.42,62.843,38.69C61.117,38.102,59.513,37.047,57.564,37.296z"/>
	<path fill-rule="evenodd" clip-rule="evenodd" fill="#ED7862" d="M57.564,37.296c1.949-0.25,3.553,0.805,5.28,1.395
		c4.178,3.012,8.226,2.862,12.142-0.5c1.453-0.441,2.766-1.482,4.426-1.039c0.006,1.589,0.012,3.178,0.018,4.766
		c-0.202,0.48-0.405,0.961-0.609,1.441c-4.734-1.756-9.646-0.519-14.465-0.853c-1.415-0.098-2.723,0.283-3.695,1.429
		c-0.555,0.271-1.109,0.542-1.664,0.813C57.206,42.517,57.498,39.885,57.564,37.296z"/>
	<path fill-rule="evenodd" clip-rule="evenodd" fill="#DF2A09" d="M58.996,44.749c0.555-0.271,1.109-0.542,1.664-0.813
		c0.338,0.899,0.99,1.521,1.936,1.502c5.419-0.108,10.949,0.921,16.157-1.49C76.064,51.079,64.935,53.641,58.996,44.749z"/>
	<path fill-rule="evenodd" clip-rule="evenodd" fill="#D64F33" d="M78.752,43.949c-5.208,2.411-10.738,1.382-16.157,1.49
		c-0.945,0.019-1.598-0.604-1.936-1.502c0.973-1.146,2.281-1.528,3.696-1.43c4.819,0.334,9.731-0.903,14.465,0.853
		C78.831,43.56,78.808,43.756,78.752,43.949z"/>
	<path fill-rule="evenodd" clip-rule="evenodd" fill="#ED7862" d="M74.103,29.702c-3.206-0.814-6.479-0.711-9.744-0.711
		C67.778,26.884,71.029,27.083,74.103,29.702z"/>
	<path fill-rule="evenodd" clip-rule="evenodd" fill="#DC3516" d="M79.43,41.918c-0.006-1.588-0.012-3.177-0.018-4.766
		c-0.012-0.224,0-0.447,0.035-0.668C80.553,38.299,80.483,40.11,79.43,41.918z"/>
	<path fill-rule="evenodd" clip-rule="evenodd" fill="#DC3516" d="M79.452,36.478c-0.968-0.508-0.79-1.402-0.756-2.248
		C79.556,34.774,79.464,35.64,79.452,36.478z"/>
	<path fill-rule="evenodd" clip-rule="evenodd" fill="#DC3516" d="M77.931,33.457c-0.835-0.252-1.357-0.776-1.453-1.672
		C77.394,31.966,78.118,32.316,77.931,33.457z"/>
	<path fill-rule="evenodd" clip-rule="evenodd" fill="#ED7862" d="M62.886,29.723c-0.194,0.83-0.827,0.747-1.445,0.696
		C61.681,29.686,62.269,29.674,62.886,29.723z"/>
	<path fill-rule="evenodd" clip-rule="evenodd" fill="#ED7862" d="M64.383,28.972c-0.179,0.909-0.865,0.815-1.526,0.771
		C63.108,28.977,63.699,28.882,64.383,28.972z"/>
	<path fill-rule="evenodd" clip-rule="evenodd" fill="#DC3516" d="M78.688,34.218c-0.248-0.245-0.495-0.488-0.743-0.733
		C78.192,33.73,78.44,33.974,78.688,34.218z"/>
	<path fill-rule="evenodd" clip-rule="evenodd" fill="#1C1C1D" d="M67.811,77.795c-0.669,0.7-1.338,1.401-2.008,2.102
		c-2.939,1.086-5.877,0.961-8.813-0.015c-0.34-0.443-0.68-0.887-1.021-1.33c0.975-0.385,0.827-1.456,1.309-2.141
		c1.965-2.794,5.058-3.102,7.613-0.788C65.792,76.439,66.44,77.608,67.811,77.795z"/>
	<path fill-rule="evenodd" clip-rule="evenodd" fill="#1C1C1D" d="M33.306,92.797c-0.669,0.7-1.338,1.401-2.008,2.102
		c-2.939,1.086-5.876,0.961-8.812-0.015c-0.34-0.443-0.68-0.886-1.021-1.33c0.975-0.385,0.827-1.456,1.308-2.141
		c1.965-2.794,5.058-3.102,7.613-0.788C31.288,91.441,31.935,92.61,33.306,92.797z"/>
	<path fill-rule="evenodd" clip-rule="evenodd" fill="#1C1C1D" d="M104.566,83.796c-0.669,0.7-1.338,1.401-2.008,2.102
		c-2.939,1.086-5.876,0.961-8.812-0.016c-0.34-0.443-0.68-0.886-1.021-1.329c0.975-0.385,0.827-1.456,1.308-2.141
		c1.965-2.794,5.058-3.103,7.613-0.788C102.547,82.44,103.195,83.609,104.566,83.796z"/>
	<path fill-rule="evenodd" clip-rule="evenodd" fill="#1C1C1D" d="M112.067,44.041c-0.669,0.7-1.338,1.401-2.008,2.102
		c-2.939,1.086-5.876,0.961-8.812-0.016c-0.34-0.443-0.68-0.886-1.021-1.33c0.975-0.384,0.827-1.456,1.308-2.14
		c1.965-2.795,5.058-3.103,7.613-0.789C110.048,42.685,110.696,43.854,112.067,44.041z"/>
	<path fill-rule="evenodd" clip-rule="evenodd" fill="#1C1C1D" d="M40.057,52.292c-0.669,0.7-1.338,1.401-2.008,2.102
		c-2.939,1.086-5.876,0.961-8.813-0.015c-0.34-0.443-0.68-0.887-1.02-1.33c0.975-0.385,0.827-1.456,1.308-2.141
		c1.965-2.794,5.058-3.102,7.613-0.788C38.039,50.936,38.686,52.104,40.057,52.292z"/>
	<path fill-rule="evenodd" clip-rule="evenodd" fill="#AE2C0A" d="M74.986,38.191c-3.916,3.362-7.963,3.512-12.142,0.5
		c0.304-3.271,2.156-5.538,5.308-5.677C71.484,32.867,73.978,34.785,74.986,38.191z"/>
</g>
</svg>
