<?xml version="1.0" encoding="utf-8"?>
<!-- Generator: Adobe Illustrator 16.0.3, SVG Export Plug-In . SVG Version: 6.00 Build 0)  -->
<!DOCTYPE svg PUBLIC "-//W3C//DTD SVG 1.1//EN" "http://www.w3.org/Graphics/SVG/1.1/DTD/svg11.dtd">
<svg version="1.1" id="Capa_1" xmlns="http://www.w3.org/2000/svg" xmlns:xlink="http://www.w3.org/1999/xlink" x="0px" y="0px"
	 width="131.03px" height="130.03px" viewBox="0 0 131.03 130.03" enable-background="new 0 0 131.03 130.03" xml:space="preserve">
<g>
	<path fill-rule="evenodd" clip-rule="evenodd" fill="#FDFDFD" d="M66.64,119.022c-21.128,0-42.256-0.043-63.383,0.064
		c-2.239,0.012-2.694-0.451-2.688-2.689c0.09-33.754,0.09-67.509,0-101.264c-0.006-2.238,0.451-2.692,2.688-2.688
		c42.256,0.084,84.512,0.084,126.768,0c2.237-0.004,2.693,0.45,2.688,2.688c-0.09,33.754-0.09,67.509,0,101.264
		c0.006,2.238-0.449,2.701-2.688,2.689C108.896,118.979,87.768,119.022,66.64,119.022z M89.813,97.404l-0.047-0.047
		c2.661,2.166,5.659,3.228,9.117,2.779c3.288,0.016,5.389-2.805,8.378-3.503c2.021-0.675,3.875-1.527,4.213-3.983
		c4.302-4.881,3.789-12.208,0.341-16.531c-0.068-1.09-0.813-1.684-1.631-2.224c-1.261-1.8-2.824-3.188-5.035-3.692
		c-0.384-0.74-1.069-0.705-1.75-0.68l-0.136-0.146l-0.177,0.091c-2.536-1.491-5.265-0.442-7.902-0.601
		c-1.278,0.341-2.517,0.74-3.066,2.129c-2.016,0.959-4.023,1.927-4.517,4.436c-1.003-0.121-1.576,0.464-2.115,1.205
		c-3.846,5.287-3.862,10.644-0.022,16.498c0.597,0.947,1.019,2.032,2.075,2.615C88.016,96.687,88.875,97.099,89.813,97.404z
		 M97.313,57.648l-0.047-0.047c2.661,2.166,5.659,3.228,9.117,2.779c3.288,0.016,5.389-2.806,8.378-3.503
		c2.022-0.675,3.875-1.527,4.213-3.983c4.302-4.881,3.789-12.208,0.341-16.531c-0.068-1.09-0.813-1.684-1.631-2.224
		c-1.261-1.8-2.824-3.187-5.035-3.692c-0.384-0.74-1.069-0.705-1.75-0.68l-0.136-0.146l-0.177,0.092
		c-2.536-1.491-5.265-0.442-7.902-0.601c-1.278,0.341-2.517,0.739-3.066,2.129c-2.016,0.959-4.023,1.926-4.517,4.436
		c-1.003-0.121-1.576,0.464-2.115,1.205c-3.846,5.287-3.862,10.644-0.022,16.498c0.597,0.947,1.019,2.032,2.075,2.614
		C95.517,56.932,96.376,57.343,97.313,57.648z M18.553,106.405l-0.047-0.047c2.661,2.166,5.659,3.228,9.116,2.779
		c3.288,0.015,5.39-2.806,8.379-3.504c2.021-0.674,3.875-1.526,4.213-3.982c4.302-4.881,3.789-12.208,0.341-16.531
		c-0.068-1.09-0.813-1.684-1.631-2.224c-1.261-1.8-2.824-3.187-5.035-3.692c-0.384-0.741-1.069-0.706-1.75-0.68l-0.136-0.146
		l-0.177,0.092c-2.536-1.492-5.265-0.442-7.902-0.601c-1.279,0.34-2.517,0.74-3.066,2.129c-2.016,0.959-4.023,1.926-4.517,4.436
		c-1.003-0.121-1.576,0.464-2.115,1.204c-3.846,5.288-3.862,10.644-0.022,16.498c0.597,0.947,1.019,2.032,2.075,2.614
		C16.755,105.688,17.616,106.1,18.553,106.405z M59.809,51.647l-0.048-0.047c2.661,2.166,5.659,3.228,9.117,2.779
		c3.288,0.016,5.389-2.805,8.378-3.503c2.021-0.675,3.875-1.526,4.212-3.983c4.303-4.881,3.789-12.208,0.341-16.531
		c-0.069-1.09-0.813-1.684-1.631-2.224c-1.261-1.8-2.824-3.188-5.035-3.692c-0.384-0.741-1.068-0.706-1.75-0.68l-0.136-0.146
		l-0.177,0.091c-2.536-1.491-5.265-0.442-7.902-0.601c-1.279,0.341-2.517,0.74-3.066,2.129c-2.016,0.96-4.024,1.927-4.517,4.437
		c-1.003-0.121-1.577,0.463-2.115,1.204c-3.846,5.287-3.862,10.644-0.022,16.498c0.596,0.947,1.019,2.032,2.074,2.615
		C58.011,50.931,58.871,51.343,59.809,51.647z M53.058,91.403l-0.047-0.047c2.661,2.166,5.658,3.228,9.117,2.779
		c3.288,0.015,5.389-2.806,8.378-3.504c2.021-0.675,3.875-1.526,4.212-3.982c4.303-4.881,3.789-12.208,0.341-16.531
		c-0.069-1.09-0.813-1.684-1.631-2.224c-1.261-1.8-2.825-3.188-5.035-3.692c-0.384-0.741-1.068-0.706-1.75-0.68l-0.136-0.146
		l-0.177,0.092c-2.536-1.492-5.265-0.443-7.902-0.601c-1.279,0.341-2.517,0.74-3.066,2.129c-2.016,0.96-4.024,1.927-4.517,4.437
		c-1.003-0.121-1.577,0.463-2.115,1.204c-3.846,5.288-3.862,10.644-0.022,16.498c0.596,0.947,1.019,2.032,2.075,2.614
		C51.26,90.687,52.121,91.098,53.058,91.403z M33.417,37.992c-7.523-0.434-14.438,6.433-14.834,13.997
		c-0.424,8.088,6.281,15.482,14.57,16.068c7.978,0.564,15.704-6.059,16.331-13.795c0.352-4.337-0.681-8.23-3.504-11.417
		C42.509,38.929,38.344,36.302,33.417,37.992z"/>
	<path fill-rule="evenodd" clip-rule="evenodd" fill="#DC3516" d="M33.417,37.992c4.927-1.69,9.092,0.937,12.563,4.853
		c2.824,3.186,3.856,7.079,3.504,11.417c-0.627,7.737-8.353,14.36-16.331,13.795c-8.289-0.586-14.994-7.98-14.57-16.068
		C18.979,44.425,25.894,37.558,33.417,37.992z M47.09,52.654c0.026-6.828-6.199-13.161-12.865-13.087
		c-6.964,0.077-12.909,5.893-13.137,12.853c-0.209,6.391,6.489,13.193,12.967,13.168C40.849,65.563,47.065,59.394,47.09,52.654z"/>
	<path fill-rule="evenodd" clip-rule="evenodd" fill="#1A1A1B" d="M16.34,84.435c0.494-2.51,2.501-3.477,4.517-4.436
		c1.007,0.766,2.021,0.397,3.134,0.195c3.477-0.631,6.838-0.085,10.04,1.42c1.872,0.88,2.391,3.526,4.812,3.69l0.013-0.007
		c0.91,4.755,2.536,9.51-0.007,14.263c-0.252,0.701-0.504,1.402-0.756,2.103c-0.423,1.072-1.297,1.728-2.183,2.374
		c-0.49,0.036-1.083-0.096-1.456,0.132c-6.662,4.07-12.477,2.063-17.965-2.432c-0.178-0.85-0.532-1.52-1.546-1.515l-0.01,0.015
		c-0.508-3.468-1.237-6.921-0.821-10.462C14.827,87.984,16.147,86.445,16.34,84.435z M17.09,97.681
		c-0.267,1.193,0.347,1.738,1.428,1.939c6.362,7.911,14.432,5.077,17.451-0.04c0.835-0.854,1.513-1.779,1.409-3.065
		c-0.196-1.778,1.337-3.328,0.679-5.166c-0.728-5.864-5.225-9.033-12.927-9.112c-3.181-0.032-8.681,5.528-9.164,9.262
		C15.617,93.692,15.875,95.773,17.09,97.681z"/>
	<path fill-rule="evenodd" clip-rule="evenodd" fill="#1A1A1B" d="M87.6,75.434c0.494-2.509,2.501-3.477,4.517-4.436
		c1.007,0.766,2.021,0.397,3.134,0.196c3.477-0.631,6.838-0.086,10.04,1.42c1.873,0.88,2.391,3.525,4.812,3.69l0.013-0.007
		c0.91,4.754,2.536,9.509-0.007,14.263c-0.252,0.701-0.504,1.402-0.756,2.103c-0.423,1.072-1.297,1.728-2.183,2.374
		c-0.491,0.036-1.083-0.096-1.456,0.132c-6.662,4.07-12.477,2.063-17.965-2.432c-0.178-0.85-0.532-1.519-1.546-1.515l-0.01,0.015
		c-0.508-3.469-1.237-6.921-0.822-10.462C86.087,78.983,87.407,77.444,87.6,75.434z M108.637,87.514
		c-0.196-1.778,1.337-3.328,0.679-5.166c-0.728-5.864-5.225-9.034-12.927-9.112c-3.181-0.032-8.681,5.528-9.164,9.262
		c-0.348,2.193-0.09,4.274,1.125,6.181c-0.267,1.193,0.347,1.738,1.428,1.94c6.362,7.911,14.432,5.077,17.451-0.041
		C108.064,89.725,108.742,88.799,108.637,87.514z"/>
	<path fill-rule="evenodd" clip-rule="evenodd" fill="#1A1A1B" d="M57.596,29.678c0.493-2.51,2.501-3.477,4.517-4.437
		c1.006,0.766,2.021,0.397,3.134,0.196c3.477-0.631,6.838-0.086,10.04,1.42c1.872,0.88,2.391,3.525,4.812,3.69l0.012-0.007
		c0.91,4.755,2.537,9.509-0.007,14.263c-0.252,0.701-0.504,1.402-0.756,2.103c-0.422,1.072-1.296,1.728-2.183,2.374
		c-0.49,0.036-1.083-0.096-1.456,0.132c-6.662,4.07-12.477,2.063-17.966-2.432c-0.178-0.85-0.531-1.519-1.546-1.515l-0.01,0.015
		c-0.508-3.468-1.236-6.921-0.821-10.462C56.083,33.227,57.403,31.688,57.596,29.678z M58.346,42.923
		c-0.268,1.193,0.347,1.738,1.428,1.94c6.362,7.911,14.432,5.077,17.451-0.041c0.835-0.853,1.514-1.779,1.409-3.065
		c-0.195-1.778,1.337-3.328,0.679-5.166c-0.727-5.864-5.225-9.034-12.927-9.112c-3.181-0.032-8.681,5.528-9.164,9.262
		C56.872,38.935,57.13,41.016,58.346,42.923z"/>
	<path fill-rule="evenodd" clip-rule="evenodd" fill="#1A1A1B" d="M50.845,69.433c0.493-2.51,2.501-3.477,4.517-4.437
		c1.006,0.767,2.021,0.397,3.134,0.196c3.477-0.631,6.838-0.085,10.04,1.42c1.872,0.88,2.391,3.525,4.812,3.69l0.012-0.007
		c0.91,4.755,2.537,9.51-0.007,14.263c-0.252,0.701-0.504,1.402-0.756,2.103c-0.422,1.071-1.296,1.728-2.183,2.373
		c-0.49,0.036-1.083-0.096-1.456,0.132c-6.662,4.07-12.477,2.063-17.966-2.432c-0.177-0.85-0.531-1.52-1.546-1.515l-0.01,0.015
		c-0.508-3.468-1.236-6.921-0.821-10.462C49.332,72.982,50.652,71.443,50.845,69.433z M71.882,81.513
		c-0.195-1.778,1.337-3.328,0.679-5.166c-0.727-5.864-5.225-9.033-12.927-9.112c-3.181-0.032-8.681,5.528-9.164,9.262
		c-0.349,2.192-0.09,4.273,1.125,6.181c-0.267,1.193,0.347,1.738,1.428,1.94c6.362,7.911,14.432,5.077,17.451-0.041
		C71.309,83.725,71.987,82.798,71.882,81.513z"/>
	<path fill-rule="evenodd" clip-rule="evenodd" fill="#1A1A1B" d="M95.101,35.678c0.494-2.51,2.501-3.477,4.517-4.436
		c1.007,0.766,2.021,0.397,3.134,0.196c3.477-0.632,6.838-0.086,10.04,1.42c1.873,0.881,2.391,3.526,4.812,3.69l0.013-0.007
		c0.91,4.754,2.536,9.509-0.007,14.263c-0.252,0.701-0.504,1.402-0.756,2.103c-0.423,1.072-1.297,1.728-2.183,2.374
		c-0.491,0.036-1.083-0.096-1.456,0.132c-6.662,4.07-12.477,2.063-17.965-2.432c-0.178-0.85-0.532-1.519-1.546-1.515l-0.01,0.015
		c-0.508-3.469-1.237-6.921-0.822-10.462C93.588,39.228,94.908,37.688,95.101,35.678z M116.138,47.758
		c-0.196-1.778,1.337-3.328,0.679-5.166c-0.727-5.864-5.225-9.034-12.927-9.112c-3.181-0.032-8.681,5.528-9.164,9.262
		c-0.348,2.192-0.09,4.273,1.125,6.181c-0.268,1.193,0.347,1.738,1.427,1.94c6.363,7.911,14.432,5.077,17.451-0.041
		C115.565,49.97,116.243,49.044,116.138,47.758z"/>
	<path fill-rule="evenodd" clip-rule="evenodd" fill="#444446" d="M95.249,52.98c5.488,4.495,11.302,6.502,17.964,2.433
		c0.373-0.228,0.965-0.096,1.456-0.132c0.031,0.532,0.061,1.064,0.092,1.596c-2.989,0.698-5.091,3.519-8.378,3.503
		c-2.617-2.31-6.037-1.989-9.117-2.779l0.047,0.047c0.083-1.71-1.126-1.64-2.275-1.653c-1.056-0.582-1.478-1.667-2.075-2.614
		c0.24-0.135,0.48-0.271,0.721-0.407C94.206,52.976,94.727,52.978,95.249,52.98z"/>
	<path fill-rule="evenodd" clip-rule="evenodd" fill="#444446" d="M16.488,101.736c5.488,4.496,11.302,6.503,17.964,2.433
		c0.373-0.228,0.966-0.096,1.456-0.132c0.031,0.532,0.061,1.064,0.092,1.596c-2.989,0.698-5.091,3.519-8.379,3.504
		c-2.617-2.31-6.036-1.989-9.116-2.779l0.047,0.047c0.083-1.71-1.126-1.64-2.275-1.653c-1.056-0.582-1.478-1.667-2.075-2.614
		c0.24-0.136,0.48-0.271,0.721-0.407C15.445,101.732,15.966,101.734,16.488,101.736z"/>
	<path fill-rule="evenodd" clip-rule="evenodd" fill="#444446" d="M87.748,92.735c5.488,4.496,11.302,6.502,17.964,2.433
		c0.373-0.228,0.965-0.096,1.456-0.132c0.031,0.532,0.061,1.064,0.092,1.596c-2.989,0.698-5.091,3.519-8.378,3.503
		c-2.617-2.31-6.037-1.989-9.117-2.779l0.047,0.047c0.083-1.71-1.126-1.64-2.275-1.653c-1.056-0.583-1.478-1.667-2.075-2.615
		c0.24-0.135,0.48-0.271,0.721-0.407C86.705,92.731,87.226,92.733,87.748,92.735z"/>
	<path fill-rule="evenodd" clip-rule="evenodd" fill="#444446" d="M50.993,86.734c5.487,4.496,11.302,6.502,17.964,2.433
		c0.373-0.228,0.966-0.096,1.456-0.132c0.031,0.532,0.062,1.064,0.092,1.596c-2.99,0.698-5.091,3.519-8.378,3.504
		c-2.617-2.31-6.037-1.989-9.117-2.779l0.047,0.047c0.083-1.71-1.126-1.64-2.275-1.653c-1.056-0.583-1.479-1.667-2.075-2.614
		c0.24-0.136,0.48-0.271,0.721-0.407C49.95,86.73,50.471,86.732,50.993,86.734z"/>
	<path fill-rule="evenodd" clip-rule="evenodd" fill="#444446" d="M57.744,46.979c5.488,4.496,11.303,6.502,17.965,2.433
		c0.373-0.228,0.966-0.096,1.456-0.132c0.031,0.532,0.061,1.064,0.092,1.596c-2.99,0.698-5.091,3.519-8.378,3.503
		c-2.617-2.31-6.037-1.989-9.117-2.779l0.048,0.047c0.083-1.71-1.126-1.64-2.276-1.653c-1.055-0.583-1.478-1.667-2.074-2.615
		c0.24-0.135,0.48-0.271,0.72-0.407C56.701,46.975,57.222,46.977,57.744,46.979z"/>
	<path fill-rule="evenodd" clip-rule="evenodd" fill="#4A4A4C" d="M80.098,30.548c-2.421-0.165-2.94-2.81-4.812-3.69
		c-3.201-1.506-6.563-2.052-10.04-1.42c-1.113,0.201-2.127,0.57-3.134-0.196c0.55-1.39,1.788-1.789,3.066-2.129
		c2.547,1.339,5.271,0.369,7.902,0.601l0.177-0.091l0.136,0.146c0.378,0.756,1.073,0.695,1.75,0.68
		c2.21,0.504,3.774,1.892,5.035,3.692C80.152,28.941,80.125,29.745,80.098,30.548z"/>
	<path fill-rule="evenodd" clip-rule="evenodd" fill="#4A4A4C" d="M117.603,36.548c-2.42-0.165-2.939-2.81-4.812-3.69
		c-3.201-1.506-6.563-2.052-10.04-1.42c-1.113,0.201-2.127,0.57-3.134-0.196c0.55-1.39,1.788-1.789,3.066-2.129
		c2.547,1.339,5.271,0.368,7.902,0.601l0.177-0.092l0.136,0.146c0.378,0.756,1.073,0.695,1.75,0.68
		c2.21,0.505,3.773,1.892,5.035,3.692C117.657,34.942,117.63,35.746,117.603,36.548z"/>
	<path fill-rule="evenodd" clip-rule="evenodd" fill="#4A4A4C" d="M110.102,76.304c-2.42-0.165-2.939-2.81-4.812-3.69
		c-3.201-1.506-6.563-2.052-10.04-1.42c-1.113,0.201-2.127,0.57-3.134-0.196c0.55-1.39,1.788-1.789,3.066-2.129
		c2.547,1.339,5.271,0.369,7.902,0.601l0.177-0.091l0.136,0.146c0.378,0.756,1.073,0.695,1.75,0.68
		c2.21,0.505,3.773,1.893,5.035,3.692C110.156,74.698,110.129,75.501,110.102,76.304z"/>
	<path fill-rule="evenodd" clip-rule="evenodd" fill="#4A4A4C" d="M73.347,70.303c-2.42-0.165-2.939-2.81-4.812-3.69
		c-3.201-1.506-6.563-2.052-10.04-1.42c-1.113,0.202-2.127,0.571-3.134-0.196c0.55-1.389,1.788-1.789,3.066-2.129
		c2.547,1.339,5.271,0.369,7.902,0.601l0.177-0.092l0.136,0.146c0.378,0.756,1.073,0.695,1.75,0.68
		c2.21,0.504,3.774,1.892,5.035,3.692C73.401,68.697,73.374,69.5,73.347,70.303z"/>
	<path fill-rule="evenodd" clip-rule="evenodd" fill="#4A4A4C" d="M38.842,85.305c-2.42-0.165-2.939-2.81-4.812-3.69
		c-3.201-1.506-6.563-2.052-10.04-1.42c-1.113,0.202-2.127,0.571-3.134-0.195c0.55-1.39,1.788-1.789,3.066-2.129
		c2.547,1.339,5.271,0.368,7.902,0.601l0.177-0.092l0.136,0.146c0.378,0.756,1.073,0.695,1.75,0.68
		c2.21,0.505,3.773,1.892,5.035,3.692C38.896,83.699,38.869,84.502,38.842,85.305z"/>
	<path fill-rule="evenodd" clip-rule="evenodd" fill="#353637" d="M72.596,86.662c0.252-0.701,0.504-1.402,0.757-2.104
		c3.234-1.804,3.222-4.818,2.78-7.867c-0.312-2.151-1.38-4.167-1.25-6.416l0.177-0.158c3.448,4.323,3.961,11.65-0.341,16.531
		C74.011,86.653,73.303,86.658,72.596,86.662z"/>
	<path fill-rule="evenodd" clip-rule="evenodd" fill="#353637" d="M109.351,92.663c0.252-0.701,0.504-1.402,0.756-2.104
		c3.235-1.804,3.222-4.818,2.781-7.867c-0.312-2.151-1.38-4.167-1.251-6.416l0.177-0.158c3.448,4.323,3.961,11.65-0.341,16.531
		C110.766,92.654,110.058,92.658,109.351,92.663z"/>
	<path fill-rule="evenodd" clip-rule="evenodd" fill="#353637" d="M38.091,101.664c0.252-0.701,0.504-1.402,0.756-2.104
		c3.234-1.803,3.222-4.818,2.78-7.867c-0.312-2.151-1.38-4.167-1.25-6.416l0.177-0.157c3.448,4.322,3.961,11.65-0.341,16.531
		C39.506,101.655,38.798,101.66,38.091,101.664z"/>
	<path fill-rule="evenodd" clip-rule="evenodd" fill="#353637" d="M79.347,46.906c0.252-0.701,0.504-1.402,0.757-2.104
		c3.234-1.804,3.222-4.818,2.78-7.867c-0.312-2.151-1.38-4.167-1.251-6.416l0.178-0.158c3.448,4.323,3.961,11.65-0.341,16.531
		C80.762,46.897,80.054,46.902,79.347,46.906z"/>
	<path fill-rule="evenodd" clip-rule="evenodd" fill="#353637" d="M116.852,52.907c0.252-0.701,0.504-1.402,0.756-2.104
		c3.234-1.803,3.222-4.817,2.78-7.867c-0.312-2.15-1.38-4.167-1.251-6.415l0.177-0.158c3.448,4.323,3.961,11.65-0.341,16.531
		C118.267,52.898,117.559,52.903,116.852,52.907z"/>
	<path fill-rule="evenodd" clip-rule="evenodd" fill="#444446" d="M87.6,75.434c-0.192,2.01-1.513,3.549-2.23,5.34
		c-2.431,2.378-2.111,6.452,0.821,10.462l0.01-0.015c-0.006,0.502-0.012,1.005-0.018,1.507c-0.24,0.136-0.48,0.272-0.721,0.407
		c-3.84-5.854-3.824-11.21,0.022-16.498C86.023,75.897,86.596,75.313,87.6,75.434z"/>
	<path fill-rule="evenodd" clip-rule="evenodd" fill="#444446" d="M57.596,29.678c-0.193,2.01-1.513,3.549-2.23,5.34
		c-2.43,2.378-2.111,6.452,0.821,10.462l0.01-0.015c-0.006,0.502-0.012,1.005-0.018,1.507c-0.24,0.136-0.48,0.272-0.72,0.407
		c-3.84-5.854-3.824-11.21,0.022-16.498C56.019,30.141,56.592,29.557,57.596,29.678z"/>
	<path fill-rule="evenodd" clip-rule="evenodd" fill="#444446" d="M50.845,69.433c-0.193,2.01-1.513,3.549-2.23,5.34
		c-2.431,2.378-2.111,6.452,0.821,10.462l0.01-0.015c-0.006,0.502-0.012,1.005-0.018,1.508c-0.241,0.136-0.48,0.271-0.721,0.407
		c-3.84-5.854-3.824-11.21,0.022-16.498C49.268,69.896,49.841,69.312,50.845,69.433z"/>
	<path fill-rule="evenodd" clip-rule="evenodd" fill="#444446" d="M95.101,35.678c-0.192,2.01-1.513,3.549-2.23,5.34
		c-2.431,2.378-2.111,6.452,0.821,10.462l0.01-0.015c-0.006,0.502-0.012,1.005-0.018,1.507c-0.24,0.136-0.48,0.272-0.721,0.407
		c-3.84-5.854-3.824-11.21,0.022-16.498C93.524,36.142,94.097,35.558,95.101,35.678z"/>
	<path fill-rule="evenodd" clip-rule="evenodd" fill="#444446" d="M16.34,84.435c-0.192,2.01-1.513,3.549-2.23,5.34
		c-2.431,2.379-2.111,6.452,0.821,10.462l0.01-0.015c-0.006,0.503-0.012,1.005-0.018,1.508c-0.24,0.136-0.48,0.271-0.721,0.407
		c-3.84-5.854-3.824-11.21,0.022-16.498C14.764,84.899,15.336,84.314,16.34,84.435z"/>
	<path fill-rule="evenodd" clip-rule="evenodd" fill="#353637" d="M53.01,91.356c3.08,0.791,6.5,0.47,9.117,2.779
		C58.668,94.583,55.671,93.522,53.01,91.356z"/>
	<path fill-rule="evenodd" clip-rule="evenodd" fill="#353637" d="M59.761,51.601c3.081,0.79,6.5,0.469,9.117,2.779
		C65.419,54.828,62.422,53.767,59.761,51.601z"/>
	<path fill-rule="evenodd" clip-rule="evenodd" fill="#353637" d="M18.505,106.358c3.08,0.791,6.5,0.47,9.116,2.779
		C24.164,109.585,21.166,108.524,18.505,106.358z"/>
	<path fill-rule="evenodd" clip-rule="evenodd" fill="#353637" d="M97.266,57.601c3.08,0.791,6.5,0.47,9.117,2.779
		C102.925,60.829,99.927,59.767,97.266,57.601z"/>
	<path fill-rule="evenodd" clip-rule="evenodd" fill="#353637" d="M89.765,97.357c3.08,0.79,6.5,0.469,9.117,2.779
		C95.424,100.584,92.426,99.523,89.765,97.357z"/>
	<path fill-rule="evenodd" clip-rule="evenodd" fill="#8E8E90" d="M109.351,92.663c0.707-0.004,1.415-0.009,2.122-0.013
		c-0.337,2.456-2.191,3.308-4.213,3.983c-0.031-0.532-0.061-1.064-0.092-1.596C108.054,94.391,108.928,93.734,109.351,92.663z"/>
	<path fill-rule="evenodd" clip-rule="evenodd" fill="#8E8E90" d="M116.852,52.907c0.707-0.004,1.415-0.009,2.122-0.013
		c-0.337,2.456-2.191,3.308-4.213,3.983c-0.031-0.532-0.061-1.064-0.092-1.596C115.555,54.635,116.429,53.979,116.852,52.907z"/>
	<path fill-rule="evenodd" clip-rule="evenodd" fill="#8E8E90" d="M72.596,86.662c0.708-0.004,1.415-0.009,2.122-0.013
		c-0.337,2.456-2.191,3.308-4.212,3.982c-0.031-0.532-0.062-1.064-0.092-1.596C71.299,88.39,72.173,87.733,72.596,86.662z"/>
	<path fill-rule="evenodd" clip-rule="evenodd" fill="#8E8E90" d="M79.347,46.906c0.708-0.004,1.415-0.009,2.122-0.013
		c-0.337,2.457-2.191,3.308-4.212,3.983c-0.031-0.532-0.062-1.064-0.092-1.596C78.05,48.634,78.924,47.978,79.347,46.906z"/>
	<path fill-rule="evenodd" clip-rule="evenodd" fill="#8E8E90" d="M38.091,101.664c0.707-0.004,1.415-0.009,2.122-0.013
		c-0.337,2.456-2.191,3.308-4.213,3.982c-0.031-0.532-0.061-1.064-0.092-1.596C36.794,103.392,37.668,102.736,38.091,101.664z"/>
	<path fill-rule="evenodd" clip-rule="evenodd" fill="#2B2C2C" d="M110.586,29.713c-2.632-0.232-5.355,0.738-7.902-0.601
		C105.321,29.271,108.05,28.222,110.586,29.713z"/>
	<path fill-rule="evenodd" clip-rule="evenodd" fill="#2B2C2C" d="M66.33,63.468c-2.631-0.232-5.354,0.738-7.902-0.601
		C61.065,63.025,63.794,61.977,66.33,63.468z"/>
	<path fill-rule="evenodd" clip-rule="evenodd" fill="#2B2C2C" d="M103.085,69.469c-2.632-0.232-5.355,0.738-7.902-0.601
		C97.82,69.026,100.549,67.978,103.085,69.469z"/>
	<path fill-rule="evenodd" clip-rule="evenodd" fill="#2B2C2C" d="M73.081,23.712c-2.631-0.232-5.354,0.739-7.902-0.601
		C67.816,23.27,70.545,22.222,73.081,23.712z"/>
	<path fill-rule="evenodd" clip-rule="evenodd" fill="#2B2C2C" d="M31.826,78.47c-2.632-0.232-5.355,0.738-7.902-0.601
		C26.561,78.028,29.29,76.979,31.826,78.47z"/>
	<path fill-rule="evenodd" clip-rule="evenodd" fill="#353637" d="M95.038,55.995c1.149,0.013,2.359-0.057,2.275,1.653
		C96.376,57.343,95.517,56.932,95.038,55.995z"/>
	<path fill-rule="evenodd" clip-rule="evenodd" fill="#353637" d="M73.347,70.303c0.027-0.803,0.054-1.606,0.082-2.409
		c0.818,0.54,1.562,1.134,1.631,2.224l-0.177,0.158c-0.508,0.006-1.015,0.013-1.523,0.021L73.347,70.303z"/>
	<path fill-rule="evenodd" clip-rule="evenodd" fill="#353637" d="M57.533,49.994c1.149,0.013,2.359-0.057,2.276,1.653
		C58.871,51.343,58.011,50.931,57.533,49.994z"/>
	<path fill-rule="evenodd" clip-rule="evenodd" fill="#353637" d="M50.782,89.75c1.149,0.013,2.359-0.057,2.275,1.653
		C52.121,91.098,51.26,90.687,50.782,89.75z"/>
	<path fill-rule="evenodd" clip-rule="evenodd" fill="#353637" d="M110.102,76.304c0.027-0.803,0.054-1.606,0.082-2.409
		c0.818,0.54,1.563,1.134,1.631,2.224l-0.177,0.158c-0.508,0.006-1.015,0.013-1.522,0.021L110.102,76.304z"/>
	<path fill-rule="evenodd" clip-rule="evenodd" fill="#353637" d="M80.098,30.548c0.027-0.803,0.054-1.606,0.081-2.409
		c0.818,0.54,1.563,1.134,1.631,2.224l-0.178,0.158c-0.507,0.006-1.015,0.013-1.522,0.021L80.098,30.548z"/>
	<path fill-rule="evenodd" clip-rule="evenodd" fill="#353637" d="M87.537,95.75c1.149,0.013,2.359-0.057,2.275,1.653
		C88.875,97.099,88.016,96.687,87.537,95.75z"/>
	<path fill-rule="evenodd" clip-rule="evenodd" fill="#353637" d="M38.842,85.305c0.027-0.803,0.054-1.606,0.082-2.409
		c0.818,0.54,1.563,1.134,1.631,2.224l-0.177,0.157c-0.508,0.007-1.015,0.013-1.522,0.021L38.842,85.305z"/>
	<path fill-rule="evenodd" clip-rule="evenodd" fill="#353637" d="M16.277,104.751c1.149,0.013,2.359-0.057,2.275,1.653
		C17.616,106.1,16.755,105.688,16.277,104.751z"/>
	<path fill-rule="evenodd" clip-rule="evenodd" fill="#353637" d="M117.603,36.548c0.027-0.803,0.054-1.606,0.082-2.409
		c0.818,0.54,1.563,1.134,1.631,2.224l-0.177,0.158c-0.508,0.006-1.015,0.013-1.522,0.021L117.603,36.548z"/>
	<path fill-rule="evenodd" clip-rule="evenodd" fill="#2B2C2C" d="M68.393,64.202c-0.677,0.015-1.372,0.076-1.75-0.68
		C67.325,63.497,68.009,63.461,68.393,64.202z"/>
	<path fill-rule="evenodd" clip-rule="evenodd" fill="#2B2C2C" d="M105.148,70.203c-0.677,0.016-1.373,0.076-1.75-0.68
		C104.08,69.498,104.765,69.462,105.148,70.203z"/>
	<path fill-rule="evenodd" clip-rule="evenodd" fill="#2B2C2C" d="M75.144,24.447c-0.677,0.015-1.372,0.076-1.75-0.68
		C74.076,23.741,74.76,23.706,75.144,24.447z"/>
	<path fill-rule="evenodd" clip-rule="evenodd" fill="#2B2C2C" d="M33.889,79.204c-0.677,0.015-1.373,0.076-1.75-0.68
		C32.82,78.499,33.505,78.463,33.889,79.204z"/>
	<path fill-rule="evenodd" clip-rule="evenodd" fill="#2B2C2C" d="M112.649,30.447c-0.677,0.016-1.373,0.076-1.75-0.68
		C111.581,29.742,112.266,29.707,112.649,30.447z"/>
	<path fill-rule="evenodd" clip-rule="evenodd" fill="#850B03" d="M47.09,52.654c-0.025,6.74-6.242,12.909-13.034,12.934
		c-6.479,0.024-13.176-6.778-12.967-13.168c0.228-6.96,6.172-12.776,13.137-12.853C40.891,39.493,47.116,45.826,47.09,52.654z
		 M28.352,43.245l0.029-0.02c-0.617-0.049-1.205-0.037-1.445,0.696c-1.109,2.396-4.246,3.648-3.876,6.876
		c-0.068,2.589-0.359,5.221,1.431,7.454c5.939,8.892,17.068,6.33,19.756-0.8c0.056-0.192,0.079-0.389,0.07-0.589
		c0.203-0.48,0.406-0.96,0.608-1.441c1.053-1.808,1.123-3.619,0.017-5.434l0.006-0.006c0.012-0.838,0.103-1.703-0.757-2.248
		l-0.008-0.012c-0.248-0.245-0.495-0.488-0.743-0.733l-0.014-0.028c0.187-1.141-0.537-1.491-1.453-1.675
		c-0.792-0.693-1.583-1.387-2.375-2.08c-3.074-2.619-6.325-2.817-9.744-0.711l0.025-0.018
		C29.195,42.384,28.604,42.479,28.352,43.245z"/>
	<path fill-rule="evenodd" clip-rule="evenodd" fill="#4A4A4C" d="M15.966,91.5c0.481-3.734,5.982-9.295,9.163-9.263
		c7.702,0.079,12.2,3.248,12.927,9.112c-1.736-0.81-3.129,0.721-4.75,0.698c-1.371-0.188-2.019-1.356-2.919-2.172
		c-2.555-2.314-5.648-2.006-7.613,0.788c-0.481,0.685-0.333,1.756-1.309,2.141C19.628,92.387,18.204,90.227,15.966,91.5z"/>
	<path fill-rule="evenodd" clip-rule="evenodd" fill="#505052" d="M35.969,99.58c-3.019,5.117-11.089,7.951-17.451,0.04
		c2.534,0.406,4.971,0.976,6.495-2.181c0.638-1.319,2.64-1.445,3.531-0.219C30.529,99.952,33.096,100.061,35.969,99.58z"/>
	<path fill-rule="evenodd" clip-rule="evenodd" fill="#6A6B6C" d="M35.969,99.58c-2.873,0.48-5.439,0.372-7.425-2.36
		c-0.891-1.226-2.893-1.1-3.531,0.219c-1.524,3.156-3.961,2.586-6.495,2.181c-1.081-0.201-1.695-0.746-1.428-1.939
		c1.769-1.227,4.587-0.858,5.396-3.547c2.936,0.976,5.873,1.102,8.812,0.015c1.228,2.84,3.456,3.111,6.079,2.366
		C37.482,97.801,36.804,98.727,35.969,99.58z"/>
	<path fill-rule="evenodd" clip-rule="evenodd" fill="#8E8E90" d="M22.486,94.134c-0.809,2.689-3.627,2.32-5.396,3.547
		c-1.216-1.908-1.474-3.989-1.125-6.181c2.239-1.273,3.663,0.887,5.5,1.304C21.806,93.247,22.146,93.69,22.486,94.134z"/>
	<path fill-rule="evenodd" clip-rule="evenodd" fill="#8E8E90" d="M37.377,96.515c-2.624,0.745-4.851,0.474-6.079-2.366
		c0.669-0.7,1.339-1.401,2.008-2.102c1.621,0.023,3.014-1.508,4.75-0.698C38.714,93.187,37.182,94.737,37.377,96.515z"/>
	<path fill-rule="evenodd" clip-rule="evenodd" fill="#4A4A4C" d="M38.854,85.298c0.507-0.007,1.015-0.014,1.522-0.021
		c-0.129,2.249,0.939,4.265,1.25,6.416c0.442,3.049,0.455,6.064-2.78,7.867C41.391,94.808,39.764,90.053,38.854,85.298z"/>
	<path fill-rule="evenodd" clip-rule="evenodd" fill="#4A4A4C" d="M14.931,100.237c-2.933-4.01-3.252-8.083-0.821-10.462
		C13.694,93.316,14.423,96.769,14.931,100.237z"/>
	<path fill-rule="evenodd" clip-rule="evenodd" fill="#4A4A4C" d="M14.923,101.73c0.006-0.502,0.012-1.005,0.018-1.508
		c1.015-0.004,1.369,0.666,1.546,1.515C15.966,101.734,15.445,101.732,14.923,101.73z"/>
	<path fill-rule="evenodd" clip-rule="evenodd" fill="#4A4A4C" d="M87.226,82.499c0.481-3.734,5.982-9.295,9.163-9.263
		c7.702,0.078,12.2,3.248,12.927,9.112c-1.736-0.81-3.129,0.721-4.75,0.698c-1.371-0.188-2.019-1.356-2.919-2.172
		c-2.555-2.314-5.648-2.006-7.613,0.789c-0.481,0.685-0.333,1.756-1.309,2.14C90.888,83.386,89.464,81.225,87.226,82.499z"/>
	<path fill-rule="evenodd" clip-rule="evenodd" fill="#505052" d="M107.229,90.579c-3.019,5.118-11.089,7.952-17.45,0.04
		c2.534,0.406,4.97,0.976,6.495-2.181c0.638-1.319,2.64-1.445,3.531-0.219C101.789,90.951,104.355,91.059,107.229,90.579z"/>
	<path fill-rule="evenodd" clip-rule="evenodd" fill="#6A6B6C" d="M107.229,90.579c-2.873,0.48-5.439,0.372-7.425-2.36
		c-0.891-1.226-2.893-1.1-3.531,0.219c-1.524,3.157-3.961,2.586-6.495,2.181c-1.082-0.201-1.696-0.746-1.428-1.939
		c1.769-1.227,4.587-0.858,5.396-3.547c2.936,0.977,5.873,1.102,8.812,0.016c1.228,2.839,3.456,3.111,6.079,2.366
		C108.742,88.799,108.064,89.725,107.229,90.579z"/>
	<path fill-rule="evenodd" clip-rule="evenodd" fill="#8E8E90" d="M93.746,85.132c-0.809,2.689-3.627,2.32-5.396,3.547
		c-1.215-1.907-1.474-3.988-1.125-6.18c2.238-1.274,3.662,0.887,5.5,1.304C93.066,84.246,93.406,84.689,93.746,85.132z"/>
	<path fill-rule="evenodd" clip-rule="evenodd" fill="#8E8E90" d="M108.637,87.514c-2.624,0.745-4.851,0.473-6.079-2.366
		c0.669-0.701,1.339-1.401,2.008-2.102c1.621,0.022,3.014-1.508,4.75-0.698C109.974,84.186,108.441,85.736,108.637,87.514z"/>
	<path fill-rule="evenodd" clip-rule="evenodd" fill="#4A4A4C" d="M110.114,76.297c0.507-0.007,1.015-0.014,1.522-0.021
		c-0.129,2.249,0.939,4.265,1.251,6.416c0.441,3.049,0.454,6.063-2.781,7.867C112.65,85.806,111.024,81.051,110.114,76.297z"/>
	<path fill-rule="evenodd" clip-rule="evenodd" fill="#4A4A4C" d="M86.191,91.236c-2.933-4.01-3.252-8.083-0.821-10.462
		C84.954,84.315,85.683,87.767,86.191,91.236z"/>
	<path fill-rule="evenodd" clip-rule="evenodd" fill="#4A4A4C" d="M86.183,92.729c0.006-0.502,0.012-1.005,0.018-1.507
		c1.015-0.004,1.369,0.665,1.546,1.515C87.226,92.733,86.705,92.731,86.183,92.729z"/>
	<path fill-rule="evenodd" clip-rule="evenodd" fill="#4A4A4C" d="M57.222,36.743c0.481-3.734,5.981-9.295,9.162-9.263
		c7.703,0.078,12.2,3.248,12.928,9.111c-1.736-0.81-3.129,0.721-4.75,0.699c-1.371-0.188-2.019-1.356-2.919-2.172
		c-2.555-2.314-5.648-2.006-7.613,0.788c-0.482,0.685-0.333,1.756-1.309,2.14C60.883,37.63,59.46,35.469,57.222,36.743z"/>
	<path fill-rule="evenodd" clip-rule="evenodd" fill="#505052" d="M77.224,44.822c-3.019,5.118-11.088,7.952-17.45,0.04
		c2.534,0.406,4.97,0.976,6.495-2.181c0.638-1.319,2.639-1.445,3.53-0.219C71.785,45.194,74.351,45.303,77.224,44.822z"/>
	<path fill-rule="evenodd" clip-rule="evenodd" fill="#6A6B6C" d="M77.224,44.822c-2.873,0.48-5.439,0.372-7.425-2.36
		c-0.891-1.227-2.893-1.101-3.53,0.219c-1.525,3.157-3.961,2.586-6.495,2.181c-1.081-0.201-1.696-0.746-1.428-1.939
		c1.769-1.227,4.587-0.857,5.396-3.547c2.936,0.977,5.873,1.102,8.813,0.016c1.228,2.84,3.456,3.111,6.079,2.366
		C78.738,43.043,78.06,43.969,77.224,44.822z"/>
	<path fill-rule="evenodd" clip-rule="evenodd" fill="#8E8E90" d="M63.742,39.376c-0.808,2.689-3.626,2.32-5.396,3.547
		c-1.216-1.907-1.474-3.988-1.125-6.18c2.239-1.274,3.662,0.887,5.5,1.304C63.062,38.49,63.402,38.933,63.742,39.376z"/>
	<path fill-rule="evenodd" clip-rule="evenodd" fill="#8E8E90" d="M78.633,41.757c-2.623,0.745-4.851,0.474-6.079-2.366
		c0.669-0.7,1.338-1.401,2.008-2.102c1.621,0.022,3.014-1.508,4.75-0.699C79.97,38.43,78.438,39.979,78.633,41.757z"/>
	<path fill-rule="evenodd" clip-rule="evenodd" fill="#4A4A4C" d="M80.11,30.541c0.508-0.007,1.015-0.014,1.522-0.021
		c-0.129,2.249,0.939,4.265,1.251,6.416c0.442,3.049,0.454,6.063-2.78,7.867C82.646,40.05,81.02,35.295,80.11,30.541z"/>
	<path fill-rule="evenodd" clip-rule="evenodd" fill="#4A4A4C" d="M56.187,45.479c-2.932-4.01-3.251-8.083-0.821-10.462
		C54.95,38.559,55.679,42.011,56.187,45.479z"/>
	<path fill-rule="evenodd" clip-rule="evenodd" fill="#4A4A4C" d="M56.179,46.972c0.006-0.502,0.012-1.005,0.018-1.507
		c1.015-0.004,1.368,0.665,1.546,1.515C57.222,46.977,56.701,46.975,56.179,46.972z"/>
	<path fill-rule="evenodd" clip-rule="evenodd" fill="#4A4A4C" d="M50.471,76.498c0.481-3.734,5.981-9.295,9.162-9.263
		c7.703,0.079,12.2,3.248,12.928,9.112c-1.736-0.81-3.129,0.721-4.75,0.698c-1.371-0.188-2.019-1.356-2.919-2.172
		c-2.555-2.314-5.648-2.006-7.613,0.788c-0.481,0.685-0.333,1.756-1.309,2.141C54.132,77.385,52.709,75.224,50.471,76.498z"/>
	<path fill-rule="evenodd" clip-rule="evenodd" fill="#505052" d="M70.473,84.578c-3.019,5.118-11.088,7.952-17.45,0.04
		c2.534,0.406,4.97,0.976,6.495-2.181c0.638-1.319,2.639-1.445,3.53-0.219C65.034,84.95,67.601,85.059,70.473,84.578z"/>
	<path fill-rule="evenodd" clip-rule="evenodd" fill="#6A6B6C" d="M70.473,84.578c-2.873,0.481-5.439,0.373-7.425-2.36
		c-0.891-1.226-2.892-1.1-3.53,0.219c-1.525,3.157-3.961,2.587-6.495,2.181c-1.081-0.201-1.695-0.746-1.428-1.939
		c1.769-1.227,4.587-0.857,5.396-3.547c2.936,0.977,5.873,1.102,8.813,0.016c1.228,2.84,3.456,3.111,6.079,2.366
		C71.987,82.798,71.309,83.725,70.473,84.578z"/>
	<path fill-rule="evenodd" clip-rule="evenodd" fill="#8E8E90" d="M56.991,79.131c-0.808,2.689-3.626,2.32-5.396,3.547
		c-1.216-1.907-1.474-3.988-1.125-6.18c2.239-1.274,3.662,0.887,5.5,1.304C56.311,78.245,56.651,78.688,56.991,79.131z"/>
	<path fill-rule="evenodd" clip-rule="evenodd" fill="#8E8E90" d="M71.882,81.513c-2.623,0.745-4.851,0.474-6.079-2.366
		c0.669-0.7,1.338-1.401,2.008-2.102c1.621,0.022,3.014-1.508,4.75-0.698C73.219,78.185,71.687,79.735,71.882,81.513z"/>
	<path fill-rule="evenodd" clip-rule="evenodd" fill="#4A4A4C" d="M73.359,70.296c0.508-0.007,1.015-0.014,1.523-0.021
		c-0.129,2.249,0.939,4.265,1.25,6.416c0.442,3.049,0.454,6.063-2.78,7.867C75.896,79.806,74.269,75.051,73.359,70.296z"/>
	<path fill-rule="evenodd" clip-rule="evenodd" fill="#4A4A4C" d="M49.436,85.235c-2.932-4.01-3.251-8.083-0.821-10.462
		C48.199,78.314,48.928,81.767,49.436,85.235z"/>
	<path fill-rule="evenodd" clip-rule="evenodd" fill="#4A4A4C" d="M49.428,86.728c0.006-0.503,0.012-1.005,0.018-1.508
		c1.015-0.004,1.369,0.665,1.546,1.515C50.471,86.732,49.95,86.73,49.428,86.728z"/>
	<path fill-rule="evenodd" clip-rule="evenodd" fill="#4A4A4C" d="M94.727,42.744c0.482-3.734,5.982-9.295,9.163-9.263
		c7.703,0.078,12.2,3.248,12.927,9.112c-1.736-0.811-3.129,0.721-4.75,0.698c-1.371-0.188-2.019-1.355-2.919-2.172
		c-2.555-2.314-5.647-2.006-7.613,0.788c-0.481,0.685-0.333,1.756-1.309,2.141C98.389,43.63,96.965,41.47,94.727,42.744z"/>
	<path fill-rule="evenodd" clip-rule="evenodd" fill="#505052" d="M114.729,50.823c-3.019,5.117-11.088,7.952-17.45,0.04
		c2.534,0.406,4.97,0.976,6.495-2.181c0.638-1.319,2.64-1.445,3.531-0.219C109.29,51.195,111.856,51.304,114.729,50.823z"/>
	<path fill-rule="evenodd" clip-rule="evenodd" fill="#6A6B6C" d="M114.729,50.823c-2.873,0.48-5.439,0.372-7.425-2.36
		c-0.891-1.226-2.893-1.1-3.531,0.219c-1.524,3.156-3.961,2.586-6.495,2.181c-1.081-0.201-1.696-0.746-1.428-1.939
		c1.769-1.227,4.587-0.858,5.396-3.547c2.936,0.977,5.873,1.102,8.812,0.015c1.228,2.839,3.456,3.111,6.079,2.366
		C116.243,49.044,115.565,49.97,114.729,50.823z"/>
	<path fill-rule="evenodd" clip-rule="evenodd" fill="#8E8E90" d="M101.247,45.377c-0.809,2.689-3.627,2.32-5.396,3.547
		c-1.215-1.908-1.474-3.989-1.125-6.18c2.238-1.274,3.662,0.887,5.5,1.304C100.567,44.491,100.907,44.934,101.247,45.377z"/>
	<path fill-rule="evenodd" clip-rule="evenodd" fill="#8E8E90" d="M116.138,47.758c-2.624,0.745-4.851,0.473-6.079-2.366
		c0.67-0.7,1.339-1.401,2.008-2.102c1.621,0.023,3.014-1.508,4.75-0.698C117.475,44.431,115.942,45.98,116.138,47.758z"/>
	<path fill-rule="evenodd" clip-rule="evenodd" fill="#4A4A4C" d="M117.615,36.542c0.507-0.008,1.015-0.014,1.522-0.021
		c-0.129,2.249,0.939,4.265,1.251,6.415c0.441,3.05,0.454,6.064-2.78,7.867C120.151,46.051,118.525,41.296,117.615,36.542z"/>
	<path fill-rule="evenodd" clip-rule="evenodd" fill="#4A4A4C" d="M93.692,51.48c-2.933-4.01-3.252-8.083-0.821-10.462
		C92.455,44.56,93.184,48.012,93.692,51.48z"/>
	<path fill-rule="evenodd" clip-rule="evenodd" fill="#4A4A4C" d="M93.684,52.973c0.006-0.502,0.012-1.005,0.018-1.507
		c1.014-0.004,1.368,0.665,1.546,1.515C94.727,52.978,94.206,52.976,93.684,52.973z"/>
	<path fill-rule="evenodd" clip-rule="evenodd" fill="#DF2A09" d="M39.598,43.204c0.792,0.693,1.583,1.387,2.375,2.083
		c0.096,0.896,0.618,1.42,1.454,1.672c0,0,0.014,0.028,0.014,0.028c0.248,0.245,0.495,0.489,0.742,0.733l0.008,0.012
		c-0.033,0.845-0.211,1.739,0.757,2.248l-0.006,0.006c-0.035,0.221-0.046,0.444-0.035,0.667c-1.661-0.442-2.973,0.599-4.426,1.04
		c-1.008-3.407-3.502-5.325-6.834-5.177c-3.151,0.139-5.004,2.406-5.309,5.676c-1.727-0.589-3.331-1.644-5.279-1.394
		c-0.369-3.229,2.768-4.481,3.877-6.877c0.618,0.051,1.251,0.134,1.445-0.696l-0.029,0.02c0.661,0.044,1.347,0.138,1.527-0.771
		l-0.025,0.018C33.12,42.492,36.392,42.39,39.598,43.204z"/>
	<path fill-rule="evenodd" clip-rule="evenodd" fill="#ED7862" d="M40.481,51.693c1.453-0.441,2.765-1.482,4.426-1.04
		c0.006,1.589,0.012,3.178,0.018,4.766c-0.203,0.48-0.405,0.961-0.609,1.441c-4.734-1.756-9.646-0.519-14.465-0.854
		c-1.414-0.098-2.723,0.284-3.695,1.429c-0.554,0.271-1.109,0.542-1.664,0.813c-1.79-2.232-1.499-4.865-1.432-7.453
		c1.948-0.249,3.552,0.806,5.28,1.396C32.518,55.205,36.565,55.056,40.481,51.693z"/>
	<path fill-rule="evenodd" clip-rule="evenodd" fill="#DF2A09" d="M24.491,58.25c0.555-0.271,1.11-0.542,1.664-0.813
		c0.338,0.899,0.991,1.521,1.936,1.502c5.419-0.108,10.949,0.921,16.157-1.49C41.56,64.581,30.43,67.143,24.491,58.25z"/>
	<path fill-rule="evenodd" clip-rule="evenodd" fill="#D64F33" d="M44.247,57.45c-5.208,2.411-10.738,1.382-16.157,1.49
		c-0.945,0.019-1.598-0.604-1.936-1.502c0.973-1.146,2.282-1.528,3.696-1.43c4.819,0.334,9.731-0.903,14.465,0.854
		C44.326,57.062,44.303,57.258,44.247,57.45z"/>
	<path fill-rule="evenodd" clip-rule="evenodd" fill="#ED7862" d="M39.598,43.204c-3.206-0.814-6.479-0.711-9.744-0.711
		C33.273,40.386,36.524,40.585,39.598,43.204z"/>
	<path fill-rule="evenodd" clip-rule="evenodd" fill="#DC3516" d="M44.925,55.42c-0.006-1.588-0.012-3.177-0.018-4.766
		c-0.012-0.224,0-0.447,0.035-0.668C46.048,51.801,45.979,53.612,44.925,55.42z"/>
	<path fill-rule="evenodd" clip-rule="evenodd" fill="#DC3516" d="M44.948,49.979c-0.968-0.508-0.79-1.402-0.757-2.248
		C45.051,48.276,44.959,49.141,44.948,49.979z"/>
	<path fill-rule="evenodd" clip-rule="evenodd" fill="#DC3516" d="M43.426,46.958c-0.836-0.252-1.358-0.776-1.454-1.672
		C42.889,45.468,43.613,45.818,43.426,46.958z"/>
	<path fill-rule="evenodd" clip-rule="evenodd" fill="#ED7862" d="M28.381,43.225c-0.194,0.83-0.827,0.748-1.445,0.696
		C27.176,43.188,27.764,43.176,28.381,43.225z"/>
	<path fill-rule="evenodd" clip-rule="evenodd" fill="#ED7862" d="M29.879,42.474c-0.18,0.909-0.866,0.815-1.527,0.771
		C28.604,42.479,29.195,42.384,29.879,42.474z"/>
	<path fill-rule="evenodd" clip-rule="evenodd" fill="#DC3516" d="M44.183,47.72c-0.248-0.245-0.495-0.488-0.742-0.733
		C43.688,47.232,43.935,47.476,44.183,47.72z"/>
	<path fill-rule="evenodd" clip-rule="evenodd" fill="#1C1C1D" d="M33.306,92.047c-0.669,0.7-1.338,1.401-2.008,2.102
		c-2.939,1.086-5.876,0.961-8.812-0.015c-0.34-0.443-0.68-0.887-1.021-1.33c0.975-0.385,0.827-1.456,1.308-2.141
		c1.965-2.794,5.058-3.102,7.613-0.788C31.288,90.691,31.935,91.86,33.306,92.047z"/>
	<path fill-rule="evenodd" clip-rule="evenodd" fill="#1C1C1D" d="M104.566,83.046c-0.669,0.7-1.338,1.401-2.008,2.102
		c-2.939,1.086-5.876,0.961-8.812-0.016c-0.34-0.443-0.68-0.886-1.021-1.33c0.975-0.384,0.827-1.456,1.308-2.14
		c1.965-2.795,5.058-3.103,7.613-0.789C102.547,81.69,103.195,82.859,104.566,83.046z"/>
	<path fill-rule="evenodd" clip-rule="evenodd" fill="#1C1C1D" d="M74.562,37.29c-0.669,0.7-1.338,1.401-2.008,2.102
		c-2.939,1.086-5.877,0.961-8.813-0.016c-0.34-0.443-0.68-0.886-1.021-1.33c0.975-0.384,0.827-1.455,1.309-2.14
		c1.965-2.794,5.058-3.103,7.613-0.788C72.543,35.934,73.191,37.103,74.562,37.29z"/>
	<path fill-rule="evenodd" clip-rule="evenodd" fill="#1C1C1D" d="M67.811,77.045c-0.669,0.7-1.338,1.401-2.008,2.102
		c-2.939,1.086-5.877,0.961-8.813-0.016c-0.34-0.443-0.68-0.886-1.021-1.329c0.975-0.385,0.827-1.456,1.309-2.141
		c1.965-2.794,5.058-3.102,7.613-0.788C65.792,75.689,66.44,76.858,67.811,77.045z"/>
	<path fill-rule="evenodd" clip-rule="evenodd" fill="#1C1C1D" d="M112.067,43.291c-0.669,0.701-1.338,1.401-2.008,2.102
		c-2.939,1.086-5.876,0.961-8.812-0.015c-0.34-0.443-0.68-0.886-1.021-1.33c0.975-0.385,0.827-1.456,1.308-2.141
		c1.965-2.794,5.058-3.102,7.613-0.788C110.048,41.935,110.696,43.103,112.067,43.291z"/>
	<path fill-rule="evenodd" clip-rule="evenodd" fill="#AE2C0A" d="M40.481,51.693c-3.916,3.362-7.964,3.512-12.142,0.5
		c0.304-3.271,2.157-5.538,5.308-5.677C36.979,46.369,39.473,48.287,40.481,51.693z"/>
</g>
</svg>
