<?xml version="1.0" encoding="utf-8"?>
<!-- Generator: Adobe Illustrator 16.0.3, SVG Export Plug-In . SVG Version: 6.00 Build 0)  -->
<!DOCTYPE svg PUBLIC "-//W3C//DTD SVG 1.1//EN" "http://www.w3.org/Graphics/SVG/1.1/DTD/svg11.dtd">
<svg version="1.1" id="Capa_1" xmlns="http://www.w3.org/2000/svg" xmlns:xlink="http://www.w3.org/1999/xlink" x="0px" y="0px"
	 width="131.03px" height="130.03px" viewBox="0 0 131.03 130.03" enable-background="new 0 0 131.03 130.03" xml:space="preserve">
<g>
	<path fill-rule="evenodd" clip-rule="evenodd" fill="#020202" d="M2.978,65.474C2.74,30.818,31.424,2.168,66.415,2.111
		c34.787-0.056,63.17,27.949,63.574,62.723c0.407,35.114-27.939,63.878-63.184,64.115C31.664,129.185,3.221,100.898,2.978,65.474z
		 M76.021,45.738c-1.457-2.188-3.858-2.124-6.058-2.54c-2.687,0.849-5.283-2.325-7.998-0.179c-0.334,0.011-0.659,0.073-0.974,0.186
		c-4.564,0.728-9.123,1.466-12.076,5.643c-3.573,3.244-6.099,7.031-6.249,12.051c-1.934,5.28-0.127,10.172,1.564,15.077
		c1.517,3.727,3.028,7.458,7.736,8.158c8.242,8.284,16.252,6.322,25.026,2.053c2.25,0.958,2.454-1.805,3.969-2.183
		c2.695-2.113,6.217-3.565,6.235-7.814c0.909-1.653,1.819-3.307,2.728-4.959c2.411,1.731,0.583,4.184,1.009,6.263
		c0.271,1.32-0.03,2.931,1.997,2.502c4.718-0.998,4.109,2.161,4.073,4.974c-0.033,2.566-0.007,5.132-0.007,8.783
		c9.376-9.451,17.857-18.107,26.487-26.614c1.818-1.792,1.475-2.75-0.154-4.341c-7.033-6.873-13.943-13.872-20.9-20.823
		c-1.291-1.29-2.59-2.573-4.433-4.404c0,3.469-0.224,5.829,0.053,8.129c0.409,3.399-0.589,5.036-4.227,4.339
		c-2.661-0.511-2.758,1.038-2.917,3.157c-0.199,2.654,1.282,5.579-1,7.97c-1.826-2.432-1.208-6.039-3.877-8.067
		C83.351,49.748,81.094,45.828,76.021,45.738z M33.975,93.666c0-4.098,0.166-6.937-0.046-9.749c-0.213-2.819,0.29-4.552,3.653-3.901
		c2.073,0.401,2.439-0.771,2.424-2.58c-0.069-8.32-0.048-16.641-0.015-24.961c0.006-1.487-0.13-2.84-2.061-2.415
		c-5.071,1.121-5.299-1.858-4.987-5.564c0.171-2.036,0.031-4.097,0.031-7.166c-9.035,9.104-17.2,17.369-25.421,25.578
		c-1.334,1.331-2.092,2.219-0.321,3.963C15.959,75.465,24.552,84.197,33.975,93.666z"/>
	<path fill-rule="evenodd" clip-rule="evenodd" fill="#FEFEFE" d="M89.903,61.164c2.284-2.392,0.803-5.317,1.001-7.971
		c0.159-2.119,0.257-3.667,2.917-3.157c3.637,0.697,4.636-0.94,4.227-4.339c-0.277-2.3-0.053-4.66-0.053-8.129
		c1.843,1.832,3.142,3.115,4.433,4.404c6.957,6.952,13.867,13.95,20.9,20.823c1.628,1.591,1.972,2.549,0.154,4.341
		c-8.63,8.507-17.111,17.163-26.487,26.614c0-3.651-0.026-6.217,0.007-8.783c0.036-2.813,0.646-5.971-4.073-4.974
		c-2.027,0.429-1.726-1.182-1.997-2.502c-0.426-2.079,1.402-4.531-1.008-6.263C90.802,67.873,87.491,64.524,89.903,61.164z"/>
	<path fill-rule="evenodd" clip-rule="evenodd" fill="#FEFEFE" d="M33.975,93.666c-9.422-9.469-18.015-18.2-26.742-26.795
		c-1.771-1.744-1.013-2.632,0.321-3.963c8.221-8.209,16.386-16.474,25.421-25.578c0,3.069,0.141,5.13-0.031,7.166
		c-0.313,3.706-0.084,6.685,4.987,5.564c1.931-0.426,2.066,0.928,2.061,2.415c-0.033,8.32-0.054,16.642,0.015,24.961
		c0.015,1.809-0.351,2.981-2.424,2.58c-3.364-0.651-3.867,1.082-3.653,3.901C34.14,86.729,33.975,89.568,33.975,93.666z"/>
	<path fill-rule="evenodd" clip-rule="evenodd" fill="#A00F0F" d="M87.196,76.189c-0.018,4.249-3.54,5.702-6.234,7.813
		c-0.806-4.079-4.324-3.597-7.074-3.869c-2.396-0.237-5.252,1.269-7.252,0.437c-7.227-3.009-14.599-4.703-22.405-4.595
		c-1.691-4.904-3.498-9.796-1.563-15.077c1.179,4.683,3.19,8.683,8.313,10.129c3.663,0.698,6.548,5.671,11.006,2.002
		c0.961,0.014,1.922,0.028,2.885,0.042c0.815,1.063,1.983,0.94,3.118,0.929c3.66,2.849,7.335-0.919,11,0.024
		C81.05,77.303,84.641,74.781,87.196,76.189z M80.698,78.41c0.021,0.104,0.008,0.258,0.072,0.303
		c0.093,0.067,0.242,0.058,0.366,0.081c-0.033-0.174-0.066-0.347-0.099-0.52C80.925,78.319,80.812,78.365,80.698,78.41z"/>
	<path fill-rule="evenodd" clip-rule="evenodd" fill="#7B090A" d="M44.23,75.975c7.807-0.108,15.179,1.585,22.405,4.595
		c2,0.832,4.856-0.674,7.252-0.437c2.75,0.272,6.268-0.21,7.074,3.869c-1.516,0.379-1.719,3.142-3.969,2.183
		c-2.363-2.426-5.298-0.346-7.894-0.624c-5.661-0.604-11.209-4.188-17.132-1.429C47.258,83.434,45.748,79.702,44.23,75.975z"/>
	<path fill-rule="evenodd" clip-rule="evenodd" fill="#B31515" d="M50.979,71.028c-5.123-1.447-7.133-5.447-8.313-10.129
		c0.149-5.02,2.675-8.807,6.249-12.051c1.63,2.026,3.485-2.21,5.101,0.185c-0.238,0.862-1.318,1.813-0.215,2.585
		c1.203,0.844,2.48,0.356,3.569-0.528c2.582-2.097,5.208-3.984,8.709-1.935c-0.702,1.302-2.277,2.143-2.081,3.923
		c-1.581-0.179-1.999,1.336-2.974,2.041c-2.163-0.003-4.527-0.553-6.434,0.145c-1.906,0.698-4.019-0.771-5.593,0.892
		c-2.58,2.726-0.693,10.861,2.964,12.884c0.329,0.072,0.657,0.144,0.987,0.216C52.293,69.845,51.636,70.436,50.979,71.028z"/>
	<path fill-rule="evenodd" clip-rule="evenodd" fill="#BF1313" d="M87.196,76.189c-2.556-1.408-6.146,1.114-8.208-2.164
		c0-0.662-0.001-1.325-0.002-1.987c1.979-1.075,3.258-2.565,2.962-4.99c3.744-4.229,3.75-8.983,1.966-13.99
		c0.704,0.013,1.409,0.025,2.112,0.039c2.668,2.027,2.051,5.633,3.876,8.065c-2.413,3.361,0.898,6.709,0.021,10.067
		C89.015,72.882,88.105,74.536,87.196,76.189z"/>
	<path fill-rule="evenodd" clip-rule="evenodd" fill="#4C1313" d="M51.967,84.133c5.922-2.76,11.471,0.824,17.132,1.429
		c2.596,0.277,5.531-1.802,7.894,0.624C68.219,90.455,60.209,92.417,51.967,84.133z"/>
	<path fill-rule="evenodd" clip-rule="evenodd" fill="#9D0404" d="M66.082,49.156c-3.502-2.051-6.129-0.164-8.71,1.933
		c-1.089,0.884-2.366,1.373-3.569,0.528c-1.103-0.772-0.023-1.724,0.215-2.585c1.533-2.889,6.435-1.748,6.974-5.827
		c0.315-0.113,0.64-0.175,0.974-0.186c2.619,2.171,5.289,2.05,7.998,0.179c2.2,0.416,4.601,0.352,6.058,2.542
		c-0.445,1.594-1.642,2.226-3.147,2.458C70.479,47.588,68.364,48.962,66.082,49.156z"/>
	<path fill-rule="evenodd" clip-rule="evenodd" fill="#BC1D1E" d="M72.873,48.201c1.507-0.235,2.704-0.868,3.148-2.461
		c5.073,0.088,7.33,4.008,10.006,7.357c-0.704-0.013-1.408-0.025-2.111-0.039c-0.647-0.333-1.296-0.666-1.945-1l-0.013-0.012
		c-0.271-0.536-0.562-0.646-0.888-0.044c-1.689,0.023-3.378,0.046-5.067,0.069C74.338,51.283,72.671,50.498,72.873,48.201z"/>
	<path fill-rule="evenodd" clip-rule="evenodd" fill="#A00F0F" d="M60.991,43.205c-0.539,4.08-5.441,2.938-6.974,5.827
		c-1.616-2.395-3.471,1.841-5.101-0.185C51.868,44.671,56.427,43.933,60.991,43.205z"/>
	<path fill-rule="evenodd" clip-rule="evenodd" fill="#A00F0F" d="M69.963,43.198c-2.709,1.871-5.379,1.992-7.998-0.179
		C64.68,40.874,67.276,44.047,69.963,43.198z"/>
	<path fill-rule="evenodd" clip-rule="evenodd" fill="#C30C0D" d="M76.002,52.071c1.689-0.023,3.378-0.046,5.067-0.068
		c0.295,0.03,0.591,0.044,0.889,0.043l0.013,0.012c0.316,1.408,0.705,2.804,0.933,4.227c0.622,3.89-0.893,4.994-4.918,3.645
		c-2.248-3.538-4.518-1.99-6.483,0.167c-2.512,2.757-2.096,5.206,1.335,6.949c0,0,0.192-0.018,0.192-0.018
		c-0.024,0.67-0.048,1.34-0.072,2.01l0.001-0.007c-1.611,0.011-3.237,0.169-4.83,0c-3.298-0.349-3.886,1.314-3.26,4.042
		c-0.961-0.015-1.922-0.029-2.883-0.043c0.084-1.751,1.972-3.87-1.018-4.995c-0.06-0.708-0.12-1.417-0.18-2.125
		c0.326-0.036,0.629-0.14,0.909-0.31c3.124-1.839,4.929-4.971,7.346-7.502C71.468,56.211,74.438,54.952,76.002,52.071z"/>
	<path fill-rule="evenodd" clip-rule="evenodd" fill="#BC1D1E" d="M60.967,68.035c2.99,1.125,1.102,3.244,1.018,4.995
		c-4.458,3.669-7.343-1.304-11.006-2.002c0.657-0.592,1.313-1.183,1.971-1.777c1.347-0.061,2.693-0.119,4.04-0.179
		C58.995,71.329,59.747,68.784,60.967,68.035z"/>
	<path fill-rule="evenodd" clip-rule="evenodd" fill="#BC1D1E" d="M78.986,72.039c0,0.662,0.001,1.325,0.002,1.987
		c-3.665-0.944-7.34,2.825-11-0.024c1.778-1.536,4.963-1.664,4.971-4.97l-0.001,0.007c0.655,0.043,1.31,0.086,1.965,0.129
		C75.399,71.366,77.189,71.708,78.986,72.039z"/>
	<path fill-rule="evenodd" clip-rule="evenodd" fill="#C93132" d="M72.958,69.031c-0.007,3.306-3.192,3.434-4.971,4.97
		c-1.135,0.011-2.302,0.134-3.118-0.929c-0.627-2.726-0.039-4.39,3.259-4.041C69.721,69.2,71.347,69.042,72.958,69.031z"/>
	<path fill-rule="evenodd" clip-rule="evenodd" fill="#BF1313" d="M80.698,78.41c0.113-0.045,0.227-0.091,0.34-0.136
		c0.033,0.173,0.066,0.346,0.099,0.52c-0.125-0.023-0.273-0.014-0.366-0.081C80.707,78.668,80.72,78.515,80.698,78.41z"/>
	<path fill-rule="evenodd" clip-rule="evenodd" fill="#DE2E2E" d="M76.002,52.071c-1.564,2.88-4.534,4.14-6.96,6.026
		c-0.655-2.704-3.838-2.869-5.042-5.02c-0.196-1.78,1.379-2.621,2.081-3.923c2.283-0.192,4.399-1.566,6.793-0.956
		C72.671,50.498,74.338,51.283,76.002,52.071z"/>
	<path fill-rule="evenodd" clip-rule="evenodd" fill="#E94141" d="M64,53.077c1.205,2.151,4.387,2.316,5.042,5.02
		c-2.417,2.533-4.222,5.664-7.341,7.508c-3.359-1.479,0.268-4.819-1.767-6.655c0.723-1.175,1.166-2.43,1.092-3.833
		C62.001,54.414,62.419,52.898,64,53.077z"/>
	<path fill-rule="evenodd" clip-rule="evenodd" fill="#C93132" d="M61.026,55.118c0.074,1.403-0.369,2.658-1.091,3.834
		c-3.434-1.255-7.134-3.729-9.043,1.98c-2.029,2.462-0.428,4.278,1.086,6.111c-0.005,0.665-0.01,1.33-0.014,1.996
		C48.306,67.015,46.419,58.88,49,56.154c1.574-1.664,3.687-0.194,5.593-0.892C56.499,54.565,58.863,55.115,61.026,55.118z"/>
	<path fill-rule="evenodd" clip-rule="evenodd" fill="#DC5050" d="M51.963,69.038c0.004-0.666,0.009-1.331,0.014-1.996
		c2.748,0.442,4.229-0.905,5.223-3.354c0.583-1.437,0.484-2.402-0.579-3.521c-2.182-2.296-3.434,0.969-5.237,0.768
		c-0.163-0.018-0.329-0.003-0.494-0.004c1.91-5.708,5.61-3.235,9.043-1.98c2.034,1.834-1.593,5.175,1.766,6.654
		c-0.284,0.165-0.587,0.269-0.911,0.306c-2.319-0.214-3.083,1.446-3.8,3.161c-1.346,0.06-2.693,0.118-4.04,0.179
		C52.621,69.182,52.292,69.11,51.963,69.038z"/>
	<path fill-rule="evenodd" clip-rule="evenodd" fill="#DE2E2E" d="M77.985,59.929c4.026,1.349,5.541,0.245,4.918-3.645
		c-0.228-1.422-0.617-2.818-0.933-4.227c0.649,0.334,1.298,0.667,1.945,1c1.782,5.007,1.777,9.761-1.967,13.991
		c-0.313-0.001-0.628,0.002-0.942,0.007c0.001-1.003,0.002-2.006,0.003-3.011c0.243-0.354,0.486-0.708,0.729-1.062
		c-0.124-0.085-0.247-0.17-0.371-0.254c-0.135,0.425-0.271,0.851-0.405,1.275c-3.451-1.107-5.025,2.713-7.935,3.023
		c0,0-0.192,0.018-0.19,0.018C72.851,63.441,73.024,59.955,77.985,59.929z"/>
	<path fill-rule="evenodd" clip-rule="evenodd" fill="#C93132" d="M81.007,67.055c0.314-0.005,0.628-0.008,0.942-0.007
		c0.295,2.425-0.984,3.915-2.963,4.99c-1.797-0.331-3.587-0.673-4.064-2.874C77.071,68.808,79.694,69.821,81.007,67.055z"/>
	<path fill-rule="evenodd" clip-rule="evenodd" fill="#DE2E2E" d="M81.958,52.046c-0.297,0.001-0.594-0.013-0.889-0.043
		C81.396,51.4,81.688,51.51,81.958,52.046z"/>
	<path fill-rule="evenodd" clip-rule="evenodd" fill="#BF1313" d="M77.985,59.929c-4.96,0.025-5.134,3.512-5.146,7.116
		c-3.433-1.744-3.849-4.192-1.337-6.949C73.467,57.939,75.737,56.392,77.985,59.929z"/>
	<path fill-rule="evenodd" clip-rule="evenodd" fill="#E94141" d="M81.007,67.055c-1.313,2.766-3.936,1.753-6.085,2.11
		c-0.655-0.041-1.311-0.084-1.965-0.127c0.024-0.67,0.047-1.34,0.072-2.01c2.91-0.311,4.484-4.131,7.935-3.023l0.047,0.041
		C81.01,65.049,81.008,66.052,81.007,67.055z"/>
	<path fill-rule="evenodd" clip-rule="evenodd" fill="#C93132" d="M56.99,69.072c0.717-1.715,1.481-3.375,3.8-3.161
		c0.058,0.707,0.118,1.416,0.177,2.124C59.747,68.784,58.995,71.329,56.99,69.072z"/>
	<path fill-rule="evenodd" clip-rule="evenodd" fill="#E76969" d="M50.891,60.932c0.165,0.001,0.331-0.014,0.494,0.004
		c1.804,0.201,3.055-3.064,5.237-0.768c1.063,1.119,1.162,2.083,0.579,3.521c-0.995,2.45-2.476,3.797-5.223,3.354
		C50.463,65.21,48.862,63.394,50.891,60.932z"/>
	<path fill-rule="evenodd" clip-rule="evenodd" fill="#E94141" d="M80.964,64.004c0.135-0.425,0.27-0.851,0.405-1.275
		c0.124,0.084,0.247,0.169,0.371,0.254c-0.243,0.354-0.486,0.708-0.729,1.062C81.011,64.045,80.964,64.004,80.964,64.004z"/>
</g>
</svg>
