<?xml version="1.0" encoding="utf-8"?>
<!-- Generator: Adobe Illustrator 16.0.3, SVG Export Plug-In . SVG Version: 6.00 Build 0)  -->
<!DOCTYPE svg PUBLIC "-//W3C//DTD SVG 1.1//EN" "http://www.w3.org/Graphics/SVG/1.1/DTD/svg11.dtd">
<svg version="1.1" id="Capa_1" xmlns="http://www.w3.org/2000/svg" xmlns:xlink="http://www.w3.org/1999/xlink" x="0px" y="0px"
	 width="131.03px" height="130.03px" viewBox="0 0 131.03 130.03" enable-background="new 0 0 131.03 130.03" xml:space="preserve">
<g>
	<path fill-rule="evenodd" clip-rule="evenodd" fill="#020202" d="M128.963,65.943c-0.675,35.609-29.229,63.601-64.269,63.004
		C29.36,128.346,1.137,99.272,2,64.364C2.868,29.212,31.776,1.323,66.525,2.113C101.525,2.91,129.615,31.625,128.963,65.943z
		 M59.991,43.205c-4.564,0.728-9.123,1.467-12.076,5.643c-3.573,3.244-6.098,7.032-6.249,12.051
		c-1.934,5.28-0.126,10.172,1.564,15.077c1.513,3.731,3.038,7.452,7.736,8.166c8.41,8.329,15.961,6.247,25.029,2.053
		c2.246,0.942,2.451-1.81,3.965-2.192c2.697-2.113,6.218-3.566,6.235-7.816c6.013-9.249,3.925-13.51-1.169-23.087
		c-2.675-3.352-4.933-7.27-10.007-7.36c-1.457-2.189-3.858-2.125-6.058-2.541c-2.686,0.849-5.282-2.325-7.998-0.179
		C60.63,43.031,60.306,43.092,59.991,43.205z M36.333,33.019c3.758,0,6.246,0.034,8.732-0.009c2.833-0.048,5.945-0.607,4.957,4.081
		c-0.429,2.03,1.151,1.935,2.52,1.934c8.321-0.011,16.641-0.019,24.962,0.007c1.446,0.005,2.865-0.053,2.453-2.02
		c-1.168-5.574,2.367-5.264,6.024-5.016c1.881,0.128,3.777,0.022,6.589,0.022c-9.012-8.982-17.28-17.132-25.415-25.411
		c-1.684-1.713-2.643-1.721-4.335-0.005C54.332,15.213,45.711,23.693,36.333,33.019z M92.688,100.042
		c-3.736,0-6.223-0.206-8.66,0.051c-3.185,0.334-4.655-0.655-4.051-4.002c0.418-2.317-0.45-3.156-2.933-3.109
		c-8.151,0.155-16.307,0.06-24.46,0.058c-1.333,0-2.989-0.172-2.557,1.888c0.969,4.621-2.014,4.212-4.92,4.129
		c-2.574-0.072-5.152-0.015-8.764-0.015c9.475,9.424,18.207,18.016,26.803,26.741c1.744,1.771,2.632,1.012,3.963-0.321
		C75.316,117.242,83.581,109.079,92.688,100.042z"/>
	<path fill-rule="evenodd" clip-rule="evenodd" fill="#FEFEFE" d="M36.333,33.019c9.378-9.326,17.998-17.806,26.486-26.416
		c1.692-1.716,2.651-1.708,4.335,0.005c8.135,8.279,16.403,16.428,25.415,25.411c-2.812,0-4.708,0.105-6.589-0.022
		c-3.657-0.248-7.192-0.558-6.024,5.016c0.412,1.967-1.006,2.024-2.453,2.02c-8.321-0.025-16.641-0.018-24.962-0.007
		c-1.369,0.001-2.949,0.097-2.52-1.934c0.988-4.688-2.124-4.129-4.957-4.081C42.579,33.053,40.091,33.019,36.333,33.019z"/>
	<path fill-rule="evenodd" clip-rule="evenodd" fill="#FEFEFE" d="M92.688,100.042c-9.107,9.037-17.372,17.2-25.58,25.419
		c-1.332,1.333-2.219,2.092-3.963,0.321c-8.596-8.726-17.328-17.317-26.803-26.741c3.611,0,6.189-0.058,8.764,0.015
		c2.906,0.083,5.889,0.492,4.92-4.129c-0.432-2.06,1.224-1.888,2.557-1.888c8.154,0.002,16.31,0.098,24.46-0.058
		c2.483-0.047,3.352,0.792,2.933,3.109c-0.604,3.347,0.866,4.336,4.051,4.002C86.465,99.836,88.952,100.042,92.688,100.042z"/>
	<path fill-rule="evenodd" clip-rule="evenodd" fill="#A00F0F" d="M86.196,76.186c-0.017,4.25-3.539,5.703-6.235,7.816
		c-0.807-4.079-4.324-3.596-7.073-3.869c-2.397-0.237-5.252,1.269-7.253,0.436c-7.227-3.008-14.598-4.703-22.405-4.594
		c-1.69-4.905-3.498-9.796-1.563-15.077c1.178,4.684,3.19,8.682,8.312,10.129c3.663,0.699,6.549,5.671,11.006,2.002
		c0.961,0.014,1.922,0.028,2.885,0.042c0.815,1.063,1.983,0.94,3.117,0.929c3.661,2.849,7.336-0.919,11,0.025
		c1.431,1.167,2.534,2.476,1.233,5.111C83.878,75.316,83.878,75.316,86.196,76.186z"/>
	<path fill-rule="evenodd" clip-rule="evenodd" fill="#7B090A" d="M43.23,75.975c7.807-0.109,15.178,1.586,22.405,4.594
		c2,0.833,4.856-0.673,7.253-0.436c2.749,0.273,6.267-0.21,7.073,3.869c-1.515,0.382-1.72,3.134-3.966,2.19
		c-2.313-2.477-5.164-0.264-7.75-0.597c-5.687-0.731-11.308-4.089-17.28-1.455C46.268,83.427,44.744,79.706,43.23,75.975z"/>
	<path fill-rule="evenodd" clip-rule="evenodd" fill="#B31515" d="M49.979,71.027c-5.121-1.447-7.133-5.445-8.312-10.129
		c0.15-5.019,2.674-8.807,6.248-12.05c1.629,2.024,3.485-2.211,5.101,0.184c-0.238,0.862-1.317,1.813-0.214,2.585
		c1.203,0.844,2.48,0.355,3.569-0.528c2.581-2.097,5.208-3.984,8.709-1.935c-0.703,1.302-2.277,2.143-2.081,3.923
		c-1.58-0.178-1.999,1.336-2.974,2.041c-2.163-0.003-4.527-0.553-6.434,0.145c-1.907,0.698-4.019-0.771-5.593,0.892
		c-2.581,2.727-0.694,10.861,2.964,12.884c0.329,0.072,0.657,0.145,0.986,0.216C51.293,69.845,50.636,70.436,49.979,71.027z"/>
	<path fill-rule="evenodd" clip-rule="evenodd" fill="#BF1313" d="M86.196,76.186c-2.318-0.87-2.318-0.87-6.975,2.952
		c1.301-2.635,0.197-3.944-1.233-5.111c0-0.663-0.001-1.325-0.001-1.987c1.977-1.077,3.258-2.566,2.962-4.992
		c3.745-4.229,3.75-8.984,1.967-13.99c0.704,0.015,1.407,0.028,2.111,0.043C90.121,62.676,92.209,66.938,86.196,76.186z"/>
	<path fill-rule="evenodd" clip-rule="evenodd" fill="#4A1010" d="M50.966,84.141c5.972-2.634,11.593,0.723,17.28,1.455
		c2.585,0.333,5.436-1.88,7.75,0.597C66.927,90.387,59.376,92.47,50.966,84.141z"/>
	<path fill-rule="evenodd" clip-rule="evenodd" fill="#9D0404" d="M65.082,49.156c-3.502-2.051-6.129-0.164-8.71,1.933
		c-1.089,0.884-2.367,1.373-3.569,0.528c-1.103-0.772-0.023-1.724,0.214-2.585c1.533-2.889,6.435-1.748,6.974-5.828
		c0.315-0.112,0.64-0.174,0.975-0.186c2.619,2.17,5.288,2.05,7.997,0.179c2.2,0.417,4.601,0.352,6.058,2.542
		c-0.445,1.594-1.642,2.226-3.147,2.459C69.479,47.587,67.364,48.962,65.082,49.156z"/>
	<path fill-rule="evenodd" clip-rule="evenodd" fill="#BC1D1E" d="M71.873,48.201c1.506-0.235,2.703-0.868,3.148-2.461
		c5.073,0.089,7.332,4.007,10.007,7.36c-0.704-0.014-1.408-0.027-2.111-0.042c-0.648-0.334-1.297-0.667-1.946-1l-0.013-0.012
		c-0.271-0.535-0.562-0.646-0.888-0.044c-1.689,0.023-3.378,0.046-5.067,0.069C73.338,51.283,71.67,50.498,71.873,48.201z"/>
	<path fill-rule="evenodd" clip-rule="evenodd" fill="#A00F0F" d="M59.991,43.205c-0.539,4.08-5.441,2.938-6.974,5.828
		c-1.616-2.395-3.472,1.84-5.101-0.184C50.868,44.672,55.427,43.933,59.991,43.205z"/>
	<path fill-rule="evenodd" clip-rule="evenodd" fill="#A00F0F" d="M68.962,43.198c-2.709,1.872-5.378,1.992-7.997-0.179
		C63.68,40.873,66.276,44.047,68.962,43.198z"/>
	<path fill-rule="evenodd" clip-rule="evenodd" fill="#C30C0D" d="M75.002,52.071c1.689-0.023,3.378-0.046,5.066-0.068
		c0.295,0.03,0.592,0.044,0.889,0.043l0.013,0.012c0.316,1.409,0.705,2.805,0.932,4.228c0.622,3.891-0.894,4.995-4.919,3.643
		c-2.403-3.619-4.725-1.916-6.634,0.355c-2.251,2.679-1.902,5.142,1.485,6.761c0,0,0.195-0.017,0.194-0.017
		c-0.024,0.67-0.048,1.34-0.072,2.01l0.001-0.007c-1.611,0.011-3.238,0.169-4.83,0c-3.297-0.349-3.885,1.315-3.26,4.042
		c-0.961-0.015-1.922-0.029-2.883-0.043c0.084-1.751,1.971-3.87-1.018-4.995c-0.06-0.708-0.12-1.417-0.18-2.125
		c0.326-0.036,0.628-0.14,0.908-0.31c3.125-1.839,4.929-4.972,7.347-7.503C70.468,56.21,73.438,54.952,75.002,52.071z"/>
	<path fill-rule="evenodd" clip-rule="evenodd" fill="#BC1D1E" d="M59.967,68.035c2.989,1.125,1.102,3.244,1.018,4.995
		c-4.458,3.669-7.343-1.304-11.006-2.002c0.657-0.592,1.314-1.183,1.971-1.776c1.347-0.062,2.694-0.12,4.04-0.18
		C57.994,71.327,58.747,68.784,59.967,68.035z"/>
	<path fill-rule="evenodd" clip-rule="evenodd" fill="#BC1D1E" d="M77.987,72.04c0,0.662,0.001,1.324,0.001,1.987
		c-3.665-0.945-7.34,2.824-11-0.025c1.778-1.535,4.963-1.664,4.971-4.97l-0.001,0.007c0.655,0.043,1.31,0.086,1.965,0.129
		C74.399,71.365,76.19,71.707,77.987,72.04z"/>
	<path fill-rule="evenodd" clip-rule="evenodd" fill="#C93132" d="M71.958,69.031c-0.008,3.307-3.193,3.436-4.971,4.97
		c-1.134,0.011-2.302,0.134-3.117-0.929c-0.627-2.726-0.039-4.39,3.258-4.041C68.721,69.2,70.347,69.042,71.958,69.031z"/>
	<path fill-rule="evenodd" clip-rule="evenodd" fill="#DE2E2E" d="M75.002,52.071c-1.564,2.881-4.534,4.14-6.96,6.026
		c-0.656-2.704-3.838-2.869-5.042-5.02c-0.196-1.78,1.378-2.621,2.081-3.923c2.283-0.192,4.398-1.567,6.793-0.955
		C71.67,50.498,73.338,51.283,75.002,52.071z"/>
	<path fill-rule="evenodd" clip-rule="evenodd" fill="#E94141" d="M63,53.077c1.205,2.151,4.387,2.316,5.042,5.02
		c-2.417,2.532-4.222,5.665-7.342,7.508c-3.358-1.478,0.269-4.819-1.766-6.654c0.723-1.175,1.166-2.431,1.092-3.833
		C61.001,54.414,61.419,52.899,63,53.077z"/>
	<path fill-rule="evenodd" clip-rule="evenodd" fill="#C93132" d="M60.026,55.118c0.074,1.402-0.369,2.658-1.091,3.834
		c-3.434-1.255-7.134-3.729-9.043,1.98c-2.029,2.462-0.427,4.278,1.086,6.11c-0.005,0.666-0.01,1.331-0.014,1.996
		C47.306,67.015,45.419,58.88,48,56.154c1.574-1.663,3.686-0.193,5.593-0.892C55.499,54.565,57.863,55.115,60.026,55.118z"/>
	<path fill-rule="evenodd" clip-rule="evenodd" fill="#DC5050" d="M50.963,69.038c0.004-0.665,0.009-1.33,0.014-1.996
		c2.747,0.443,4.229-0.904,5.223-3.354c0.583-1.437,0.484-2.402-0.578-3.521c-2.182-2.295-3.434,0.969-5.238,0.768
		c-0.163-0.018-0.329-0.003-0.493-0.004c1.91-5.708,5.61-3.235,9.043-1.98c2.034,1.834-1.593,5.175,1.765,6.653
		c-0.284,0.166-0.586,0.27-0.91,0.307c-2.319-0.213-3.083,1.446-3.8,3.161c-1.346,0.06-2.693,0.118-4.04,0.18
		C51.621,69.182,51.292,69.11,50.963,69.038z"/>
	<path fill-rule="evenodd" clip-rule="evenodd" fill="#DE2E2E" d="M76.983,59.927c4.026,1.352,5.542,0.248,4.919-3.643
		c-0.227-1.423-0.616-2.819-0.932-4.228c0.649,0.333,1.297,0.667,1.946,1c1.782,5.006,1.777,9.761-1.967,13.99
		c-0.314-0.001-0.628,0.002-0.943,0.007c0.001-1.003,0.002-2.006,0.003-3.01c0.244-0.354,0.487-0.707,0.73-1.062
		c-0.124-0.085-0.247-0.169-0.371-0.254c-0.135,0.425-0.271,0.851-0.406,1.276c-3.45-1.107-5.024,2.711-7.934,3.023
		c0,0-0.195,0.017-0.193,0.017C71.851,63.441,72.024,59.954,76.983,59.927z"/>
	<path fill-rule="evenodd" clip-rule="evenodd" fill="#C93132" d="M80.007,67.055c0.315-0.005,0.629-0.008,0.943-0.007
		c0.295,2.425-0.986,3.915-2.963,4.992c-1.797-0.333-3.587-0.674-4.064-2.875C76.071,68.808,78.694,69.821,80.007,67.055z"/>
	<path fill-rule="evenodd" clip-rule="evenodd" fill="#DE2E2E" d="M80.958,52.045c-0.297,0.001-0.594-0.013-0.889-0.043
		C80.396,51.4,80.688,51.51,80.958,52.045z"/>
	<path fill-rule="evenodd" clip-rule="evenodd" fill="#BF1313" d="M76.983,59.927c-4.959,0.026-5.132,3.514-5.147,7.117
		c-3.389-1.619-3.738-4.083-1.487-6.761C72.258,58.012,74.581,56.308,76.983,59.927z"/>
	<path fill-rule="evenodd" clip-rule="evenodd" fill="#E94141" d="M80.007,67.055c-1.313,2.767-3.936,1.753-6.084,2.11
		c-0.656-0.041-1.311-0.084-1.965-0.127c0.024-0.67,0.047-1.34,0.072-2.01c2.91-0.312,4.484-4.13,7.934-3.023l0.047,0.041
		C80.009,65.048,80.008,66.052,80.007,67.055z"/>
	<path fill-rule="evenodd" clip-rule="evenodd" fill="#C93132" d="M55.99,69.072c0.717-1.715,1.481-3.374,3.8-3.161
		c0.058,0.707,0.118,1.416,0.177,2.124C58.747,68.784,57.994,71.327,55.99,69.072z"/>
	<path fill-rule="evenodd" clip-rule="evenodd" fill="#E76969" d="M49.891,60.932c0.165,0.001,0.331-0.014,0.493,0.004
		c1.804,0.201,3.056-3.063,5.238-0.768c1.063,1.119,1.162,2.083,0.578,3.521c-0.994,2.45-2.476,3.797-5.223,3.354
		C49.464,65.21,47.862,63.394,49.891,60.932z"/>
	<path fill-rule="evenodd" clip-rule="evenodd" fill="#E94141" d="M79.963,64.004c0.135-0.425,0.271-0.851,0.406-1.276
		c0.124,0.085,0.248,0.169,0.371,0.254c-0.243,0.354-0.486,0.708-0.73,1.062C80.01,64.045,79.963,64.004,79.963,64.004z"/>
</g>
</svg>
